<?xml version="1.0" encoding="UTF-8"?><svg id="Ebene_2" xmlns="http://www.w3.org/2000/svg" width="340.45mm" height="214.86mm" viewBox="0 0 965.06 609.05"><defs><style>.cls-1{stroke-width:4.48px;}.cls-1,.cls-2,.cls-3,.cls-4,.cls-5{fill:none;}.cls-1,.cls-2,.cls-4,.cls-5,.cls-6{stroke-miterlimit:10;}.cls-1,.cls-5{stroke:#fff;}.cls-2{stroke-width:5.44px;}.cls-2,.cls-3,.cls-4,.cls-6{stroke:#1d1d1b;}.cls-2,.cls-5{stroke-linecap:square;}.cls-3{stroke-linecap:round;stroke-linejoin:round;stroke-width:1.02px;}.cls-4{stroke-width:5.76px;}.cls-7,.cls-6{fill:#fff;fill-rule:evenodd;}.cls-5{stroke-width:3.63px;}.cls-6{stroke-width:.72px;}</style></defs><g id="DRAW"><line class="cls-4" x1="359.56" y1="416.84" x2="305.04" y2="385.36"/><line class="cls-1" x1="359.56" y1="416.84" x2="305.04" y2="385.36"/><polyline class="cls-4" points="632.17 259.45 686.69 290.92 686.65 290.95 632.13 322.4 632.13 322.44 577.6 353.89 577.6 353.92 523.08 385.37 523.08 385.4 468.56 416.85 468.56 416.87 414.04 448.33 414.04 448.33 359.56 416.84"/><polyline class="cls-1" points="632.17 259.45 686.69 290.92 686.65 290.95 632.13 322.4 632.13 322.44 577.6 353.89 577.6 353.92 523.08 385.37 523.08 385.4 468.56 416.85 468.56 416.87 414.04 448.33 414.04 448.33 359.56 416.84"/><polyline class="cls-4" points="632.17 259.45 577.59 227.99 550.34 212.25 495.82 243.71 495.82 243.74 441.3 275.19 441.3 275.22 386.77 306.67 386.77 306.7 332.25 338.15 332.25 338.18 277.73 369.63 277.72 369.64 304.98 385.38"/><polyline class="cls-1" points="632.17 259.45 577.59 227.99 550.34 212.25 495.82 243.71 495.82 243.74 441.3 275.19 441.3 275.22 386.77 306.67 386.77 306.7 332.25 338.15 332.25 338.18 277.73 369.63 277.72 369.64 304.98 385.38"/><line class="cls-4" x1="632.19" y1="259.45" x2="577.66" y2="227.97"/><line class="cls-1" x1="632.19" y1="259.45" x2="577.66" y2="227.97"/><polyline class="cls-4" points="904.8 102.06 959.32 133.54 959.28 133.57 904.76 165.02 904.75 165.05 850.23 196.51 850.23 196.53 795.71 227.99 795.71 228.01 741.19 259.46 741.18 259.49 686.66 290.94 686.66 290.94 632.19 259.45"/><polyline class="cls-1" points="904.8 102.06 959.32 133.54 959.28 133.57 904.76 165.02 904.75 165.05 850.23 196.51 850.23 196.53 795.71 227.99 795.71 228.01 741.19 259.46 741.18 259.49 686.66 290.94 686.66 290.94 632.19 259.45"/><polyline class="cls-4" points="904.8 102.06 850.22 70.6 822.97 54.87 768.45 86.32 768.44 86.36 713.92 117.81 713.92 117.84 659.4 149.29 659.4 149.31 604.88 180.77 604.88 180.79 550.36 212.25 550.35 212.25 577.61 227.99"/><polyline class="cls-1" points="904.8 102.06 850.22 70.6 822.97 54.87 768.45 86.32 768.44 86.36 713.92 117.81 713.92 117.84 659.4 149.29 659.4 149.31 604.88 180.77 604.88 180.79 550.36 212.25 550.35 212.25 577.61 227.99"/><line class="cls-4" x1="87" y1="574.23" x2="32.48" y2="542.75"/><line class="cls-1" x1="87" y1="574.23" x2="32.48" y2="542.75"/><polyline class="cls-4" points="359.61 416.84 414.13 448.32 414.09 448.34 359.57 479.8 359.56 479.83 305.04 511.28 305.04 511.31 250.52 542.76 250.52 542.79 196 574.24 196 574.27 141.48 605.72 141.48 605.72 87 574.23"/><polyline class="cls-1" points="359.61 416.84 414.13 448.32 414.09 448.34 359.57 479.8 359.56 479.83 305.04 511.28 305.04 511.31 250.52 542.76 250.52 542.79 196 574.24 196 574.27 141.48 605.72 141.48 605.72 87 574.23"/><polyline class="cls-4" points="359.61 416.84 305.03 385.38 277.78 369.65 223.26 401.1 223.26 401.14 168.74 432.59 168.74 432.61 114.21 464.07 114.21 464.09 59.69 495.55 59.69 495.57 5.17 527.02 5.16 527.03 32.42 542.77"/><polyline class="cls-1" points="359.61 416.84 305.03 385.38 277.78 369.65 223.26 401.1 223.26 401.14 168.74 432.59 168.74 432.61 114.21 464.07 114.21 464.09 59.69 495.55 59.69 495.57 5.17 527.02 5.16 527.03 32.42 542.77"/><polyline class="cls-6" points="622.14 309.84 613.54 319.92 612.21 317.7 611.02 327.18 606.72 334.89 600.2 342.6 597.04 345.19 589.53 348.27 583.76 347.66 572.85 341.27 571.11 346.42 559.37 350.54 513.56 377.51 496.68 386.15 466.42 406.23 464.67 405.71 463.44 411.68 461.37 416.52 456.12 424.65 448.41 431.65 442.54 433.71 435.95 432.99 424.52 425.99 413.31 427.12 409.7 426.3 382.34 412.12 360.42 399.87 338.49 385.97 324.49 376.4 320.68 371.15 320.27 359.72 322.74 356.12 323.57 342.43 324.28 338.27 350.71 316.14 363 305.38 365.16 301.39 372.84 295.55 415.56 268.81 447.06 252.49 447.65 245.97 450.92 244.05 461.07 247.7 466.63 247.7 479.35 250.67 508.13 237.33 530.49 228.06 545.43 224.11 584.62 243.78 622.43 269.29 626.73 271.75 627.77 279.6 631.33 283.61 629.7 293.68 622.14 309.84"/><line class="cls-3" x1="324.28" y1="338.27" x2="350.71" y2="316.14"/><line class="cls-3" x1="350.71" y1="316.14" x2="363" y2="305.38"/><line class="cls-3" x1="363" y1="305.38" x2="365.16" y2="301.39"/><line class="cls-3" x1="365.16" y1="301.39" x2="372.84" y2="295.55"/><line class="cls-3" x1="372.84" y1="295.55" x2="415.56" y2="268.81"/><line class="cls-3" x1="415.56" y1="268.81" x2="447.06" y2="252.49"/><line class="cls-3" x1="447.06" y1="252.49" x2="447.65" y2="245.97"/><line class="cls-3" x1="447.65" y1="245.97" x2="450.92" y2="244.05"/><line class="cls-3" x1="450.92" y1="244.05" x2="461.07" y2="247.7"/><line class="cls-3" x1="461.07" y1="247.7" x2="466.63" y2="247.7"/><line class="cls-3" x1="466.63" y1="247.7" x2="479.35" y2="250.67"/><line class="cls-3" x1="479.35" y1="250.67" x2="508.13" y2="237.33"/><line class="cls-3" x1="508.13" y1="237.33" x2="530.49" y2="228.06"/><line class="cls-3" x1="530.49" y1="228.06" x2="545.43" y2="224.11"/><line class="cls-3" x1="545.43" y1="224.11" x2="584.62" y2="243.78"/><line class="cls-3" x1="584.62" y1="243.78" x2="622.43" y2="269.29"/><line class="cls-3" x1="622.43" y1="269.29" x2="626.73" y2="271.75"/><line class="cls-3" x1="626.73" y1="271.75" x2="627.77" y2="279.6"/><line class="cls-3" x1="627.77" y1="279.6" x2="631.33" y2="283.61"/><line class="cls-3" x1="631.33" y1="283.61" x2="629.7" y2="293.68"/><line class="cls-3" x1="629.7" y1="293.68" x2="622.14" y2="309.84"/><line class="cls-3" x1="622.14" y1="309.84" x2="613.54" y2="319.92"/><line class="cls-3" x1="613.54" y1="319.92" x2="612.21" y2="317.7"/><line class="cls-3" x1="612.21" y1="317.7" x2="611.02" y2="327.18"/><line class="cls-3" x1="611.02" y1="327.18" x2="606.72" y2="334.89"/><line class="cls-3" x1="606.72" y1="334.89" x2="600.2" y2="342.6"/><line class="cls-3" x1="600.2" y1="342.6" x2="597.04" y2="345.19"/><line class="cls-3" x1="597.04" y1="345.19" x2="589.53" y2="348.27"/><line class="cls-3" x1="589.53" y1="348.27" x2="583.76" y2="347.66"/><line class="cls-3" x1="583.76" y1="347.66" x2="572.85" y2="341.27"/><line class="cls-3" x1="572.85" y1="341.27" x2="571.11" y2="346.42"/><line class="cls-3" x1="571.11" y1="346.42" x2="559.37" y2="350.54"/><line class="cls-3" x1="559.37" y1="350.54" x2="513.56" y2="377.51"/><line class="cls-3" x1="513.56" y1="377.51" x2="496.68" y2="386.15"/><line class="cls-3" x1="496.68" y1="386.15" x2="466.42" y2="406.23"/><line class="cls-3" x1="466.42" y1="406.23" x2="464.67" y2="405.71"/><line class="cls-3" x1="464.67" y1="405.71" x2="463.44" y2="411.68"/><line class="cls-3" x1="463.44" y1="411.68" x2="461.37" y2="416.52"/><line class="cls-3" x1="461.37" y1="416.52" x2="456.12" y2="424.65"/><line class="cls-3" x1="456.12" y1="424.65" x2="448.41" y2="431.65"/><line class="cls-3" x1="448.41" y1="431.65" x2="442.54" y2="433.71"/><line class="cls-3" x1="442.54" y1="433.71" x2="435.95" y2="432.99"/><line class="cls-3" x1="435.95" y1="432.99" x2="424.52" y2="425.99"/><line class="cls-3" x1="424.52" y1="425.99" x2="413.31" y2="427.12"/><line class="cls-3" x1="413.31" y1="427.12" x2="409.7" y2="426.3"/><line class="cls-3" x1="409.7" y1="426.3" x2="382.34" y2="412.12"/><line class="cls-3" x1="382.34" y1="412.12" x2="360.42" y2="399.87"/><line class="cls-3" x1="360.42" y1="399.87" x2="338.49" y2="385.97"/><line class="cls-3" x1="338.49" y1="385.97" x2="324.49" y2="376.4"/><line class="cls-3" x1="324.49" y1="376.4" x2="320.68" y2="371.15"/><line class="cls-3" x1="320.68" y1="371.15" x2="320.27" y2="359.72"/><line class="cls-3" x1="320.27" y1="359.72" x2="322.74" y2="356.12"/><line class="cls-3" x1="322.74" y1="356.12" x2="323.57" y2="342.43"/><line class="cls-3" x1="323.57" y1="342.43" x2="324.28" y2="338.27"/><line class="cls-3" x1="368.61" y1="305.64" x2="426.2" y2="339.37"/><line class="cls-3" x1="426.2" y1="339.37" x2="427.07" y2="343.45"/><line class="cls-3" x1="427.07" y1="343.45" x2="413.36" y2="369.63"/><line class="cls-3" x1="413.36" y1="369.63" x2="410.76" y2="372.1"/><line class="cls-3" x1="410.76" y1="372.1" x2="385.69" y2="358.27"/><line class="cls-3" x1="385.69" y1="358.27" x2="352.95" y2="339.12"/><line class="cls-3" x1="352.95" y1="339.12" x2="342.21" y2="332.21"/><line class="cls-3" x1="342.21" y1="332.21" x2="341.96" y2="330.11"/><line class="cls-3" x1="341.96" y1="330.11" x2="368.61" y2="305.64"/><line class="cls-3" x1="450.92" y1="326.18" x2="446.18" y2="367.53"/><line class="cls-3" x1="446.18" y1="367.53" x2="522.96" y2="325.58"/><line class="cls-3" x1="522.96" y1="325.58" x2="551.01" y2="310.43"/><line class="cls-3" x1="551.01" y1="310.43" x2="546.58" y2="297.71"/><line class="cls-3" x1="546.58" y1="297.71" x2="523.84" y2="287.2"/><line class="cls-3" x1="523.84" y1="287.2" x2="450.92" y2="326.18"/><line class="cls-3" x1="464.65" y1="248.95" x2="484.47" y2="258.13"/><line class="cls-3" x1="484.47" y1="258.13" x2="498.54" y2="266.19"/><line class="cls-3" x1="498.54" y1="266.19" x2="523.07" y2="283.69"/><line class="cls-3" x1="523.07" y1="283.69" x2="563.13" y2="299.91"/><line class="cls-3" x1="563.13" y1="299.91" x2="544.86" y2="283.26"/><line class="cls-3" x1="544.86" y1="283.26" x2="525.47" y2="269.11"/><line class="cls-3" x1="525.47" y1="269.11" x2="504.89" y2="259.67"/><line class="cls-3" x1="504.89" y1="259.67" x2="492.79" y2="254.7"/><line class="cls-3" x1="492.79" y1="254.7" x2="472.63" y2="249.9"/><line class="cls-3" x1="472.63" y1="249.9" x2="464.65" y2="248.95"/><line class="cls-3" x1="448.45" y1="246.25" x2="456.31" y2="248.65"/><line class="cls-3" x1="456.31" y1="248.65" x2="448.16" y2="252.08"/><line class="cls-3" x1="448.16" y1="252.08" x2="448.45" y2="246.25"/><line class="cls-3" x1="555.11" y1="305.44" x2="562.52" y2="312.23"/><line class="cls-3" x1="562.52" y1="312.23" x2="562.06" y2="317.85"/><line class="cls-3" x1="562.06" y1="317.85" x2="555.15" y2="311.69"/><line class="cls-3" x1="555.15" y1="311.69" x2="555.11" y2="305.44"/><line class="cls-3" x1="350.6" y1="357.96" x2="349.06" y2="366.28"/><line class="cls-3" x1="349.06" y1="366.28" x2="382.6" y2="385.07"/><line class="cls-3" x1="382.6" y1="385.07" x2="382.94" y2="376.32"/><line class="cls-3" x1="382.94" y1="376.32" x2="350.6" y2="357.96"/><line class="cls-3" x1="323.95" y1="340.21" x2="329.5" y2="344.15"/><line class="cls-3" x1="329.5" y1="344.15" x2="331.73" y2="357.88"/><line class="cls-3" x1="331.73" y1="357.88" x2="331.73" y2="364.23"/><line class="cls-3" x1="331.73" y1="364.23" x2="323.5" y2="358.39"/><line class="cls-3" x1="323.5" y1="358.39" x2="322.74" y2="356.12"/><line class="cls-3" x1="402.67" y1="386.72" x2="410.18" y2="390.22"/><line class="cls-3" x1="410.18" y1="390.22" x2="413.06" y2="389.2"/><line class="cls-3" x1="413.06" y1="389.2" x2="414.4" y2="407.93"/><line class="cls-3" x1="414.4" y1="407.93" x2="410.49" y2="409.06"/><line class="cls-3" x1="410.49" y1="409.06" x2="398.96" y2="403.5"/><line class="cls-3" x1="398.96" y1="403.5" x2="398.96" y2="397.22"/><line class="cls-3" x1="398.96" y1="397.22" x2="402.67" y2="386.72"/><line class="cls-3" x1="464.67" y1="405.71" x2="464.87" y2="400.97"/><line class="cls-3" x1="464.87" y1="400.97" x2="464.22" y2="397.52"/><line class="cls-3" x1="464.22" y1="397.52" x2="461.12" y2="392.75"/><line class="cls-3" x1="461.12" y1="392.75" x2="455.22" y2="388.94"/><line class="cls-3" x1="455.22" y1="388.94" x2="446.49" y2="392.62"/><line class="cls-3" x1="446.49" y1="392.62" x2="439.59" y2="399.11"/><line class="cls-3" x1="439.59" y1="399.11" x2="434.34" y2="406.11"/><line class="cls-3" x1="434.34" y1="406.11" x2="430.53" y2="414.03"/><line class="cls-3" x1="430.53" y1="414.03" x2="424.52" y2="425.99"/><line class="cls-3" x1="449.06" y1="397.46" x2="442.78" y2="402.2"/><line class="cls-3" x1="442.78" y1="402.2" x2="436.91" y2="411.77"/><line class="cls-3" x1="436.91" y1="411.77" x2="435.88" y2="420.72"/><line class="cls-3" x1="435.88" y1="420.72" x2="437.12" y2="427.11"/><line class="cls-3" x1="437.12" y1="427.11" x2="441.14" y2="429.99"/><line class="cls-3" x1="441.14" y1="429.99" x2="447.52" y2="429.27"/><line class="cls-3" x1="447.52" y1="429.27" x2="453.07" y2="425.05"/><line class="cls-3" x1="453.07" y1="425.05" x2="456.78" y2="420.72"/><line class="cls-3" x1="456.78" y1="420.72" x2="459.87" y2="415.47"/><line class="cls-3" x1="459.87" y1="415.47" x2="462.34" y2="409.81"/><line class="cls-3" x1="462.34" y1="409.81" x2="462.65" y2="403.95"/><line class="cls-3" x1="462.65" y1="403.95" x2="461.31" y2="399.52"/><line class="cls-3" x1="461.31" y1="399.52" x2="458.33" y2="396.23"/><line class="cls-3" x1="458.33" y1="396.23" x2="453.69" y2="395.61"/><line class="cls-3" x1="453.69" y1="395.61" x2="449.06" y2="397.46"/><line class="cls-3" x1="608.59" y1="314.16" x2="605.33" y2="310.9"/><line class="cls-3" x1="605.33" y1="310.9" x2="600.53" y2="310.47"/><line class="cls-3" x1="600.53" y1="310.47" x2="595.29" y2="312.96"/><line class="cls-3" x1="595.29" y1="312.96" x2="590.23" y2="317.25"/><line class="cls-3" x1="590.23" y1="317.25" x2="585.94" y2="323.42"/><line class="cls-3" x1="585.94" y1="323.42" x2="583.46" y2="330.54"/><line class="cls-3" x1="583.46" y1="330.54" x2="583.72" y2="337.66"/><line class="cls-3" x1="583.72" y1="337.66" x2="586.2" y2="343.24"/><line class="cls-3" x1="586.2" y1="343.24" x2="590.49" y2="344.52"/><line class="cls-3" x1="590.49" y1="344.52" x2="596.41" y2="343.24"/><line class="cls-3" x1="596.41" y1="343.24" x2="601.99" y2="338.52"/><line class="cls-3" x1="601.99" y1="338.52" x2="606.28" y2="332.26"/><line class="cls-3" x1="606.28" y1="332.26" x2="609.1" y2="325.05"/><line class="cls-3" x1="609.1" y1="325.05" x2="609.88" y2="319.05"/><line class="cls-3" x1="609.88" y1="319.05" x2="608.59" y2="314.16"/><line class="cls-3" x1="612.21" y1="317.7" x2="612.19" y2="314.67"/><line class="cls-3" x1="612.19" y1="314.67" x2="611.16" y2="310.73"/><line class="cls-3" x1="611.16" y1="310.73" x2="607.82" y2="306.35"/><line class="cls-3" x1="607.82" y1="306.35" x2="604.73" y2="304.12"/><line class="cls-3" x1="604.73" y1="304.12" x2="600.96" y2="302.58"/><line class="cls-3" x1="600.96" y1="302.58" x2="595.04" y2="306.44"/><line class="cls-3" x1="595.04" y1="306.44" x2="590.23" y2="310.81"/><line class="cls-3" x1="590.23" y1="310.81" x2="583.54" y2="318.45"/><line class="cls-3" x1="583.54" y1="318.45" x2="577.37" y2="328.83"/><line class="cls-3" x1="577.37" y1="328.83" x2="574.11" y2="336.63"/><line class="cls-3" x1="574.11" y1="336.63" x2="572.85" y2="341.27"/><line class="cls-3" x1="320.27" y1="359.72" x2="324.86" y2="364.81"/><line class="cls-3" x1="324.86" y1="364.81" x2="345.02" y2="378.45"/><line class="cls-3" x1="345.02" y1="378.45" x2="377.93" y2="396.23"/><line class="cls-3" x1="377.93" y1="396.23" x2="398.68" y2="407.94"/><line class="cls-3" x1="398.68" y1="407.94" x2="409.05" y2="412.39"/><line class="cls-3" x1="409.05" y1="412.39" x2="436.54" y2="403.17"/><line class="cls-3" x1="407.44" y1="388.95" x2="407.57" y2="385.86"/><line class="cls-3" x1="407.57" y1="385.86" x2="437.96" y2="332.5"/><line class="cls-3" x1="437.96" y1="332.5" x2="431.29" y2="325.38"/><line class="cls-3" x1="431.29" y1="325.38" x2="374.88" y2="294.27"/><line class="cls-3" x1="437.96" y1="332.5" x2="441.81" y2="328.64"/><line class="cls-3" x1="441.81" y1="328.64" x2="523.87" y2="284.02"/><line class="cls-3" x1="490.18" y1="305.19" x2="503.07" y2="336.45"/><line class="cls-3" x1="503.07" y1="336.45" x2="506.29" y2="339.17"/><line class="cls-3" x1="506.29" y1="339.17" x2="508.06" y2="348.95"/><line class="cls-3" x1="508.06" y1="348.95" x2="508.66" y2="360.07"/><line class="cls-3" x1="508.66" y1="360.07" x2="503.47" y2="378.3"/><line class="cls-3" x1="503.47" y1="378.3" x2="503.39" y2="382.72"/><line class="cls-3" x1="446.18" y1="367.53" x2="445.66" y2="374.74"/><line class="cls-3" x1="445.66" y1="374.74" x2="448.18" y2="383.34"/><line class="cls-3" x1="448.18" y1="383.34" x2="455.22" y2="388.94"/><line class="cls-3" x1="455.22" y1="388.94" x2="457.45" y2="388"/><line class="cls-3" x1="457.45" y1="388" x2="465.35" y2="388.6"/><line class="cls-3" x1="465.35" y1="388.6" x2="468.18" y2="394"/><line class="cls-3" x1="468.18" y1="394" x2="467.58" y2="401.89"/><line class="cls-3" x1="467.58" y1="401.89" x2="466.42" y2="406.23"/><line class="cls-3" x1="400.75" y1="392.16" x2="409.49" y2="395.62"/><line class="cls-3" x1="409.49" y1="395.62" x2="413.43" y2="394.38"/><line class="cls-3" x1="323.39" y1="345.39" x2="330.42" y2="349.8"/><line class="cls-3" x1="451.92" y1="370.02" x2="461.08" y2="365.39"/><line class="cls-3" x1="461.08" y1="365.39" x2="461.8" y2="370.12"/><line class="cls-3" x1="461.8" y1="370.12" x2="453.36" y2="374.44"/><line class="cls-3" x1="453.36" y1="374.44" x2="451.92" y2="370.02"/><line class="cls-3" x1="508.22" y1="340.37" x2="508.94" y2="345.21"/><line class="cls-3" x1="508.94" y1="345.21" x2="518.2" y2="339.96"/><line class="cls-3" x1="518.2" y1="339.96" x2="517.17" y2="334.71"/><line class="cls-3" x1="517.17" y1="334.71" x2="508.22" y2="340.37"/><line class="cls-3" x1="546.58" y1="297.71" x2="561.86" y2="304.49"/><line class="cls-3" x1="561.86" y1="304.49" x2="560.49" y2="305.44"/><line class="cls-3" x1="560.49" y1="305.44" x2="564.54" y2="311.34"/><line class="cls-3" x1="564.54" y1="311.34" x2="564.24" y2="318.19"/><line class="cls-3" x1="564.24" y1="318.19" x2="562.22" y2="318.55"/><line class="cls-3" x1="562.22" y1="318.55" x2="554.3" y2="312.05"/><line class="cls-3" x1="554.3" y1="312.05" x2="551.01" y2="310.43"/><line class="cls-3" x1="563.13" y1="299.91" x2="565.69" y2="307.18"/><line class="cls-3" x1="565.69" y1="307.18" x2="569.27" y2="319.54"/><line class="cls-3" x1="569.27" y1="319.54" x2="564.33" y2="343.72"/><line class="cls-3" x1="564.33" y1="343.72" x2="563.55" y2="349.07"/><line class="cls-3" x1="572.85" y1="341.27" x2="564.33" y2="343.72"/><line class="cls-3" x1="564.33" y1="343.72" x2="503.47" y2="378.3"/><line class="cls-3" x1="503.47" y1="378.3" x2="467.58" y2="401.89"/><line class="cls-3" x1="563.13" y1="299.91" x2="568.88" y2="297.01"/><line class="cls-3" x1="568.88" y1="297.01" x2="603.54" y2="280.11"/><line class="cls-3" x1="603.54" y1="280.11" x2="620.35" y2="272.57"/><line class="cls-3" x1="620.35" y1="272.57" x2="624.16" y2="270.28"/><line class="cls-3" x1="627.77" y1="279.6" x2="628.07" y2="285.95"/><line class="cls-3" x1="628.07" y1="285.95" x2="612.8" y2="302.67"/><line class="cls-3" x1="600.96" y1="302.58" x2="608.42" y2="300.7"/><line class="cls-3" x1="608.42" y1="300.7" x2="613.17" y2="302.27"/><line class="cls-3" x1="613.17" y1="302.27" x2="615.54" y2="309.11"/><line class="cls-3" x1="615.54" y1="309.11" x2="613.54" y2="319.92"/><line class="cls-3" x1="461.36" y1="247.7" x2="456.31" y2="248.65"/><line class="cls-3" x1="448.16" y1="252.08" x2="447.06" y2="252.49"/><line class="cls-3" x1="451.81" y1="398.54" x2="450.77" y2="405.44"/><line class="cls-3" x1="450.77" y1="405.44" x2="450.57" y2="405.74"/><line class="cls-3" x1="455.48" y1="398.49" x2="452.45" y2="405.64"/><line class="cls-3" x1="458.21" y1="400.87" x2="453.74" y2="406.38"/><line class="cls-3" x1="459.75" y1="404.35" x2="454.79" y2="408.27"/><line class="cls-3" x1="459.75" y1="409.41" x2="454.49" y2="410.26"/><line class="cls-3" x1="458.01" y1="413.88" x2="453.79" y2="412.99"/><line class="cls-3" x1="455.63" y1="418.3" x2="452.5" y2="415.62"/><line class="cls-3" x1="452.65" y1="422.27" x2="451.01" y2="417.85"/><line class="cls-3" x1="448.88" y1="424.9" x2="449.18" y2="419.24"/><line class="cls-3" x1="443.67" y1="428.27" x2="446.5" y2="420.03"/><line class="cls-3" x1="441.38" y1="426.93" x2="445.16" y2="419.84"/><line class="cls-3" x1="438.16" y1="424.6" x2="443.57" y2="419.54"/><line class="cls-3" x1="436.97" y1="420.18" x2="443.17" y2="416.86"/><line class="cls-3" x1="438.26" y1="415.42" x2="443.72" y2="414.87"/><line class="cls-3" x1="438.66" y1="411" x2="444.11" y2="412.29"/><line class="cls-3" x1="441.68" y1="407.23" x2="445.16" y2="409.56"/><line class="cls-3" x1="444.26" y1="403.36" x2="446.89" y2="407.38"/><line class="cls-3" x1="447.89" y1="399.98" x2="448.93" y2="406.14"/><line class="cls-3" x1="585.96" y1="339" x2="591.83" y2="333.13"/><line class="cls-3" x1="588.48" y1="341.61" x2="592.7" y2="333.91"/><line class="cls-3" x1="592.29" y1="342.6" x2="594.19" y2="334.54"/><line class="cls-3" x1="595.89" y1="341.11" x2="596.22" y2="333.25"/><line class="cls-3" x1="599.61" y1="337.51" x2="598.2" y2="332.09"/><line class="cls-3" x1="603.58" y1="332.8" x2="599.98" y2="329.86"/><line class="cls-3" x1="605.98" y1="327.71" x2="601.18" y2="327.38"/><line class="cls-3" x1="607.72" y1="322.46" x2="602.18" y2="324.9"/><line class="cls-3" x1="607.55" y1="317.16" x2="601.88" y2="322.75"/><line class="cls-3" x1="605.86" y1="313.69" x2="601.43" y2="320.97"/><line class="cls-3" x1="603.08" y1="312.36" x2="599.73" y2="320.72"/><line class="cls-3" x1="598.99" y1="312.86" x2="598.62" y2="320.39"/><line class="cls-3" x1="595.14" y1="314.72" x2="596.26" y2="321.22"/><line class="cls-3" x1="592.04" y1="317.62" x2="594.15" y2="322.25"/><line class="cls-3" x1="588.85" y1="321.34" x2="592.7" y2="324.32"/><line class="cls-3" x1="586.83" y1="326.1" x2="591.75" y2="326.63"/><line class="cls-3" x1="584.88" y1="330.61" x2="591.46" y2="328.99"/><line class="cls-3" x1="585.21" y1="334.58" x2="590.84" y2="331.81"/><line class="cls-3" x1="560.49" y1="305.44" x2="556.96" y2="304.24"/><line class="cls-3" x1="556.96" y1="304.24" x2="555.11" y2="305.44"/><line class="cls-3" x1="555.12" y1="306.89" x2="552.24" y2="306.55"/><line class="cls-3" x1="552.24" y1="306.55" x2="550.49" y2="308.94"/><polyline class="cls-6" points="366.03 452.12 357.43 462.2 356.1 459.97 354.91 469.46 350.61 477.17 344.09 484.87 340.93 487.46 333.42 490.55 327.65 489.93 316.74 483.55 314.99 488.69 303.26 492.81 257.45 519.78 240.57 528.43 210.31 548.5 208.56 547.98 207.32 553.96 205.26 558.79 200.01 566.93 192.3 573.92 186.43 575.98 179.84 575.26 168.41 568.26 157.19 569.4 153.59 568.57 126.23 554.39 104.31 542.14 82.38 528.25 68.38 518.67 64.57 513.42 64.16 502 66.63 498.4 67.45 484.71 68.16 480.55 94.6 458.42 106.89 447.66 109.04 443.66 116.73 437.82 159.45 411.08 190.95 394.77 191.54 388.25 194.8 386.32 204.96 389.98 210.51 389.98 223.24 392.94 252.02 379.6 274.38 370.34 289.32 366.38 328.51 386.06 366.32 411.57 370.62 414.02 371.66 421.88 375.22 425.88 373.59 435.96 366.03 452.12"/><line class="cls-3" x1="68.16" y1="480.55" x2="94.6" y2="458.42"/><line class="cls-3" x1="94.6" y1="458.42" x2="106.89" y2="447.66"/><line class="cls-3" x1="106.89" y1="447.66" x2="109.04" y2="443.66"/><line class="cls-3" x1="109.04" y1="443.66" x2="116.73" y2="437.82"/><line class="cls-3" x1="116.73" y1="437.82" x2="159.45" y2="411.08"/><line class="cls-3" x1="159.45" y1="411.08" x2="190.95" y2="394.77"/><line class="cls-3" x1="190.95" y1="394.77" x2="191.54" y2="388.25"/><line class="cls-3" x1="191.54" y1="388.25" x2="194.8" y2="386.32"/><line class="cls-3" x1="194.8" y1="386.32" x2="204.96" y2="389.98"/><line class="cls-3" x1="204.96" y1="389.98" x2="210.51" y2="389.98"/><line class="cls-3" x1="210.51" y1="389.98" x2="223.24" y2="392.94"/><line class="cls-3" x1="223.24" y1="392.94" x2="252.02" y2="379.6"/><line class="cls-3" x1="252.02" y1="379.6" x2="274.38" y2="370.34"/><line class="cls-3" x1="274.38" y1="370.34" x2="289.32" y2="366.38"/><line class="cls-3" x1="289.32" y1="366.38" x2="328.51" y2="386.06"/><line class="cls-3" x1="328.51" y1="386.06" x2="366.32" y2="411.57"/><line class="cls-3" x1="366.32" y1="411.57" x2="370.62" y2="414.02"/><line class="cls-3" x1="370.62" y1="414.02" x2="371.66" y2="421.88"/><line class="cls-3" x1="371.66" y1="421.88" x2="375.22" y2="425.88"/><line class="cls-3" x1="375.22" y1="425.88" x2="373.59" y2="435.96"/><line class="cls-3" x1="373.59" y1="435.96" x2="366.03" y2="452.12"/><line class="cls-3" x1="366.03" y1="452.12" x2="357.43" y2="462.2"/><line class="cls-3" x1="357.43" y1="462.2" x2="356.1" y2="459.97"/><line class="cls-3" x1="356.1" y1="459.97" x2="354.91" y2="469.46"/><line class="cls-3" x1="354.91" y1="469.46" x2="350.61" y2="477.17"/><line class="cls-3" x1="350.61" y1="477.17" x2="344.09" y2="484.87"/><line class="cls-3" x1="344.09" y1="484.87" x2="340.93" y2="487.46"/><line class="cls-3" x1="340.93" y1="487.46" x2="333.42" y2="490.55"/><line class="cls-3" x1="333.42" y1="490.55" x2="327.65" y2="489.93"/><line class="cls-3" x1="327.65" y1="489.93" x2="316.74" y2="483.55"/><line class="cls-3" x1="316.74" y1="483.55" x2="314.99" y2="488.69"/><line class="cls-3" x1="314.99" y1="488.69" x2="303.26" y2="492.81"/><line class="cls-3" x1="303.26" y1="492.81" x2="257.45" y2="519.78"/><line class="cls-3" x1="257.45" y1="519.78" x2="240.57" y2="528.43"/><line class="cls-3" x1="240.57" y1="528.43" x2="210.31" y2="548.5"/><line class="cls-3" x1="210.31" y1="548.5" x2="208.56" y2="547.98"/><line class="cls-3" x1="208.56" y1="547.98" x2="207.32" y2="553.96"/><line class="cls-3" x1="207.32" y1="553.96" x2="205.26" y2="558.79"/><line class="cls-3" x1="205.26" y1="558.79" x2="200.01" y2="566.93"/><line class="cls-3" x1="200.01" y1="566.93" x2="192.3" y2="573.92"/><line class="cls-3" x1="192.3" y1="573.92" x2="186.43" y2="575.98"/><line class="cls-3" x1="186.43" y1="575.98" x2="179.84" y2="575.26"/><line class="cls-3" x1="179.84" y1="575.26" x2="168.41" y2="568.26"/><line class="cls-3" x1="168.41" y1="568.26" x2="157.19" y2="569.4"/><line class="cls-3" x1="157.19" y1="569.4" x2="153.59" y2="568.57"/><line class="cls-3" x1="153.59" y1="568.57" x2="126.23" y2="554.39"/><line class="cls-3" x1="126.23" y1="554.39" x2="104.31" y2="542.14"/><line class="cls-3" x1="104.31" y1="542.14" x2="82.38" y2="528.25"/><line class="cls-3" x1="82.38" y1="528.25" x2="68.38" y2="518.67"/><line class="cls-3" x1="68.38" y1="518.67" x2="64.57" y2="513.42"/><line class="cls-3" x1="64.57" y1="513.42" x2="64.16" y2="502"/><line class="cls-3" x1="64.16" y1="502" x2="66.63" y2="498.4"/><line class="cls-3" x1="66.63" y1="498.4" x2="67.45" y2="484.71"/><line class="cls-3" x1="67.45" y1="484.71" x2="68.16" y2="480.55"/><line class="cls-3" x1="112.5" y1="447.91" x2="170.09" y2="481.64"/><line class="cls-3" x1="170.09" y1="481.64" x2="170.96" y2="485.72"/><line class="cls-3" x1="170.96" y1="485.72" x2="157.24" y2="511.91"/><line class="cls-3" x1="157.24" y1="511.91" x2="154.65" y2="514.38"/><line class="cls-3" x1="154.65" y1="514.38" x2="129.58" y2="500.54"/><line class="cls-3" x1="129.58" y1="500.54" x2="96.84" y2="481.4"/><line class="cls-3" x1="96.84" y1="481.4" x2="86.1" y2="474.48"/><line class="cls-3" x1="86.1" y1="474.48" x2="85.85" y2="472.38"/><line class="cls-3" x1="85.85" y1="472.38" x2="112.5" y2="447.91"/><line class="cls-3" x1="194.81" y1="468.45" x2="190.06" y2="509.81"/><line class="cls-3" x1="190.06" y1="509.81" x2="266.84" y2="467.86"/><line class="cls-3" x1="266.84" y1="467.86" x2="294.89" y2="452.7"/><line class="cls-3" x1="294.89" y1="452.7" x2="290.46" y2="439.98"/><line class="cls-3" x1="290.46" y1="439.98" x2="267.73" y2="429.47"/><line class="cls-3" x1="267.73" y1="429.47" x2="194.81" y2="468.45"/><line class="cls-3" x1="208.54" y1="391.23" x2="228.36" y2="400.41"/><line class="cls-3" x1="228.36" y1="400.41" x2="242.43" y2="408.47"/><line class="cls-3" x1="242.43" y1="408.47" x2="266.96" y2="425.97"/><line class="cls-3" x1="266.96" y1="425.97" x2="307.02" y2="442.18"/><line class="cls-3" x1="307.02" y1="442.18" x2="288.75" y2="425.54"/><line class="cls-3" x1="288.75" y1="425.54" x2="269.36" y2="411.39"/><line class="cls-3" x1="269.36" y1="411.39" x2="248.77" y2="401.95"/><line class="cls-3" x1="248.77" y1="401.95" x2="236.68" y2="396.97"/><line class="cls-3" x1="236.68" y1="396.97" x2="216.52" y2="392.17"/><line class="cls-3" x1="216.52" y1="392.17" x2="208.54" y2="391.23"/><line class="cls-3" x1="192.33" y1="388.52" x2="200.19" y2="390.92"/><line class="cls-3" x1="200.19" y1="390.92" x2="192.04" y2="394.35"/><line class="cls-3" x1="192.04" y1="394.35" x2="192.33" y2="388.52"/><line class="cls-3" x1="299" y1="447.72" x2="306.41" y2="454.5"/><line class="cls-3" x1="306.41" y1="454.5" x2="305.95" y2="460.13"/><line class="cls-3" x1="305.95" y1="460.13" x2="299.04" y2="453.96"/><line class="cls-3" x1="299.04" y1="453.96" x2="299" y2="447.72"/><line class="cls-3" x1="94.49" y1="500.24" x2="92.95" y2="508.56"/><line class="cls-3" x1="92.95" y1="508.56" x2="126.49" y2="527.35"/><line class="cls-3" x1="126.49" y1="527.35" x2="126.83" y2="518.6"/><line class="cls-3" x1="126.83" y1="518.6" x2="94.49" y2="500.24"/><line class="cls-3" x1="67.83" y1="482.49" x2="73.39" y2="486.43"/><line class="cls-3" x1="73.39" y1="486.43" x2="75.62" y2="500.15"/><line class="cls-3" x1="75.62" y1="500.15" x2="75.62" y2="506.5"/><line class="cls-3" x1="75.62" y1="506.5" x2="67.39" y2="500.67"/><line class="cls-3" x1="67.39" y1="500.67" x2="66.63" y2="498.4"/><line class="cls-3" x1="146.55" y1="529" x2="154.07" y2="532.5"/><line class="cls-3" x1="154.07" y1="532.5" x2="156.95" y2="531.47"/><line class="cls-3" x1="156.95" y1="531.47" x2="158.29" y2="550.2"/><line class="cls-3" x1="158.29" y1="550.2" x2="154.38" y2="551.34"/><line class="cls-3" x1="154.38" y1="551.34" x2="142.85" y2="545.78"/><line class="cls-3" x1="142.85" y1="545.78" x2="142.85" y2="539.5"/><line class="cls-3" x1="142.85" y1="539.5" x2="146.55" y2="529"/><line class="cls-3" x1="208.56" y1="547.98" x2="208.76" y2="543.25"/><line class="cls-3" x1="208.76" y1="543.25" x2="208.1" y2="539.79"/><line class="cls-3" x1="208.1" y1="539.79" x2="205.01" y2="535.03"/><line class="cls-3" x1="205.01" y1="535.03" x2="199.11" y2="531.21"/><line class="cls-3" x1="199.11" y1="531.21" x2="190.38" y2="534.9"/><line class="cls-3" x1="190.38" y1="534.9" x2="183.48" y2="541.38"/><line class="cls-3" x1="183.48" y1="541.38" x2="178.23" y2="548.38"/><line class="cls-3" x1="178.23" y1="548.38" x2="174.42" y2="556.31"/><line class="cls-3" x1="174.42" y1="556.31" x2="168.41" y2="568.26"/><line class="cls-3" x1="192.95" y1="539.74" x2="186.67" y2="544.47"/><line class="cls-3" x1="186.67" y1="544.47" x2="180.8" y2="554.04"/><line class="cls-3" x1="180.8" y1="554.04" x2="179.77" y2="563"/><line class="cls-3" x1="179.77" y1="563" x2="181.01" y2="569.38"/><line class="cls-3" x1="181.01" y1="569.38" x2="185.02" y2="572.26"/><line class="cls-3" x1="185.02" y1="572.26" x2="191.4" y2="571.54"/><line class="cls-3" x1="191.4" y1="571.54" x2="196.96" y2="567.32"/><line class="cls-3" x1="196.96" y1="567.32" x2="200.67" y2="563"/><line class="cls-3" x1="200.67" y1="563" x2="203.76" y2="557.75"/><line class="cls-3" x1="203.76" y1="557.75" x2="206.23" y2="552.09"/><line class="cls-3" x1="206.23" y1="552.09" x2="206.54" y2="546.22"/><line class="cls-3" x1="206.54" y1="546.22" x2="205.2" y2="541.79"/><line class="cls-3" x1="205.2" y1="541.79" x2="202.21" y2="538.5"/><line class="cls-3" x1="202.21" y1="538.5" x2="197.58" y2="537.88"/><line class="cls-3" x1="197.58" y1="537.88" x2="192.95" y2="539.74"/><line class="cls-3" x1="352.48" y1="456.43" x2="349.22" y2="453.17"/><line class="cls-3" x1="349.22" y1="453.17" x2="344.42" y2="452.74"/><line class="cls-3" x1="344.42" y1="452.74" x2="339.18" y2="455.23"/><line class="cls-3" x1="339.18" y1="455.23" x2="334.12" y2="459.52"/><line class="cls-3" x1="334.12" y1="459.52" x2="329.83" y2="465.7"/><line class="cls-3" x1="329.83" y1="465.7" x2="327.35" y2="472.82"/><line class="cls-3" x1="327.35" y1="472.82" x2="327.6" y2="479.94"/><line class="cls-3" x1="327.6" y1="479.94" x2="330.09" y2="485.51"/><line class="cls-3" x1="330.09" y1="485.51" x2="334.38" y2="486.8"/><line class="cls-3" x1="334.38" y1="486.8" x2="340.3" y2="485.51"/><line class="cls-3" x1="340.3" y1="485.51" x2="345.87" y2="480.79"/><line class="cls-3" x1="345.87" y1="480.79" x2="350.17" y2="474.53"/><line class="cls-3" x1="350.17" y1="474.53" x2="352.99" y2="467.33"/><line class="cls-3" x1="352.99" y1="467.33" x2="353.77" y2="461.32"/><line class="cls-3" x1="353.77" y1="461.32" x2="352.48" y2="456.43"/><line class="cls-3" x1="356.1" y1="459.97" x2="356.08" y2="456.95"/><line class="cls-3" x1="356.08" y1="456.95" x2="355.05" y2="453"/><line class="cls-3" x1="355.05" y1="453" x2="351.71" y2="448.63"/><line class="cls-3" x1="351.71" y1="448.63" x2="348.62" y2="446.4"/><line class="cls-3" x1="348.62" y1="446.4" x2="344.85" y2="444.85"/><line class="cls-3" x1="344.85" y1="444.85" x2="338.93" y2="448.71"/><line class="cls-3" x1="338.93" y1="448.71" x2="334.12" y2="453.09"/><line class="cls-3" x1="334.12" y1="453.09" x2="327.43" y2="460.72"/><line class="cls-3" x1="327.43" y1="460.72" x2="321.26" y2="471.1"/><line class="cls-3" x1="321.26" y1="471.1" x2="318" y2="478.91"/><line class="cls-3" x1="318" y1="478.91" x2="316.74" y2="483.55"/><line class="cls-3" x1="64.16" y1="502" x2="68.75" y2="507.08"/><line class="cls-3" x1="68.75" y1="507.08" x2="88.91" y2="520.72"/><line class="cls-3" x1="88.91" y1="520.72" x2="121.81" y2="538.51"/><line class="cls-3" x1="121.81" y1="538.51" x2="142.57" y2="550.22"/><line class="cls-3" x1="142.57" y1="550.22" x2="152.94" y2="554.66"/><line class="cls-3" x1="152.94" y1="554.66" x2="180.43" y2="545.45"/><line class="cls-3" x1="151.33" y1="531.22" x2="151.46" y2="528.13"/><line class="cls-3" x1="151.46" y1="528.13" x2="181.85" y2="474.77"/><line class="cls-3" x1="181.85" y1="474.77" x2="175.18" y2="467.66"/><line class="cls-3" x1="175.18" y1="467.66" x2="118.77" y2="436.55"/><line class="cls-3" x1="181.85" y1="474.77" x2="185.7" y2="470.92"/><line class="cls-3" x1="185.7" y1="470.92" x2="267.76" y2="426.29"/><line class="cls-3" x1="234.07" y1="447.46" x2="246.96" y2="478.72"/><line class="cls-3" x1="246.96" y1="478.72" x2="250.17" y2="481.44"/><line class="cls-3" x1="250.17" y1="481.44" x2="251.95" y2="491.22"/><line class="cls-3" x1="251.95" y1="491.22" x2="252.55" y2="502.34"/><line class="cls-3" x1="252.55" y1="502.34" x2="247.36" y2="520.57"/><line class="cls-3" x1="247.36" y1="520.57" x2="247.28" y2="524.99"/><line class="cls-3" x1="190.06" y1="509.81" x2="189.55" y2="517.02"/><line class="cls-3" x1="189.55" y1="517.02" x2="192.07" y2="525.61"/><line class="cls-3" x1="192.07" y1="525.61" x2="199.11" y2="531.21"/><line class="cls-3" x1="199.11" y1="531.21" x2="201.34" y2="530.27"/><line class="cls-3" x1="201.34" y1="530.27" x2="209.24" y2="530.87"/><line class="cls-3" x1="209.24" y1="530.87" x2="212.06" y2="536.27"/><line class="cls-3" x1="212.06" y1="536.27" x2="211.46" y2="544.17"/><line class="cls-3" x1="211.46" y1="544.17" x2="210.31" y2="548.5"/><line class="cls-3" x1="144.64" y1="534.43" x2="153.38" y2="537.9"/><line class="cls-3" x1="153.38" y1="537.9" x2="157.32" y2="536.65"/><line class="cls-3" x1="67.28" y1="487.67" x2="74.31" y2="492.08"/><line class="cls-3" x1="195.81" y1="512.29" x2="204.97" y2="507.66"/><line class="cls-3" x1="204.97" y1="507.66" x2="205.69" y2="512.39"/><line class="cls-3" x1="205.69" y1="512.39" x2="197.24" y2="516.72"/><line class="cls-3" x1="197.24" y1="516.72" x2="195.81" y2="512.29"/><line class="cls-3" x1="252.11" y1="482.65" x2="252.83" y2="487.49"/><line class="cls-3" x1="252.83" y1="487.49" x2="262.09" y2="482.24"/><line class="cls-3" x1="262.09" y1="482.24" x2="261.06" y2="476.99"/><line class="cls-3" x1="261.06" y1="476.99" x2="252.11" y2="482.65"/><line class="cls-3" x1="290.46" y1="439.98" x2="305.75" y2="446.76"/><line class="cls-3" x1="305.75" y1="446.76" x2="304.38" y2="447.72"/><line class="cls-3" x1="304.38" y1="447.72" x2="308.43" y2="453.61"/><line class="cls-3" x1="308.43" y1="453.61" x2="308.13" y2="460.46"/><line class="cls-3" x1="308.13" y1="460.46" x2="306.11" y2="460.82"/><line class="cls-3" x1="306.11" y1="460.82" x2="298.19" y2="454.33"/><line class="cls-3" x1="298.19" y1="454.33" x2="294.89" y2="452.7"/><line class="cls-3" x1="307.02" y1="442.18" x2="309.58" y2="449.46"/><line class="cls-3" x1="309.58" y1="449.46" x2="313.16" y2="461.81"/><line class="cls-3" x1="313.16" y1="461.81" x2="308.22" y2="485.99"/><line class="cls-3" x1="308.22" y1="485.99" x2="307.44" y2="491.34"/><line class="cls-3" x1="316.74" y1="483.55" x2="308.22" y2="485.99"/><line class="cls-3" x1="308.22" y1="485.99" x2="247.36" y2="520.57"/><line class="cls-3" x1="247.36" y1="520.57" x2="211.46" y2="544.17"/><line class="cls-3" x1="307.02" y1="442.18" x2="312.77" y2="439.29"/><line class="cls-3" x1="312.77" y1="439.29" x2="347.42" y2="422.39"/><line class="cls-3" x1="347.42" y1="422.39" x2="364.24" y2="414.84"/><line class="cls-3" x1="364.24" y1="414.84" x2="368.04" y2="412.55"/><line class="cls-3" x1="371.66" y1="421.88" x2="371.96" y2="428.22"/><line class="cls-3" x1="371.96" y1="428.22" x2="356.69" y2="444.95"/><line class="cls-3" x1="344.85" y1="444.85" x2="352.31" y2="442.98"/><line class="cls-3" x1="352.31" y1="442.98" x2="357.06" y2="444.54"/><line class="cls-3" x1="357.06" y1="444.54" x2="359.43" y2="451.38"/><line class="cls-3" x1="359.43" y1="451.38" x2="357.43" y2="462.2"/><line class="cls-3" x1="205.25" y1="389.98" x2="200.19" y2="390.92"/><line class="cls-3" x1="192.04" y1="394.35" x2="190.95" y2="394.77"/><line class="cls-3" x1="195.69" y1="540.82" x2="194.65" y2="547.72"/><line class="cls-3" x1="194.65" y1="547.72" x2="194.46" y2="548.01"/><line class="cls-3" x1="199.37" y1="540.77" x2="196.34" y2="547.91"/><line class="cls-3" x1="202.1" y1="543.15" x2="197.63" y2="548.66"/><line class="cls-3" x1="203.64" y1="546.62" x2="198.68" y2="550.54"/><line class="cls-3" x1="203.64" y1="551.69" x2="198.38" y2="552.53"/><line class="cls-3" x1="201.9" y1="556.15" x2="197.68" y2="555.26"/><line class="cls-3" x1="199.52" y1="560.57" x2="196.39" y2="557.89"/><line class="cls-3" x1="196.54" y1="564.54" x2="194.9" y2="560.12"/><line class="cls-3" x1="192.77" y1="567.17" x2="193.06" y2="561.51"/><line class="cls-3" x1="187.56" y1="570.55" x2="190.39" y2="562.31"/><line class="cls-3" x1="185.27" y1="569.21" x2="189.05" y2="562.11"/><line class="cls-3" x1="182.05" y1="566.88" x2="187.46" y2="561.81"/><line class="cls-3" x1="180.86" y1="562.46" x2="187.06" y2="559.13"/><line class="cls-3" x1="182.14" y1="557.69" x2="187.61" y2="557.15"/><line class="cls-3" x1="182.54" y1="553.27" x2="188" y2="554.57"/><line class="cls-3" x1="185.57" y1="549.5" x2="189.05" y2="551.84"/><line class="cls-3" x1="188.15" y1="545.63" x2="190.78" y2="549.65"/><line class="cls-3" x1="191.77" y1="542.25" x2="192.82" y2="548.41"/><line class="cls-3" x1="329.85" y1="481.28" x2="335.72" y2="475.4"/><line class="cls-3" x1="332.37" y1="483.88" x2="336.59" y2="476.19"/><line class="cls-3" x1="336.18" y1="484.88" x2="338.08" y2="476.81"/><line class="cls-3" x1="339.77" y1="483.39" x2="340.11" y2="475.53"/><line class="cls-3" x1="343.5" y1="479.79" x2="342.09" y2="474.37"/><line class="cls-3" x1="347.47" y1="475.07" x2="343.87" y2="472.14"/><line class="cls-3" x1="349.87" y1="469.98" x2="345.07" y2="469.65"/><line class="cls-3" x1="351.6" y1="464.73" x2="346.06" y2="467.17"/><line class="cls-3" x1="351.44" y1="459.44" x2="345.77" y2="465.02"/><line class="cls-3" x1="349.74" y1="455.96" x2="345.32" y2="463.24"/><line class="cls-3" x1="346.97" y1="454.64" x2="343.62" y2="462.99"/><line class="cls-3" x1="342.88" y1="455.13" x2="342.51" y2="462.66"/><line class="cls-3" x1="339.03" y1="457" x2="340.15" y2="463.49"/><line class="cls-3" x1="335.93" y1="459.89" x2="338.04" y2="464.52"/><line class="cls-3" x1="332.74" y1="463.61" x2="336.59" y2="466.59"/><line class="cls-3" x1="330.72" y1="468.37" x2="335.64" y2="468.91"/><line class="cls-3" x1="328.77" y1="472.88" x2="335.35" y2="471.27"/><line class="cls-3" x1="329.1" y1="476.85" x2="334.73" y2="474.08"/><line class="cls-3" x1="304.38" y1="447.72" x2="300.84" y2="446.51"/><line class="cls-3" x1="300.84" y1="446.51" x2="299" y2="447.72"/><line class="cls-3" x1="299.01" y1="449.17" x2="296.13" y2="448.83"/><line class="cls-3" x1="296.13" y1="448.83" x2="294.38" y2="451.21"/><polyline class="cls-6" points="877.14 156.91 868.54 166.99 867.21 164.76 866.02 174.25 861.72 181.96 855.2 189.67 852.04 192.25 844.53 195.34 838.76 194.72 827.85 188.34 826.1 193.49 814.37 197.6 768.56 224.57 751.68 233.22 721.42 253.29 719.67 252.78 718.44 258.75 716.37 263.58 711.12 271.72 703.41 278.72 697.54 280.77 690.95 280.05 679.52 273.05 668.31 274.19 664.7 273.36 637.34 259.18 615.42 246.93 593.49 233.04 579.49 223.47 575.68 218.22 575.27 206.79 577.74 203.19 578.57 189.5 579.28 185.34 605.71 163.21 618 152.45 620.16 148.45 627.84 142.61 670.56 115.87 702.06 99.56 702.65 93.04 705.92 91.11 716.07 94.77 721.63 94.77 734.35 97.73 763.13 84.39 785.49 75.13 800.43 71.18 839.62 90.85 877.43 116.36 881.73 118.81 882.77 126.67 886.33 130.67 884.7 140.75 877.14 156.91"/><line class="cls-3" x1="579.28" y1="185.34" x2="605.71" y2="163.21"/><line class="cls-3" x1="605.71" y1="163.21" x2="618" y2="152.45"/><line class="cls-3" x1="618" y1="152.45" x2="620.16" y2="148.45"/><line class="cls-3" x1="620.16" y1="148.45" x2="627.84" y2="142.61"/><line class="cls-3" x1="627.84" y1="142.61" x2="670.56" y2="115.87"/><line class="cls-3" x1="670.56" y1="115.87" x2="702.06" y2="99.56"/><line class="cls-3" x1="702.06" y1="99.56" x2="702.65" y2="93.04"/><line class="cls-3" x1="702.65" y1="93.04" x2="705.92" y2="91.11"/><line class="cls-3" x1="705.92" y1="91.11" x2="716.07" y2="94.77"/><line class="cls-3" x1="716.07" y1="94.77" x2="721.63" y2="94.77"/><line class="cls-3" x1="721.63" y1="94.77" x2="734.35" y2="97.73"/><line class="cls-3" x1="734.35" y1="97.73" x2="763.13" y2="84.39"/><line class="cls-3" x1="763.13" y1="84.39" x2="785.49" y2="75.13"/><line class="cls-3" x1="785.49" y1="75.13" x2="800.43" y2="71.18"/><line class="cls-3" x1="800.43" y1="71.18" x2="839.62" y2="90.85"/><line class="cls-3" x1="839.62" y1="90.85" x2="877.43" y2="116.36"/><line class="cls-3" x1="877.43" y1="116.36" x2="881.73" y2="118.81"/><line class="cls-3" x1="881.73" y1="118.81" x2="882.77" y2="126.67"/><line class="cls-3" x1="882.77" y1="126.67" x2="886.33" y2="130.67"/><line class="cls-3" x1="886.33" y1="130.67" x2="884.7" y2="140.75"/><line class="cls-3" x1="884.7" y1="140.75" x2="877.14" y2="156.91"/><line class="cls-3" x1="877.14" y1="156.91" x2="868.54" y2="166.99"/><line class="cls-3" x1="868.54" y1="166.99" x2="867.21" y2="164.76"/><line class="cls-3" x1="867.21" y1="164.76" x2="866.02" y2="174.25"/><line class="cls-3" x1="866.02" y1="174.25" x2="861.72" y2="181.96"/><line class="cls-3" x1="861.72" y1="181.96" x2="855.2" y2="189.67"/><line class="cls-3" x1="855.2" y1="189.67" x2="852.04" y2="192.25"/><line class="cls-3" x1="852.04" y1="192.25" x2="844.53" y2="195.34"/><line class="cls-3" x1="844.53" y1="195.34" x2="838.76" y2="194.72"/><line class="cls-3" x1="838.76" y1="194.72" x2="827.85" y2="188.34"/><line class="cls-3" x1="827.85" y1="188.34" x2="826.1" y2="193.49"/><line class="cls-3" x1="826.1" y1="193.49" x2="814.37" y2="197.6"/><line class="cls-3" x1="814.37" y1="197.6" x2="768.56" y2="224.57"/><line class="cls-3" x1="768.56" y1="224.57" x2="751.68" y2="233.22"/><line class="cls-3" x1="751.68" y1="233.22" x2="721.42" y2="253.29"/><line class="cls-3" x1="721.42" y1="253.29" x2="719.67" y2="252.78"/><line class="cls-3" x1="719.67" y1="252.78" x2="718.44" y2="258.75"/><line class="cls-3" x1="718.44" y1="258.75" x2="716.37" y2="263.58"/><line class="cls-3" x1="716.37" y1="263.58" x2="711.12" y2="271.72"/><line class="cls-3" x1="711.12" y1="271.72" x2="703.41" y2="278.72"/><line class="cls-3" x1="703.41" y1="278.72" x2="697.54" y2="280.77"/><line class="cls-3" x1="697.54" y1="280.77" x2="690.95" y2="280.05"/><line class="cls-3" x1="690.95" y1="280.05" x2="679.52" y2="273.05"/><line class="cls-3" x1="679.52" y1="273.05" x2="668.31" y2="274.19"/><line class="cls-3" x1="668.31" y1="274.19" x2="664.7" y2="273.36"/><line class="cls-3" x1="664.7" y1="273.36" x2="637.34" y2="259.18"/><line class="cls-3" x1="637.34" y1="259.18" x2="615.42" y2="246.93"/><line class="cls-3" x1="615.42" y1="246.93" x2="593.49" y2="233.04"/><line class="cls-3" x1="593.49" y1="233.04" x2="579.49" y2="223.47"/><line class="cls-3" x1="579.49" y1="223.47" x2="575.68" y2="218.22"/><line class="cls-3" x1="575.68" y1="218.22" x2="575.27" y2="206.79"/><line class="cls-3" x1="575.27" y1="206.79" x2="577.74" y2="203.19"/><line class="cls-3" x1="577.74" y1="203.19" x2="578.57" y2="189.5"/><line class="cls-3" x1="578.57" y1="189.5" x2="579.28" y2="185.34"/><line class="cls-3" x1="623.61" y1="152.7" x2="681.2" y2="186.44"/><line class="cls-3" x1="681.2" y1="186.44" x2="682.07" y2="190.51"/><line class="cls-3" x1="682.07" y1="190.51" x2="668.36" y2="216.7"/><line class="cls-3" x1="668.36" y1="216.7" x2="665.76" y2="219.17"/><line class="cls-3" x1="665.76" y1="219.17" x2="640.69" y2="205.34"/><line class="cls-3" x1="640.69" y1="205.34" x2="607.95" y2="186.19"/><line class="cls-3" x1="607.95" y1="186.19" x2="597.21" y2="179.27"/><line class="cls-3" x1="597.21" y1="179.27" x2="596.96" y2="177.17"/><line class="cls-3" x1="596.96" y1="177.17" x2="623.61" y2="152.7"/><line class="cls-3" x1="705.92" y1="173.24" x2="701.18" y2="214.6"/><line class="cls-3" x1="701.18" y1="214.6" x2="777.95" y2="172.65"/><line class="cls-3" x1="777.95" y1="172.65" x2="806" y2="157.5"/><line class="cls-3" x1="806" y1="157.5" x2="801.58" y2="144.77"/><line class="cls-3" x1="801.58" y1="144.77" x2="778.84" y2="134.26"/><line class="cls-3" x1="778.84" y1="134.26" x2="705.92" y2="173.24"/><line class="cls-3" x1="719.65" y1="96.02" x2="739.47" y2="105.2"/><line class="cls-3" x1="739.47" y1="105.2" x2="753.54" y2="113.26"/><line class="cls-3" x1="753.54" y1="113.26" x2="778.07" y2="130.76"/><line class="cls-3" x1="778.07" y1="130.76" x2="818.13" y2="146.97"/><line class="cls-3" x1="818.13" y1="146.97" x2="799.86" y2="130.33"/><line class="cls-3" x1="799.86" y1="130.33" x2="780.47" y2="116.18"/><line class="cls-3" x1="780.47" y1="116.18" x2="759.89" y2="106.74"/><line class="cls-3" x1="759.89" y1="106.74" x2="747.79" y2="101.77"/><line class="cls-3" x1="747.79" y1="101.77" x2="727.63" y2="96.96"/><line class="cls-3" x1="727.63" y1="96.96" x2="719.65" y2="96.02"/><line class="cls-3" x1="703.45" y1="93.31" x2="711.31" y2="95.71"/><line class="cls-3" x1="711.31" y1="95.71" x2="703.15" y2="99.15"/><line class="cls-3" x1="703.15" y1="99.15" x2="703.45" y2="93.31"/><line class="cls-3" x1="810.11" y1="152.51" x2="817.52" y2="159.29"/><line class="cls-3" x1="817.52" y1="159.29" x2="817.06" y2="164.92"/><line class="cls-3" x1="817.06" y1="164.92" x2="810.15" y2="158.75"/><line class="cls-3" x1="810.15" y1="158.75" x2="810.11" y2="152.51"/><line class="cls-3" x1="605.6" y1="205.03" x2="604.06" y2="213.35"/><line class="cls-3" x1="604.06" y1="213.35" x2="637.6" y2="232.14"/><line class="cls-3" x1="637.6" y1="232.14" x2="637.94" y2="223.39"/><line class="cls-3" x1="637.94" y1="223.39" x2="605.6" y2="205.03"/><line class="cls-3" x1="578.95" y1="187.28" x2="584.5" y2="191.22"/><line class="cls-3" x1="584.5" y1="191.22" x2="586.73" y2="204.94"/><line class="cls-3" x1="586.73" y1="204.94" x2="586.73" y2="211.29"/><line class="cls-3" x1="586.73" y1="211.29" x2="578.5" y2="205.46"/><line class="cls-3" x1="578.5" y1="205.46" x2="577.74" y2="203.19"/><line class="cls-3" x1="657.67" y1="233.79" x2="665.18" y2="237.29"/><line class="cls-3" x1="665.18" y1="237.29" x2="668.06" y2="236.26"/><line class="cls-3" x1="668.06" y1="236.26" x2="669.4" y2="255"/><line class="cls-3" x1="669.4" y1="255" x2="665.49" y2="256.13"/><line class="cls-3" x1="665.49" y1="256.13" x2="653.96" y2="250.57"/><line class="cls-3" x1="653.96" y1="250.57" x2="653.96" y2="244.29"/><line class="cls-3" x1="653.96" y1="244.29" x2="657.67" y2="233.79"/><line class="cls-3" x1="719.67" y1="252.78" x2="719.87" y2="248.04"/><line class="cls-3" x1="719.87" y1="248.04" x2="719.22" y2="244.58"/><line class="cls-3" x1="719.22" y1="244.58" x2="716.12" y2="239.82"/><line class="cls-3" x1="716.12" y1="239.82" x2="710.22" y2="236.01"/><line class="cls-3" x1="710.22" y1="236.01" x2="701.49" y2="239.69"/><line class="cls-3" x1="701.49" y1="239.69" x2="694.59" y2="246.17"/><line class="cls-3" x1="694.59" y1="246.17" x2="689.34" y2="253.17"/><line class="cls-3" x1="689.34" y1="253.17" x2="685.53" y2="261.1"/><line class="cls-3" x1="685.53" y1="261.1" x2="679.52" y2="273.05"/><line class="cls-3" x1="704.06" y1="244.53" x2="697.78" y2="249.26"/><line class="cls-3" x1="697.78" y1="249.26" x2="691.91" y2="258.84"/><line class="cls-3" x1="691.91" y1="258.84" x2="690.88" y2="267.79"/><line class="cls-3" x1="690.88" y1="267.79" x2="692.12" y2="274.17"/><line class="cls-3" x1="692.12" y1="274.17" x2="696.14" y2="277.06"/><line class="cls-3" x1="696.14" y1="277.06" x2="702.52" y2="276.33"/><line class="cls-3" x1="702.52" y1="276.33" x2="708.07" y2="272.11"/><line class="cls-3" x1="708.07" y1="272.11" x2="711.78" y2="267.79"/><line class="cls-3" x1="711.78" y1="267.79" x2="714.87" y2="262.54"/><line class="cls-3" x1="714.87" y1="262.54" x2="717.34" y2="256.88"/><line class="cls-3" x1="717.34" y1="256.88" x2="717.65" y2="251.01"/><line class="cls-3" x1="717.65" y1="251.01" x2="716.31" y2="246.59"/><line class="cls-3" x1="716.31" y1="246.59" x2="713.33" y2="243.29"/><line class="cls-3" x1="713.33" y1="243.29" x2="708.69" y2="242.67"/><line class="cls-3" x1="708.69" y1="242.67" x2="704.06" y2="244.53"/><line class="cls-3" x1="863.59" y1="161.22" x2="860.33" y2="157.96"/><line class="cls-3" x1="860.33" y1="157.96" x2="855.53" y2="157.54"/><line class="cls-3" x1="855.53" y1="157.54" x2="850.29" y2="160.02"/><line class="cls-3" x1="850.29" y1="160.02" x2="845.23" y2="164.31"/><line class="cls-3" x1="845.23" y1="164.31" x2="840.94" y2="170.49"/><line class="cls-3" x1="840.94" y1="170.49" x2="838.46" y2="177.61"/><line class="cls-3" x1="838.46" y1="177.61" x2="838.72" y2="184.73"/><line class="cls-3" x1="838.72" y1="184.73" x2="841.2" y2="190.3"/><line class="cls-3" x1="841.2" y1="190.3" x2="845.49" y2="191.59"/><line class="cls-3" x1="845.49" y1="191.59" x2="851.41" y2="190.3"/><line class="cls-3" x1="851.41" y1="190.3" x2="856.99" y2="185.58"/><line class="cls-3" x1="856.99" y1="185.58" x2="861.28" y2="179.32"/><line class="cls-3" x1="861.28" y1="179.32" x2="864.1" y2="172.12"/><line class="cls-3" x1="864.1" y1="172.12" x2="864.88" y2="166.11"/><line class="cls-3" x1="864.88" y1="166.11" x2="863.59" y2="161.22"/><line class="cls-3" x1="867.21" y1="164.76" x2="867.19" y2="161.74"/><line class="cls-3" x1="867.19" y1="161.74" x2="866.16" y2="157.79"/><line class="cls-3" x1="866.16" y1="157.79" x2="862.82" y2="153.42"/><line class="cls-3" x1="862.82" y1="153.42" x2="859.73" y2="151.19"/><line class="cls-3" x1="859.73" y1="151.19" x2="855.96" y2="149.64"/><line class="cls-3" x1="855.96" y1="149.64" x2="850.04" y2="153.5"/><line class="cls-3" x1="850.04" y1="153.5" x2="845.23" y2="157.88"/><line class="cls-3" x1="845.23" y1="157.88" x2="838.54" y2="165.51"/><line class="cls-3" x1="838.54" y1="165.51" x2="832.37" y2="175.89"/><line class="cls-3" x1="832.37" y1="175.89" x2="829.11" y2="183.7"/><line class="cls-3" x1="829.11" y1="183.7" x2="827.85" y2="188.34"/><line class="cls-3" x1="575.27" y1="206.79" x2="579.86" y2="211.88"/><line class="cls-3" x1="579.86" y1="211.88" x2="600.02" y2="225.51"/><line class="cls-3" x1="600.02" y1="225.51" x2="632.93" y2="243.3"/><line class="cls-3" x1="632.93" y1="243.3" x2="653.68" y2="255.01"/><line class="cls-3" x1="653.68" y1="255.01" x2="664.05" y2="259.46"/><line class="cls-3" x1="664.05" y1="259.46" x2="691.54" y2="250.24"/><line class="cls-3" x1="662.44" y1="236.02" x2="662.57" y2="232.92"/><line class="cls-3" x1="662.57" y1="232.92" x2="692.96" y2="179.56"/><line class="cls-3" x1="692.96" y1="179.56" x2="686.29" y2="172.45"/><line class="cls-3" x1="686.29" y1="172.45" x2="629.88" y2="141.34"/><line class="cls-3" x1="692.96" y1="179.56" x2="696.81" y2="175.71"/><line class="cls-3" x1="696.81" y1="175.71" x2="778.87" y2="131.08"/><line class="cls-3" x1="745.18" y1="152.26" x2="758.07" y2="183.52"/><line class="cls-3" x1="758.07" y1="183.52" x2="761.29" y2="186.23"/><line class="cls-3" x1="761.29" y1="186.23" x2="763.06" y2="196.02"/><line class="cls-3" x1="763.06" y1="196.02" x2="763.66" y2="207.13"/><line class="cls-3" x1="763.66" y1="207.13" x2="758.47" y2="225.36"/><line class="cls-3" x1="758.47" y1="225.36" x2="758.39" y2="229.78"/><line class="cls-3" x1="701.18" y1="214.6" x2="700.66" y2="221.81"/><line class="cls-3" x1="700.66" y1="221.81" x2="703.18" y2="230.4"/><line class="cls-3" x1="703.18" y1="230.4" x2="710.22" y2="236.01"/><line class="cls-3" x1="710.22" y1="236.01" x2="712.45" y2="235.06"/><line class="cls-3" x1="712.45" y1="235.06" x2="720.35" y2="235.66"/><line class="cls-3" x1="720.35" y1="235.66" x2="723.18" y2="241.07"/><line class="cls-3" x1="723.18" y1="241.07" x2="722.58" y2="248.96"/><line class="cls-3" x1="722.58" y1="248.96" x2="721.42" y2="253.29"/><line class="cls-3" x1="655.75" y1="239.22" x2="664.49" y2="242.69"/><line class="cls-3" x1="664.49" y1="242.69" x2="668.43" y2="241.45"/><line class="cls-3" x1="578.39" y1="192.46" x2="585.42" y2="196.87"/><line class="cls-3" x1="706.92" y1="217.08" x2="716.08" y2="212.45"/><line class="cls-3" x1="716.08" y1="212.45" x2="716.8" y2="217.19"/><line class="cls-3" x1="716.8" y1="217.19" x2="708.36" y2="221.51"/><line class="cls-3" x1="708.36" y1="221.51" x2="706.92" y2="217.08"/><line class="cls-3" x1="763.22" y1="187.44" x2="763.94" y2="192.28"/><line class="cls-3" x1="763.94" y1="192.28" x2="773.2" y2="187.03"/><line class="cls-3" x1="773.2" y1="187.03" x2="772.17" y2="181.78"/><line class="cls-3" x1="772.17" y1="181.78" x2="763.22" y2="187.44"/><line class="cls-3" x1="801.58" y1="144.77" x2="816.86" y2="151.56"/><line class="cls-3" x1="816.86" y1="151.56" x2="815.49" y2="152.51"/><line class="cls-3" x1="815.49" y1="152.51" x2="819.54" y2="158.41"/><line class="cls-3" x1="819.54" y1="158.41" x2="819.24" y2="165.26"/><line class="cls-3" x1="819.24" y1="165.26" x2="817.22" y2="165.61"/><line class="cls-3" x1="817.22" y1="165.61" x2="809.3" y2="159.12"/><line class="cls-3" x1="809.3" y1="159.12" x2="806" y2="157.5"/><line class="cls-3" x1="818.13" y1="146.97" x2="820.69" y2="154.25"/><line class="cls-3" x1="820.69" y1="154.25" x2="824.27" y2="166.6"/><line class="cls-3" x1="824.27" y1="166.6" x2="819.33" y2="190.79"/><line class="cls-3" x1="819.33" y1="190.79" x2="818.55" y2="196.14"/><line class="cls-3" x1="827.85" y1="188.34" x2="819.33" y2="190.79"/><line class="cls-3" x1="819.33" y1="190.79" x2="758.47" y2="225.36"/><line class="cls-3" x1="758.47" y1="225.36" x2="722.58" y2="248.96"/><line class="cls-3" x1="818.13" y1="146.97" x2="823.88" y2="144.08"/><line class="cls-3" x1="823.88" y1="144.08" x2="858.54" y2="127.18"/><line class="cls-3" x1="858.54" y1="127.18" x2="875.35" y2="119.63"/><line class="cls-3" x1="875.35" y1="119.63" x2="879.16" y2="117.34"/><line class="cls-3" x1="882.77" y1="126.67" x2="883.07" y2="133.01"/><line class="cls-3" x1="883.07" y1="133.01" x2="867.8" y2="149.74"/><line class="cls-3" x1="855.96" y1="149.64" x2="863.42" y2="147.77"/><line class="cls-3" x1="863.42" y1="147.77" x2="868.17" y2="149.33"/><line class="cls-3" x1="868.17" y1="149.33" x2="870.54" y2="156.17"/><line class="cls-3" x1="870.54" y1="156.17" x2="868.54" y2="166.99"/><line class="cls-3" x1="716.36" y1="94.77" x2="711.31" y2="95.71"/><line class="cls-3" x1="703.15" y1="99.15" x2="702.06" y2="99.56"/><line class="cls-3" x1="706.81" y1="245.61" x2="705.77" y2="252.51"/><line class="cls-3" x1="705.77" y1="252.51" x2="705.57" y2="252.8"/><line class="cls-3" x1="710.48" y1="245.56" x2="707.45" y2="252.71"/><line class="cls-3" x1="713.21" y1="247.94" x2="708.74" y2="253.45"/><line class="cls-3" x1="714.75" y1="251.41" x2="709.79" y2="255.34"/><line class="cls-3" x1="714.75" y1="256.48" x2="709.49" y2="257.32"/><line class="cls-3" x1="713.01" y1="260.95" x2="708.79" y2="260.05"/><line class="cls-3" x1="710.63" y1="265.36" x2="707.5" y2="262.68"/><line class="cls-3" x1="707.65" y1="269.33" x2="706.01" y2="264.92"/><line class="cls-3" x1="703.88" y1="271.97" x2="704.18" y2="266.31"/><line class="cls-3" x1="698.67" y1="275.34" x2="701.5" y2="267.1"/><line class="cls-3" x1="696.38" y1="274" x2="700.16" y2="266.9"/><line class="cls-3" x1="693.16" y1="271.67" x2="698.57" y2="266.6"/><line class="cls-3" x1="691.97" y1="267.25" x2="698.17" y2="263.92"/><line class="cls-3" x1="693.26" y1="262.48" x2="698.72" y2="261.94"/><line class="cls-3" x1="693.66" y1="258.07" x2="699.11" y2="259.36"/><line class="cls-3" x1="696.68" y1="254.29" x2="700.16" y2="256.63"/><line class="cls-3" x1="699.26" y1="250.42" x2="701.89" y2="254.44"/><line class="cls-3" x1="702.89" y1="247.05" x2="703.93" y2="253.2"/><line class="cls-3" x1="840.96" y1="186.07" x2="846.83" y2="180.2"/><line class="cls-3" x1="843.48" y1="188.68" x2="847.7" y2="180.98"/><line class="cls-3" x1="847.29" y1="189.67" x2="849.19" y2="181.6"/><line class="cls-3" x1="850.89" y1="188.18" x2="851.22" y2="180.32"/><line class="cls-3" x1="854.61" y1="184.58" x2="853.2" y2="179.16"/><line class="cls-3" x1="858.58" y1="179.86" x2="854.98" y2="176.93"/><line class="cls-3" x1="860.98" y1="174.78" x2="856.18" y2="174.45"/><line class="cls-3" x1="862.72" y1="169.52" x2="857.18" y2="171.96"/><line class="cls-3" x1="862.55" y1="164.23" x2="856.88" y2="169.81"/><line class="cls-3" x1="860.85" y1="160.75" x2="856.43" y2="168.03"/><line class="cls-3" x1="858.08" y1="159.43" x2="854.73" y2="167.79"/><line class="cls-3" x1="853.99" y1="159.93" x2="853.62" y2="167.45"/><line class="cls-3" x1="850.14" y1="161.79" x2="851.26" y2="168.28"/><line class="cls-3" x1="847.04" y1="164.68" x2="849.15" y2="169.32"/><line class="cls-3" x1="843.85" y1="168.41" x2="847.7" y2="171.38"/><line class="cls-3" x1="841.83" y1="173.16" x2="846.75" y2="173.7"/><line class="cls-3" x1="839.88" y1="177.67" x2="846.46" y2="176.06"/><line class="cls-3" x1="840.21" y1="181.64" x2="845.84" y2="178.87"/><line class="cls-3" x1="815.49" y1="152.51" x2="811.96" y2="151.3"/><line class="cls-3" x1="811.96" y1="151.3" x2="810.11" y2="152.51"/><line class="cls-3" x1="810.12" y1="153.96" x2="807.24" y2="153.62"/><line class="cls-3" x1="807.24" y1="153.62" x2="805.49" y2="156"/><polygon class="cls-7" points="394.61 108.82 472.5 63.85 476.4 66.1 398.51 111.07 394.61 108.82"/><polygon class="cls-2" points="394.61 108.82 472.5 63.85 476.4 66.1 398.51 111.07 394.61 108.82"/><polygon class="cls-5" points="394.61 108.82 472.5 63.85 476.4 66.1 398.51 111.07 394.61 108.82"/><polygon class="cls-7" points="370.57 221.24 448.46 176.27 488.82 163.21 488.96 161.66 445.24 163.39 445.24 160.54 491.71 159.41 492.79 163.91 471.1 193.45 468.64 192.03 488.08 165.61 452.36 178.52 374.47 223.49 370.57 221.24"/><polygon class="cls-2" points="370.57 221.24 448.46 176.27 488.82 163.21 488.96 161.66 445.24 163.39 445.24 160.54 491.71 159.41 492.79 163.91 471.1 193.45 468.64 192.03 488.08 165.61 452.36 178.52 374.47 223.49 370.57 221.24"/><polygon class="cls-5" points="370.57 221.24 448.46 176.27 488.82 163.21 488.96 161.66 445.24 163.39 445.24 160.54 491.71 159.41 492.79 163.91 471.1 193.45 468.64 192.03 488.08 165.61 452.36 178.52 374.47 223.49 370.57 221.24"/><polygon class="cls-7" points="499.76 48.11 577.65 3.14 581.55 5.39 503.66 50.36 499.76 48.11"/><polygon class="cls-2" points="499.76 48.11 577.65 3.14 581.55 5.39 503.66 50.36 499.76 48.11"/><polygon class="cls-5" points="499.76 48.11 577.65 3.14 581.55 5.39 503.66 50.36 499.76 48.11"/><polygon class="cls-7" points="285.57 171.97 363.46 127 367.35 129.25 289.46 174.22 285.57 171.97"/><polygon class="cls-2" points="285.57 171.97 363.46 127 367.35 129.25 289.46 174.22 285.57 171.97"/><polygon class="cls-5" points="285.57 171.97 363.46 127 367.35 129.25 289.46 174.22 285.57 171.97"/><polygon class="cls-7" points="182.37 231.36 260.26 186.39 264.15 188.64 186.26 233.61 182.37 231.36"/><polygon class="cls-2" points="182.37 231.36 260.26 186.39 264.15 188.64 186.26 233.61 182.37 231.36"/><polygon class="cls-5" points="182.37 231.36 260.26 186.39 264.15 188.64 186.26 233.61 182.37 231.36"/></g></svg>