<?xml version="1.0" encoding="UTF-8"?><svg id="Ebene_2" xmlns="http://www.w3.org/2000/svg" width="62.03mm" height="45.54mm" xmlns:xlink="http://www.w3.org/1999/xlink" viewBox="0 0 175.82 129.09"><defs><style>.cls-1,.cls-2,.cls-3,.cls-4,.cls-5,.cls-6,.cls-7,.cls-8,.cls-9{fill:none;}.cls-2,.cls-3,.cls-4,.cls-10,.cls-5,.cls-6,.cls-7,.cls-8,.cls-9,.cls-11{stroke-linejoin:round;}.cls-2,.cls-3,.cls-8{stroke-width:1.75px;}.cls-2,.cls-10,.cls-5,.cls-6,.cls-9,.cls-11{stroke:#1d1d1b;}.cls-3,.cls-4,.cls-12,.cls-7,.cls-8{stroke:#fff;}.cls-4{stroke-width:.87px;}.cls-13,.cls-10,.cls-11{fill:#fff;}.cls-10,.cls-5,.cls-8{stroke-linecap:round;}.cls-10,.cls-6,.cls-7,.cls-11{stroke-width:.58px;}.cls-14{fill:url(#USGS_20_Scrub);}.cls-5,.cls-9{stroke-width:2.91px;}.cls-12{fill:#1d1d1b;stroke-miterlimit:10;stroke-width:.5px;}.cls-15{fill:url(#USGS_20_Scrub-2);}</style><pattern id="USGS_20_Scrub" x="0" y="0" width="28.35" height="28.35" patternTransform="translate(-14709.71 -4923.13) rotate(-180) scale(.58 -.58)" patternUnits="userSpaceOnUse" viewBox="0 0 28.35 28.35"><rect class="cls-1" y="0" width="28.35" height="28.35"/><path class="cls-12" d="m10.12,3.68c-.13,0-.26-.05-.36-.15-.09-.09-.15-.23-.15-.36s.05-.26.15-.36c.19-.19.53-.19.72,0,.09.09.15.23.15.36s-.05.26-.15.36c-.09.09-.23.15-.36.15Z"/><path class="cls-12" d="m6.72,4.45c-.13,0-.26-.05-.36-.15-.09-.09-.15-.23-.15-.36s.05-.26.15-.36c.19-.19.53-.19.72,0,.09.1.15.23.15.36s-.05.26-.15.36c-.09.09-.22.15-.36.15Z"/><path class="cls-12" d="m6.82,2.8c-.13,0-.26-.05-.36-.15-.09-.09-.15-.23-.15-.36s.05-.26.15-.36c.19-.19.53-.19.72,0,.09.1.15.23.15.36s-.05.26-.15.36c-.09.09-.23.15-.36.15Z"/><path class="cls-12" d="m7.98,4.36c-.13,0-.26-.05-.36-.15-.09-.09-.15-.23-.15-.36s.05-.26.15-.36c.19-.19.53-.19.72,0,.09.09.15.23.15.36s-.05.26-.15.36c-.09.09-.23.15-.36.15Z"/><path class="cls-12" d="m8.86,2.99c-.13,0-.26-.05-.36-.15-.09-.09-.15-.23-.15-.36s.05-.26.15-.36c.19-.19.53-.19.72,0,.09.09.15.23.15.36s-.05.26-.15.36c-.09.09-.23.15-.36.15Z"/><path class="cls-12" d="m12.36,3.38c-.13,0-.26-.05-.36-.15-.09-.09-.15-.23-.15-.36s.05-.26.15-.36c.19-.19.53-.19.72,0,.09.09.15.23.15.36s-.05.26-.15.36c-.09.09-.23.15-.36.15Z"/><path class="cls-12" d="m10.81,2.7c-.13,0-.26-.05-.36-.15-.09-.09-.15-.23-.15-.36s.05-.26.15-.36c.19-.19.53-.19.72,0,.09.09.15.23.15.36s-.05.26-.15.36c-.09.09-.23.15-.36.15Z"/><path class="cls-12" d="m7.69,1.92c-.13,0-.26-.05-.36-.15-.09-.09-.15-.23-.15-.36s.05-.26.15-.36c.19-.19.53-.19.72,0,.09.09.15.23.15.36s-.05.26-.15.36c-.09.09-.22.15-.36.15Z"/><path class="cls-12" d="m11.88,1.92c-.13,0-.26-.05-.36-.15-.09-.1-.15-.23-.15-.36s.05-.26.15-.36c.19-.19.53-.19.72,0,.09.09.15.23.15.36s-.05.26-.15.36c-.09.09-.23.15-.36.15Z"/><path class="cls-12" d="m13.43,2.31c-.13,0-.26-.05-.36-.15-.09-.09-.15-.23-.15-.36s.05-.26.15-.36c.19-.19.53-.19.72,0,.09.09.15.23.15.36s-.05.26-.15.36c-.09.09-.23.15-.36.15Z"/><path class="cls-12" d="m12.36,3.38c-.13,0-.26-.05-.36-.15-.09-.09-.15-.23-.15-.36s.05-.26.15-.36c.19-.19.53-.19.72,0,.09.09.15.23.15.36s-.05.26-.15.36c-.09.09-.23.15-.36.15Z"/><path class="cls-12" d="m12.07,4.45c-.13,0-.26-.05-.36-.15-.09-.09-.15-.23-.15-.36s.05-.26.15-.36c.19-.19.53-.19.72,0,.09.09.15.23.15.36s-.05.26-.15.36c-.09.09-.23.15-.36.15Z"/><path class="cls-12" d="m11.29,5.62c-.13,0-.26-.05-.36-.15-.09-.1-.15-.23-.15-.36s.05-.26.15-.36c.19-.19.53-.19.72,0,.09.1.15.23.15.36s-.05.26-.15.36c-.09.09-.23.15-.36.15Z"/><path class="cls-12" d="m9.73,4.94c-.13,0-.26-.05-.36-.15-.09-.09-.15-.23-.15-.36s.05-.26.15-.36c.19-.19.53-.19.72,0,.09.09.15.23.15.36s-.05.26-.15.36c-.09.09-.23.15-.36.15Z"/><path class="cls-12" d="m9.64,6.3c-.13,0-.26-.05-.36-.15-.09-.09-.15-.23-.15-.36s.05-.26.15-.36c.19-.19.53-.19.72,0,.09.09.15.23.15.36s-.05.26-.15.36c-.09.09-.23.15-.36.15Z"/><path class="cls-12" d="m7.69,5.91c-.13,0-.26-.05-.36-.15-.09-.09-.15-.23-.15-.36s.05-.26.15-.36c.19-.19.53-.19.72,0,.09.09.15.23.15.36s-.05.26-.15.36c-.09.09-.23.15-.36.15Z"/><path class="cls-12" d="m8.96,7.18c-.13,0-.26-.05-.36-.15-.09-.09-.15-.23-.15-.36s.05-.26.15-.36c.19-.19.53-.19.72,0,.09.09.15.23.15.36s-.05.26-.15.36c-.09.09-.23.15-.36.15Z"/><path class="cls-12" d="m9.93,8.64c-.13,0-.26-.05-.36-.15-.09-.09-.15-.23-.15-.36s.05-.26.15-.36c.19-.19.53-.19.72,0,.09.09.15.23.15.36s-.05.26-.15.36c-.09.09-.23.15-.36.15Z"/><path class="cls-12" d="m11,8.93c-.13,0-.26-.05-.36-.15-.09-.09-.15-.23-.15-.36s.05-.26.15-.36c.19-.19.53-.19.72,0,.09.1.15.23.15.36s-.05.26-.15.36c-.09.09-.23.15-.36.15Z"/><path class="cls-12" d="m12.17,8.25c-.13,0-.26-.05-.36-.15-.09-.09-.15-.23-.15-.36s.05-.26.15-.36c.19-.19.53-.19.72,0,.09.09.15.23.15.36s-.05.26-.15.36c-.09.09-.22.15-.36.15Z"/><path class="cls-12" d="m11.97,6.98c-.13,0-.26-.05-.36-.15-.09-.09-.15-.23-.15-.36s.05-.26.15-.36c.19-.19.53-.19.72,0,.09.09.15.23.15.36s-.05.26-.15.36c-.09.09-.23.15-.36.15Z"/><path class="cls-12" d="m12.75,6.11c-.13,0-.26-.05-.36-.15-.09-.09-.15-.23-.15-.36s.05-.26.15-.36c.19-.19.53-.19.72,0,.09.1.15.23.15.36s-.05.26-.15.36c-.09.09-.22.15-.36.15Z"/><path class="cls-12" d="m14.41,6.11c-.13,0-.26-.05-.36-.15-.09-.09-.15-.23-.15-.36s.05-.26.15-.36c.19-.19.53-.19.72,0,.09.09.15.23.15.36s-.05.26-.15.36c-.09.09-.23.15-.36.15Z"/><path class="cls-12" d="m13.72,7.96c-.13,0-.26-.05-.36-.15-.09-.09-.15-.23-.15-.36s.05-.26.15-.36c.19-.19.53-.19.72,0,.09.09.15.23.15.36s-.05.26-.15.36c-.09.09-.23.15-.36.15Z"/><path class="cls-12" d="m14.6,9.32c-.13,0-.26-.05-.36-.15-.09-.09-.15-.23-.15-.36s.05-.26.15-.36c.19-.19.53-.19.72,0,.09.1.15.23.15.36s-.05.26-.15.36c-.09.09-.23.15-.36.15Z"/><path class="cls-12" d="m13.24,9.42c-.13,0-.26-.05-.36-.15-.09-.09-.15-.23-.15-.36s.05-.26.15-.36c.19-.19.53-.19.72,0,.09.09.15.23.15.36s-.05.26-.15.36c-.09.09-.22.15-.36.15Z"/><path class="cls-12" d="m11.88,9.71c-.13,0-.26-.05-.36-.15-.09-.09-.15-.23-.15-.36s.05-.26.15-.36c.19-.19.53-.19.72,0,.09.09.15.23.15.36s-.05.26-.15.36c-.09.09-.23.15-.36.15Z"/><path class="cls-12" d="m15.57,7.57c-.13,0-.26-.05-.36-.15-.09-.09-.15-.23-.15-.36s.05-.26.15-.36c.19-.19.53-.19.72,0,.1.1.15.23.15.36s-.05.26-.15.36c-.09.09-.23.15-.36.15Z"/><path class="cls-12" d="m13.53,4.75c-.13,0-.26-.05-.36-.15-.09-.09-.15-.23-.15-.36s.05-.26.15-.36c.19-.19.53-.19.72,0,.09.09.15.23.15.36s-.05.26-.15.36c-.09.09-.22.15-.36.15Z"/><path class="cls-12" d="m14.31,3.58c-.13,0-.26-.05-.36-.15-.09-.09-.15-.23-.15-.36s.05-.26.15-.36c.19-.19.53-.19.72,0,.09.09.15.23.15.36s-.05.26-.15.36c-.09.09-.22.15-.36.15Z"/><path class="cls-12" d="m15.38,2.22c-.13,0-.26-.05-.36-.15-.09-.09-.15-.23-.15-.36s.05-.26.15-.36c.19-.19.53-.19.72,0,.1.1.15.23.15.36s-.05.26-.15.36c-.09.09-.23.15-.36.15Z"/><path class="cls-12" d="m15.67,3.48c-.13,0-.26-.05-.36-.15-.09-.09-.15-.23-.15-.36s.05-.26.15-.36c.19-.19.53-.19.72,0,.1.1.15.23.15.36s-.05.26-.15.36c-.09.09-.23.15-.36.15Z"/><path class="cls-12" d="m15.57,4.65c-.13,0-.26-.05-.36-.15-.09-.09-.15-.23-.15-.36s.05-.26.15-.36c.19-.19.53-.19.72,0,.1.1.15.23.15.36s-.05.26-.15.36c-.09.09-.23.15-.36.15Z"/><path class="cls-12" d="m15.67,6.11c-.13,0-.26-.05-.36-.15-.09-.09-.15-.23-.15-.36s.05-.26.15-.36c.19-.19.53-.19.72,0,.1.1.15.23.15.36s-.05.26-.15.36c-.09.09-.23.15-.36.15Z"/><path class="cls-12" d="m17.03,2.9c-.13,0-.26-.05-.36-.15-.09-.09-.15-.23-.15-.36s.05-.26.15-.36c.19-.19.53-.19.72,0,.09.09.15.23.15.36s-.05.26-.15.36c-.09.09-.23.15-.36.15Z"/><path class="cls-12" d="m17.32,4.36c-.13,0-.26-.05-.36-.15-.09-.09-.15-.23-.15-.36s.05-.26.15-.36c.19-.19.53-.19.72,0,.09.09.15.23.15.36s-.05.26-.15.36c-.09.09-.23.15-.36.15Z"/><path class="cls-12" d="m17.13,5.91c-.13,0-.26-.05-.36-.15-.09-.09-.15-.23-.15-.36s.05-.26.15-.36c.19-.19.53-.19.72,0,.09.09.15.23.15.36s-.05.26-.15.36c-.09.09-.23.15-.36.15Z"/><path class="cls-12" d="m17.23,7.67c-.13,0-.26-.05-.36-.15-.09-.09-.15-.23-.15-.36s.05-.26.15-.36c.19-.19.53-.19.72,0,.09.09.15.23.15.36s-.05.26-.15.36c-.09.09-.23.15-.36.15Z"/><path class="cls-12" d="m17.81,9.03c-.13,0-.26-.05-.36-.15-.09-.09-.15-.23-.15-.36s.05-.26.15-.36c.19-.19.53-.19.72,0,.09.09.15.23.15.36s-.05.26-.15.36c-.09.09-.23.15-.36.15Z"/><path class="cls-12" d="m15.96,8.93c-.13,0-.26-.05-.36-.15-.09-.09-.15-.23-.15-.36s.05-.26.15-.36c.19-.19.53-.19.72,0,.09.09.15.23.15.36s-.05.26-.15.36c-.09.09-.23.15-.36.15Z"/><path class="cls-12" d="m16.45,10.68c-.13,0-.26-.05-.36-.15-.09-.09-.15-.23-.15-.36s.05-.26.15-.36c.19-.19.53-.19.72,0,.09.09.15.23.15.36s-.05.26-.15.36c-.09.09-.23.15-.36.15Z"/><path class="cls-12" d="m14.79,10.58c-.13,0-.26-.05-.36-.15-.09-.09-.15-.23-.15-.36s.05-.26.15-.36c.19-.19.53-.19.72,0,.09.09.15.23.15.36s-.05.26-.15.36c-.09.09-.23.15-.36.15Z"/><path class="cls-12" d="m19.37,9.61c-.13,0-.26-.05-.36-.15-.09-.09-.15-.23-.15-.36s.05-.26.15-.36c.19-.19.53-.19.72,0,.09.09.15.23.15.36s-.05.26-.15.36c-.09.09-.22.15-.36.15Z"/><path class="cls-12" d="m18.98,8.25c-.13,0-.26-.05-.36-.15-.09-.09-.15-.23-.15-.36s.05-.26.15-.36c.19-.19.53-.19.72,0,.09.09.15.23.15.36s-.05.26-.15.36c-.09.09-.23.15-.36.15Z"/><path class="cls-12" d="m18.59,6.89c-.13,0-.26-.05-.36-.15-.09-.09-.15-.23-.15-.36s.05-.26.15-.36c.19-.19.53-.19.72,0,.09.09.15.23.15.36s-.05.26-.15.36c-.09.09-.22.15-.36.15Z"/><path class="cls-12" d="m18.69,5.33c-.13,0-.26-.05-.36-.15-.09-.09-.15-.23-.15-.36s.05-.26.15-.36c.19-.19.53-.19.72,0,.09.09.15.23.15.36s-.05.26-.15.36c-.09.09-.23.15-.36.15Z"/><path class="cls-12" d="m18.59,3.68c-.13,0-.26-.05-.36-.15-.09-.09-.15-.23-.15-.36s.05-.26.15-.36c.19-.19.53-.19.72,0,.09.09.15.23.15.36s-.05.26-.15.36c-.09.09-.23.15-.36.15Z"/><path class="cls-12" d="m18.49,2.41c-.13,0-.26-.05-.36-.15-.09-.09-.15-.23-.15-.36s.05-.26.15-.36c.19-.19.53-.19.72,0,.09.09.15.23.15.36s-.05.26-.15.36c-.09.09-.22.15-.36.15Z"/><path class="cls-12" d="m20.44,2.02c-.13,0-.26-.05-.36-.15-.09-.09-.15-.23-.15-.36s.05-.26.15-.36c.19-.19.53-.19.72,0,.09.09.15.23.15.36s-.05.26-.15.36c-.09.09-.23.15-.36.15Z"/><path class="cls-12" d="m20.15,3.68c-.13,0-.26-.05-.36-.15-.09-.09-.15-.23-.15-.36s.05-.26.15-.36c.19-.19.53-.19.72,0,.09.09.15.23.15.36s-.05.26-.15.36c-.09.09-.23.15-.36.15Z"/><path class="cls-12" d="m21.51,3.68c-.13,0-.26-.05-.36-.15-.09-.09-.15-.23-.15-.36s.05-.26.15-.36c.19-.19.53-.19.72,0,.09.09.15.23.15.36s-.05.26-.15.36c-.09.09-.23.15-.36.15Z"/><path class="cls-12" d="m21.41,5.04c-.13,0-.26-.05-.36-.15-.09-.09-.15-.23-.15-.36s.05-.26.15-.36c.19-.19.53-.19.72,0,.1.09.15.23.15.36s-.05.26-.15.36c-.09.09-.23.15-.36.15Z"/><path class="cls-12" d="m19.95,4.94c-.13,0-.26-.05-.36-.15-.09-.09-.15-.23-.15-.36s.05-.26.15-.36c.19-.19.53-.19.72,0,.09.09.15.23.15.36s-.05.26-.15.36c-.09.09-.23.15-.36.15Z"/><path class="cls-12" d="m20.05,6.69c-.13,0-.26-.05-.36-.15-.09-.09-.15-.23-.15-.36s.05-.26.15-.36c.19-.19.53-.19.72,0,.09.09.15.23.15.36s-.05.26-.15.36c-.09.09-.23.15-.36.15Z"/><path class="cls-12" d="m21.41,6.69c-.13,0-.26-.05-.36-.15-.09-.09-.15-.23-.15-.36s.05-.26.15-.36c.19-.19.53-.19.72,0,.1.09.15.23.15.36s-.05.26-.15.36c-.09.09-.23.15-.36.15Z"/><path class="cls-12" d="m20.34,8.05c-.13,0-.26-.05-.36-.15-.09-.09-.15-.23-.15-.36s.05-.26.15-.36c.19-.19.53-.19.72,0,.09.09.15.23.15.36s-.05.26-.15.36c-.09.09-.23.15-.36.15Z"/><path class="cls-12" d="m20.92,9.71c-.13,0-.26-.05-.36-.15-.09-.09-.15-.23-.15-.36s.05-.26.15-.36c.19-.19.53-.19.72,0,.09.09.15.23.15.36s-.05.26-.15.36c-.09.09-.23.15-.36.15Z"/><path class="cls-12" d="m21.61,10.97c-.13,0-.26-.05-.36-.15-.09-.09-.15-.23-.15-.36s.05-.26.15-.36c.19-.19.53-.19.72,0,.09.09.15.23.15.36s-.05.26-.15.36c-.09.09-.23.15-.36.15Z"/><path class="cls-12" d="m22.58,9.9c-.13,0-.26-.05-.36-.15-.09-.09-.15-.23-.15-.36s.05-.26.15-.36c.19-.19.53-.19.72,0,.09.09.15.23.15.36s-.05.26-.15.36c-.09.09-.22.15-.36.15Z"/><path class="cls-12" d="m21.99,8.54c-.13,0-.26-.05-.36-.15-.09-.09-.15-.23-.15-.36s.05-.26.15-.36c.19-.19.53-.19.72,0,.09.09.15.23.15.36s-.05.26-.15.36c-.09.09-.23.15-.36.15Z"/><path class="cls-12" d="m22.87,7.37c-.13,0-.26-.05-.36-.15-.09-.09-.15-.23-.15-.36s.05-.26.15-.36c.19-.19.53-.19.72,0,.09.09.15.23.15.36s-.05.26-.15.36c-.09.09-.23.15-.36.15Z"/><path class="cls-12" d="m22.97,5.72c-.13,0-.26-.05-.36-.15-.09-.09-.15-.23-.15-.36s.05-.26.15-.36c.19-.19.53-.19.72,0,.09.09.15.23.15.36s-.05.26-.15.36c-.09.09-.23.15-.36.15Z"/><path class="cls-12" d="m23.07,3.77c-.13,0-.26-.05-.36-.15-.09-.09-.15-.23-.15-.36s.05-.26.15-.36c.19-.19.53-.19.72,0,.09.09.15.23.15.36s-.05.26-.15.36c-.09.09-.23.15-.36.15Z"/><path class="cls-12" d="m24.33,4.16c-.13,0-.26-.05-.36-.15-.09-.1-.15-.23-.15-.36s.05-.26.15-.36c.19-.19.53-.19.72,0,.09.09.15.23.15.36s-.05.26-.15.36c-.09.09-.23.15-.36.15Z"/><path class="cls-12" d="m23.65,2.41c-.13,0-.26-.05-.36-.15-.09-.09-.15-.23-.15-.36s.05-.26.15-.36c.19-.19.53-.19.72,0,.09.09.15.23.15.36s-.05.26-.15.36c-.09.09-.22.15-.36.15Z"/><path class="cls-12" d="m25.11,2.8c-.13,0-.26-.05-.36-.15-.09-.09-.15-.23-.15-.36s.05-.26.15-.36c.19-.19.53-.19.72,0,.09.09.15.23.15.36s-.05.26-.15.36c-.09.09-.23.15-.36.15Z"/><path class="cls-12" d="m26.37,2.12c-.13,0-.26-.05-.36-.15-.09-.09-.15-.23-.15-.36s.05-.26.15-.36c.19-.19.53-.19.72,0,.09.09.15.23.15.36s-.05.26-.15.36c-.09.09-.23.15-.36.15Z"/><path class="cls-12" d="m27.15,2.9c-.13,0-.26-.05-.36-.15-.09-.09-.15-.23-.15-.36s.05-.26.15-.36c.19-.19.53-.19.72,0,.09.09.15.23.15.36s-.05.26-.15.36c-.09.09-.23.15-.36.15Z"/><path class="cls-12" d="m25.79,4.06c-.13,0-.26-.05-.36-.15-.09-.09-.15-.23-.15-.36s.05-.26.15-.36c.19-.19.53-.19.72,0,.09.09.15.23.15.36s-.05.26-.15.36c-.09.09-.23.15-.36.15Z"/><path class="cls-12" d="m25.5,5.52c-.13,0-.26-.05-.36-.15-.09-.09-.15-.23-.15-.36s.05-.26.15-.36c.19-.19.53-.19.72,0,.09.09.15.23.15.36s-.05.26-.15.36c-.09.09-.23.15-.36.15Z"/><path class="cls-12" d="m24.43,6.4c-.13,0-.26-.05-.36-.15-.09-.09-.15-.23-.15-.36s.05-.26.15-.36c.19-.19.53-.19.72,0,.09.09.15.23.15.36s-.05.26-.15.36c-.09.09-.23.15-.36.15Z"/><path class="cls-12" d="m25.4,7.47c-.13,0-.26-.05-.36-.15-.09-.09-.15-.23-.15-.36s.05-.26.15-.36c.19-.19.53-.19.72,0,.09.09.15.23.15.36s-.05.26-.15.36c-.09.09-.23.15-.36.15Z"/><path class="cls-12" d="m26.86,7.86c-.13,0-.26-.05-.36-.15-.09-.09-.15-.23-.15-.36s.05-.26.15-.36c.19-.19.53-.19.72,0,.09.09.15.23.15.36s-.05.26-.15.36c-.09.09-.23.15-.36.15Z"/><path class="cls-12" d="m26.08,8.74c-.13,0-.26-.05-.36-.15-.09-.09-.15-.23-.15-.36s.05-.26.15-.36c.19-.19.53-.19.72,0,.09.09.15.23.15.36s-.05.26-.15.36c-.09.09-.23.15-.36.15Z"/><path class="cls-12" d="m24.72,8.93c-.13,0-.26-.05-.36-.15-.09-.09-.15-.23-.15-.36s.05-.26.15-.36c.19-.19.53-.19.72,0,.09.09.15.23.15.36s-.05.26-.15.36c-.09.09-.23.15-.36.15Z"/><path class="cls-12" d="m23.65,8.74c-.13,0-.26-.05-.36-.15-.09-.09-.15-.23-.15-.36s.05-.26.15-.36c.19-.19.53-.19.72,0,.09.09.15.23.15.36s-.05.26-.15.36c-.09.09-.23.15-.36.15Z"/><path class="cls-12" d="m24.33,10.39c-.13,0-.26-.05-.36-.15-.09-.1-.15-.23-.15-.36s.05-.26.15-.36c.19-.19.53-.19.72,0,.09.09.15.23.15.36s-.05.26-.15.36c-.09.09-.22.15-.36.15Z"/><path class="cls-12" d="m26.08,9.9c-.13,0-.26-.05-.36-.15-.09-.09-.15-.23-.15-.36s.05-.26.15-.36c.19-.19.53-.19.72,0,.09.09.15.23.15.36s-.05.26-.15.36c-.09.09-.23.15-.36.15Z"/><path class="cls-12" d="m27.74,10.29c-.13,0-.26-.05-.36-.15-.09-.1-.15-.23-.15-.36s.05-.26.15-.36c.19-.19.53-.19.72,0,.09.09.15.23.15.36s-.05.26-.15.36c-.09.09-.23.15-.36.15Z"/><path class="cls-12" d="m27.74,8.93c-.13,0-.26-.05-.36-.15-.09-.09-.15-.23-.15-.36s.05-.26.15-.36c.19-.19.53-.19.72,0,.09.09.15.23.15.36s-.05.26-.15.36c-.09.09-.23.15-.36.15Z"/><path class="cls-12" d="m26.57,6.3c-.13,0-.26-.05-.36-.15-.09-.09-.15-.23-.15-.36s.05-.26.15-.36c.19-.19.53-.19.72,0,.09.09.15.23.15.36s-.05.26-.15.36c-.09.09-.23.15-.36.15Z"/><path class="cls-12" d="m26.86,4.84c-.13,0-.26-.05-.36-.15-.09-.09-.15-.23-.15-.36s.05-.26.15-.36c.19-.19.53-.19.72,0,.09.09.15.23.15.36s-.05.26-.15.36c-.09.09-.23.15-.36.15Z"/><path class="cls-12" d="m28.22,4.06c-.13,0-.26-.05-.36-.15-.09-.09-.15-.23-.15-.36s.05-.26.15-.36c.19-.19.53-.19.72,0,.09.09.15.23.15.36s-.05.26-.15.36c-.09.09-.23.15-.36.15Z"/><path class="cls-12" d="m28.61,2.22c-.13,0-.26-.05-.36-.15-.09-.1-.15-.23-.15-.36s.05-.26.15-.36c.19-.19.53-.19.72,0,.09.09.15.23.15.36s-.05.26-.15.36c-.09.09-.23.15-.36.15Z"/><path class="cls-12" d="m28.22,6.59c-.13,0-.26-.05-.36-.15-.09-.09-.15-.23-.15-.36s.05-.26.15-.36c.19-.19.53-.19.72,0,.09.09.15.23.15.36s-.05.26-.15.36c-.09.09-.23.15-.36.15Z"/><path class="cls-12" d="m28.9,7.96c-.13,0-.26-.05-.36-.15-.09-.09-.15-.23-.15-.36s.05-.26.15-.36c.19-.19.53-.19.72,0,.09.09.15.23.15.36s-.05.26-.15.36c-.09.09-.23.15-.36.15Z"/><path class="cls-12" d="m23.07,3.77c-.13,0-.26-.05-.36-.15-.09-.09-.15-.23-.15-.36s.05-.26.15-.36c.19-.19.53-.19.72,0,.09.09.15.23.15.36s-.05.26-.15.36c-.09.09-.23.15-.36.15Z"/><path class="cls-12" d="m23.65,2.41c-.13,0-.26-.05-.36-.15-.09-.09-.15-.23-.15-.36s.05-.26.15-.36c.19-.19.53-.19.72,0,.09.09.15.23.15.36s-.05.26-.15.36c-.09.09-.22.15-.36.15Z"/><path class="cls-12" d="m22.09,2.7c-.13,0-.26-.05-.36-.15-.09-.09-.15-.23-.15-.36s.05-.26.15-.36c.19-.19.53-.19.72,0,.09.09.15.23.15.36s-.05.26-.15.36c-.09.09-.23.15-.36.15Z"/><path class="cls-12" d="m10.42,10.29c-.13,0-.26-.05-.36-.15-.09-.09-.15-.23-.15-.36s.05-.26.15-.36c.19-.19.53-.19.72,0,.09.09.15.23.15.36s-.05.26-.15.36c-.09.09-.23.15-.36.15Z"/><path class="cls-12" d="m8.86,9.22c-.13,0-.26-.05-.36-.15-.09-.09-.15-.23-.15-.36s.05-.26.15-.36c.19-.19.53-.19.72,0,.09.1.15.23.15.36s-.05.26-.15.36c-.09.09-.22.15-.36.15Z"/><path class="cls-12" d="m7.3,9.61c-.13,0-.26-.05-.36-.15-.09-.09-.15-.23-.15-.36s.05-.26.15-.36c.19-.19.53-.19.72,0,.09.1.15.23.15.36s-.05.26-.15.36c-.09.09-.23.15-.36.15Z"/><path class="cls-12" d="m7.69,8.05c-.13,0-.26-.05-.36-.15-.09-.09-.15-.23-.15-.36s.05-.26.15-.36c.19-.19.53-.19.72,0,.09.09.15.23.15.36s-.05.26-.15.36c-.09.09-.23.15-.36.15Z"/><path class="cls-12" d="m6.82,6.89c-.13,0-.26-.05-.36-.15-.09-.09-.15-.23-.15-.36s.05-.26.15-.36c.19-.19.53-.19.72,0,.09.1.15.23.15.36s-.05.26-.15.36c-.09.09-.23.15-.36.15Z"/><path class="cls-12" d="m5.94,5.82c-.13,0-.26-.05-.36-.15-.09-.09-.15-.23-.15-.36s.05-.26.15-.36c.19-.19.53-.19.72,0,.09.09.15.23.15.36s-.05.26-.15.36c-.09.09-.23.15-.36.15Z"/><path class="cls-12" d="m5.94,8.25c-.13,0-.26-.05-.36-.15-.09-.09-.15-.23-.15-.36s.05-.26.15-.36c.19-.19.53-.19.72,0,.09.09.15.23.15.36s-.05.26-.15.36c-.09.09-.22.15-.36.15Z"/><path class="cls-12" d="m7.3,9.61c-.13,0-.26-.05-.36-.15-.09-.09-.15-.23-.15-.36s.05-.26.15-.36c.19-.19.53-.19.72,0,.09.1.15.23.15.36s-.05.26-.15.36c-.09.09-.23.15-.36.15Z"/><path class="cls-12" d="m8.28,10.49c-.13,0-.26-.05-.36-.15-.09-.09-.15-.23-.15-.36s.05-.26.15-.36c.19-.19.53-.19.72,0,.09.09.15.23.15.36s-.05.26-.15.36c-.09.09-.23.15-.36.15Z"/><path class="cls-12" d="m6.52,11.07c-.13,0-.26-.05-.36-.15-.09-.09-.15-.23-.15-.36s.05-.26.15-.36c.19-.19.53-.19.72,0,.09.09.15.23.15.36s-.05.26-.15.36c-.09.09-.23.15-.36.15Z"/><path class="cls-12" d="m5.55,9.9c-.13,0-.26-.05-.36-.15-.09-.09-.15-.23-.15-.36s.05-.26.15-.36c.19-.19.53-.19.72,0,.09.1.15.23.15.36s-.05.26-.15.36c-.09.09-.23.15-.36.15Z"/><path class="cls-12" d="m10.42,7.37c-.13,0-.26-.05-.36-.15-.09-.09-.15-.23-.15-.36s.05-.26.15-.36c.19-.19.53-.19.72,0,.09.09.15.23.15.36s-.05.26-.15.36c-.09.09-.22.15-.36.15Z"/><path class="cls-12" d="m1.85,3.68c-.13,0-.26-.05-.36-.15-.09-.09-.15-.23-.15-.36s.05-.26.15-.36c.19-.19.53-.19.72,0,.09.1.15.23.15.36s-.05.26-.15.36c-.09.09-.23.15-.36.15Z"/><path class="cls-12" d="m2.34,7.37c-.13,0-.26-.05-.36-.15-.09-.09-.15-.23-.15-.36s.05-.26.15-.36c.19-.19.53-.19.72,0,.09.09.15.23.15.36s-.05.26-.15.36c-.09.09-.23.15-.36.15Z"/><path class="cls-12" d="m3.12,8.64c-.13,0-.26-.05-.36-.15-.09-.09-.15-.23-.15-.36s.05-.26.15-.36c.19-.19.53-.19.72,0,.1.1.15.23.15.36s-.05.26-.15.36c-.09.09-.23.15-.36.15Z"/><path class="cls-12" d="m2.53,6.01c-.13,0-.26-.05-.36-.15-.09-.09-.15-.23-.15-.36s.05-.26.15-.36c.19-.19.53-.19.72,0,.09.09.15.23.15.36s-.05.26-.15.36c-.09.09-.23.15-.36.15Z"/><path class="cls-12" d="m4.58,3.19c-.13,0-.26-.05-.36-.15-.09-.09-.15-.23-.15-.36s.05-.26.15-.36c.19-.19.53-.19.72,0,.09.09.15.23.15.36s-.05.26-.15.36c-.09.09-.23.15-.36.15Z"/><path class="cls-12" d="m3.31,3.38c-.13,0-.26-.05-.36-.15-.09-.09-.15-.23-.15-.36s.05-.26.15-.36c.19-.19.53-.19.72,0,.09.09.15.23.15.36s-.05.26-.15.36c-.09.09-.23.15-.36.15Z"/><path class="cls-12" d="m3.41,4.65c-.13,0-.26-.05-.36-.15-.09-.09-.15-.23-.15-.36s.05-.26.15-.36c.19-.19.53-.19.72,0,.09.1.15.23.15.36s-.05.26-.15.36c-.09.09-.23.15-.36.15Z"/><path class="cls-12" d="m5.26,4.36c-.13,0-.26-.05-.36-.15-.09-.09-.15-.23-.15-.36s.05-.26.15-.36c.19-.19.53-.19.72,0,.09.1.15.23.15.36s-.05.26-.15.36c-.09.09-.23.15-.36.15Z"/><path class="cls-12" d="m2.53,2.31c-.13,0-.26-.05-.36-.15-.09-.09-.15-.23-.15-.36s.05-.26.15-.36c.19-.19.53-.19.72,0,.09.09.15.23.15.36s-.05.26-.15.36c-.09.09-.23.15-.36.15Z"/><path class="cls-12" d="m3.8,6.5c-.13,0-.26-.05-.36-.15-.09-.09-.15-.23-.15-.36s.05-.26.15-.36c.19-.19.53-.19.72,0,.09.1.15.23.15.36s-.05.26-.15.36c-.09.09-.23.15-.36.15Z"/><path class="cls-12" d="m4.87,5.62c-.13,0-.26-.05-.36-.15-.09-.1-.15-.23-.15-.36s.05-.26.15-.36c.19-.19.53-.19.72,0,.09.09.15.23.15.36s-.05.26-.15.36c-.09.09-.23.15-.36.15Z"/><path class="cls-12" d="m4.87,7.18c-.13,0-.26-.05-.36-.15-.09-.1-.15-.23-.15-.36s.05-.26.15-.36c.19-.19.53-.19.72,0,.09.09.15.23.15.36s-.05.26-.15.36c-.09.09-.23.15-.36.15Z"/><path class="cls-12" d="m5.94,8.25c-.13,0-.26-.05-.36-.15-.09-.09-.15-.23-.15-.36s.05-.26.15-.36c.19-.19.53-.19.72,0,.09.09.15.23.15.36s-.05.26-.15.36c-.09.09-.22.15-.36.15Z"/><path class="cls-12" d="m4.29,8.93c-.13,0-.26-.05-.36-.15-.09-.09-.15-.23-.15-.36s.05-.26.15-.36c.19-.19.53-.19.72,0,.09.1.15.23.15.36s-.05.26-.15.36c-.09.09-.23.15-.36.15Z"/><path class="cls-12" d="m3.31,11.07c-.13,0-.26-.05-.36-.15-.09-.09-.15-.23-.15-.36s.05-.26.15-.36c.19-.19.53-.19.72,0,.09.09.15.23.15.36s-.05.26-.15.36c-.09.09-.23.15-.36.15Z"/><path class="cls-12" d="m3.02,9.9c-.13,0-.26-.05-.36-.15-.09-.09-.15-.23-.15-.36s.05-.26.15-.36c.19-.19.53-.19.72,0,.09.1.15.23.15.36s-.05.26-.15.36c-.09.09-.23.15-.36.15Z"/><path class="cls-12" d="m6.91,28.88c-.13,0-.26-.05-.36-.15-.09-.09-.15-.23-.15-.36s.05-.26.15-.36c.19-.19.53-.19.72,0,.09.1.15.23.15.36s-.05.26-.15.36c-.09.09-.23.15-.36.15Z"/><path class="cls-12" d="m6.91,28.88c-.13,0-.26-.05-.36-.15-.09-.09-.15-.23-.15-.36s.05-.26.15-.36c.19-.19.53-.19.72,0,.09.1.15.23.15.36s-.05.26-.15.36c-.09.09-.23.15-.36.15Z"/><path class="cls-12" d="m8.28,28.49c-.13,0-.26-.05-.36-.15-.09-.09-.15-.23-.15-.36s.05-.26.15-.36c.19-.19.53-.19.72,0,.09.09.15.23.15.36s-.05.26-.15.36c-.09.09-.23.15-.36.15Z"/><path class="cls-12" d="m10.42,28.88c-.13,0-.26-.05-.36-.15-.09-.09-.15-.23-.15-.36s.05-.26.15-.36c.19-.19.53-.19.72,0,.09.09.15.23.15.36s-.05.26-.15.36c-.09.09-.22.15-.36.15Z"/><path class="cls-12" d="m12.46,28.68c-.13,0-.26-.05-.36-.15-.09-.09-.15-.23-.15-.36s.05-.26.15-.36c.19-.19.53-.19.72,0,.09.09.15.23.15.36s-.05.26-.15.36c-.09.09-.22.15-.36.15Z"/><path class="cls-12" d="m13.82,28.88c-.13,0-.26-.05-.36-.15-.09-.09-.15-.23-.15-.36s.05-.26.15-.36c.19-.19.53-.19.72,0,.09.09.15.23.15.36s-.05.26-.15.36c-.09.09-.23.15-.36.15Z"/><path class="cls-12" d="m15.77,28.68c-.13,0-.26-.05-.36-.15-.09-.09-.15-.23-.15-.36s.05-.26.15-.36c.19-.19.53-.19.72,0,.09.09.15.23.15.36s-.05.26-.15.36c-.09.09-.23.15-.36.15Z"/><path class="cls-12" d="m18.59,27.61c-.13,0-.26-.05-.36-.15-.09-.09-.15-.23-.15-.36s.05-.26.15-.36c.19-.19.53-.19.72,0,.09.09.15.23.15.36s-.05.26-.15.36c-.09.09-.23.15-.36.15Z"/><path class="cls-12" d="m20.44,28.29c-.13,0-.26-.05-.36-.15-.09-.09-.15-.23-.15-.36s.05-.26.15-.36c.19-.19.53-.19.72,0,.09.09.15.23.15.36s-.05.26-.15.36c-.09.09-.23.15-.36.15Z"/><path class="cls-12" d="m24.33,28.88c-.13,0-.26-.05-.36-.15-.09-.1-.15-.23-.15-.36s.05-.26.15-.36c.19-.19.53-.19.72,0,.09.09.15.23.15.36s-.05.26-.15.36c-.09.09-.23.15-.36.15Z"/><path class="cls-12" d="m27.44,29.17c-.13,0-.26-.05-.36-.15-.09-.09-.15-.23-.15-.36s.05-.26.15-.36c.19-.19.53-.19.72,0,.09.09.15.23.15.36s-.05.26-.15.36c-.09.09-.22.15-.36.15Z"/><path class="cls-12" d="m22.48,29.56c-.13,0-.26-.05-.36-.15-.09-.09-.15-.23-.15-.36s.05-.26.15-.36c.19-.19.53-.19.72,0,.09.09.15.23.15.36s-.05.26-.15.36c-.09.09-.23.15-.36.15Z"/><path class="cls-12" d="m21.99,28.1c-.13,0-.26-.05-.36-.15-.09-.09-.15-.23-.15-.36s.05-.26.15-.36c.19-.19.53-.19.72,0,.09.09.15.23.15.36s-.05.26-.15.36c-.09.09-.23.15-.36.15Z"/><path class="cls-12" d="m5.06,28.49c-.13,0-.26-.05-.36-.15-.09-.09-.15-.23-.15-.36s.05-.26.15-.36c.19-.19.53-.19.72,0,.09.09.15.23.15.36s-.05.26-.15.36c-.09.09-.23.15-.36.15Z"/><path class="cls-12" d="m3.31,28.58c-.13,0-.26-.05-.36-.15-.09-.09-.15-.23-.15-.36s.05-.26.15-.36c.19-.19.53-.19.72,0,.09.1.15.23.15.36s-.05.26-.15.36c-.09.09-.23.15-.36.15Z"/><path class="cls-12" d="m9.64,11.36c-.13,0-.26-.05-.36-.15-.09-.09-.15-.23-.15-.36s.05-.26.15-.36c.19-.19.53-.19.72,0,.09.09.15.23.15.36s-.05.26-.15.36c-.09.09-.22.15-.36.15Z"/><path class="cls-12" d="m11.39,11.75c-.13,0-.26-.05-.36-.15-.09-.09-.15-.23-.15-.36s.05-.26.15-.36c.19-.19.53-.19.72,0,.09.1.15.23.15.36s-.05.26-.15.36c-.09.09-.23.15-.36.15Z"/><path class="cls-12" d="m12.85,10.97c-.13,0-.26-.05-.36-.15-.09-.09-.15-.23-.15-.36s.05-.26.15-.36c.19-.19.53-.19.72,0,.09.09.15.23.15.36s-.05.26-.15.36c-.09.09-.23.15-.36.15Z"/><path class="cls-12" d="m12.36,12.53c-.13,0-.26-.05-.36-.15-.09-.09-.15-.23-.15-.36s.05-.26.15-.36c.19-.19.53-.19.72,0,.09.09.15.23.15.36s-.05.26-.15.36c-.09.09-.22.15-.36.15Z"/><path class="cls-12" d="m11.29,13.31c-.13,0-.26-.05-.36-.15-.09-.09-.15-.23-.15-.36s.05-.26.15-.36c.19-.19.53-.19.72,0,.09.09.15.23.15.36s-.05.26-.15.36c-.09.09-.23.15-.36.15Z"/><path class="cls-12" d="m9.93,13.02c-.13,0-.26-.05-.36-.15-.09-.09-.15-.23-.15-.36s.05-.26.15-.36c.19-.19.53-.19.72,0,.09.09.15.23.15.36s-.05.26-.15.36c-.09.09-.22.15-.36.15Z"/><path class="cls-12" d="m8.66,13.31c-.13,0-.26-.05-.36-.15-.09-.09-.15-.23-.15-.36s.05-.26.15-.36c.19-.19.53-.19.72,0,.09.09.15.23.15.36s-.05.26-.15.36c-.09.09-.23.15-.36.15Z"/><path class="cls-12" d="m8.08,11.85c-.13,0-.26-.05-.36-.15-.09-.09-.15-.23-.15-.36s.05-.26.15-.36c.19-.19.53-.19.72,0,.09.09.15.23.15.36s-.05.26-.15.36c-.09.09-.23.15-.36.15Z"/><path class="cls-12" d="m7.3,12.82c-.13,0-.26-.05-.36-.15-.09-.09-.15-.23-.15-.36s.05-.26.15-.36c.19-.19.53-.19.72,0,.09.09.15.23.15.36s-.05.26-.15.36c-.09.09-.22.15-.36.15Z"/><path class="cls-12" d="m6.04,12.34c-.13,0-.26-.05-.36-.15-.09-.09-.15-.23-.15-.36s.05-.26.15-.36c.19-.19.53-.19.72,0,.09.1.15.23.15.36s-.05.26-.15.36c-.09.09-.23.15-.36.15Z"/><path class="cls-12" d="m4.77,12.92c-.13,0-.26-.05-.36-.15-.09-.09-.15-.23-.15-.36s.05-.26.15-.36c.19-.19.53-.19.72,0,.1.1.15.23.15.36s-.05.26-.15.36c-.09.09-.23.15-.36.15Z"/><path class="cls-12" d="m4.38,14.18c-.13,0-.26-.05-.36-.15-.09-.09-.15-.23-.15-.36s.05-.26.15-.36c.19-.19.53-.19.72,0,.09.09.15.23.15.36s-.05.26-.15.36c-.09.09-.23.15-.36.15Z"/><path class="cls-12" d="m4.97,15.84c-.13,0-.26-.05-.36-.15-.09-.09-.15-.23-.15-.36s.05-.26.15-.36c.19-.19.53-.19.72,0,.09.09.15.23.15.36s-.05.26-.15.36c-.09.09-.23.15-.36.15Z"/><path class="cls-12" d="m5.94,14.87c-.13,0-.26-.05-.36-.15-.09-.09-.15-.23-.15-.36s.05-.26.15-.36c.19-.19.53-.19.72,0,.09.09.15.23.15.36s-.05.26-.15.36c-.09.09-.23.15-.36.15Z"/><path class="cls-12" d="m7.01,13.89c-.13,0-.26-.05-.36-.15-.09-.09-.15-.23-.15-.36s.05-.26.15-.36c.19-.19.53-.19.72,0,.09.09.15.23.15.36s-.05.26-.15.36c-.09.09-.23.15-.36.15Z"/><path class="cls-12" d="m8.47,14.77c-.13,0-.26-.05-.36-.15-.09-.09-.15-.23-.15-.36s.05-.26.15-.36c.19-.19.53-.19.72,0,.09.09.15.23.15.36s-.05.26-.15.36c-.09.09-.23.15-.36.15Z"/><path class="cls-12" d="m7.3,15.74c-.13,0-.26-.05-.36-.15-.09-.09-.15-.23-.15-.36s.05-.26.15-.36c.19-.19.53-.19.72,0,.09.09.15.23.15.36s-.05.26-.15.36c-.09.09-.23.15-.36.15Z"/><path class="cls-12" d="m6.13,16.81c-.13,0-.26-.05-.36-.15-.09-.09-.15-.23-.15-.36s.05-.26.15-.36c.19-.19.53-.19.72,0,.09.09.15.23.15.36s-.05.26-.15.36c-.09.09-.23.15-.36.15Z"/><path class="cls-12" d="m4.87,17.49c-.13,0-.26-.05-.36-.15-.09-.1-.15-.23-.15-.36s.05-.26.15-.36c.19-.19.53-.19.72,0,.09.09.15.23.15.36s-.05.26-.15.36c-.09.09-.23.15-.36.15Z"/><path class="cls-12" d="m4.97,15.84c-.13,0-.26-.05-.36-.15-.09-.09-.15-.23-.15-.36s.05-.26.15-.36c.19-.19.53-.19.72,0,.09.09.15.23.15.36s-.05.26-.15.36c-.09.09-.23.15-.36.15Z"/><path class="cls-12" d="m3.7,16.42c-.13,0-.26-.05-.36-.15-.09-.09-.15-.23-.15-.36s.05-.26.15-.36c.19-.19.53-.19.72,0,.09.09.15.23.15.36s-.05.26-.15.36c-.09.09-.23.15-.36.15Z"/><path class="cls-12" d="m3.31,14.67c-.13,0-.26-.05-.36-.15-.09-.09-.15-.23-.15-.36s.05-.26.15-.36c.19-.19.53-.19.72,0,.09.1.15.23.15.36s-.05.26-.15.36c-.09.09-.23.15-.36.15Z"/><path class="cls-12" d="m3.22,12.63c-.13,0-.26-.05-.36-.15-.09-.09-.15-.23-.15-.36s.05-.26.15-.36c.19-.19.53-.19.72,0,.09.09.15.23.15.36s-.05.26-.15.36c-.09.09-.23.15-.36.15Z"/><path class="cls-12" d="m2.05,13.41c-.13,0-.26-.05-.36-.15-.09-.09-.15-.23-.15-.36s.05-.26.15-.36c.19-.19.53-.19.72,0,.1.1.15.23.15.36s-.05.26-.15.36c-.09.09-.23.15-.36.15Z"/><path class="cls-12" d="m1.76,14.96c-.13,0-.26-.05-.36-.15-.09-.09-.15-.23-.15-.36s.05-.26.15-.36c.19-.19.53-.19.72,0,.09.09.15.23.15.36s-.05.26-.15.36c-.09.09-.23.15-.36.15Z"/><path class="cls-12" d="m1.76,11.65c-.13,0-.26-.05-.36-.15-.09-.1-.15-.23-.15-.36s.05-.26.15-.36c.19-.19.53-.19.72,0,.09.09.15.23.15.36s-.05.26-.15.36c-.09.09-.23.15-.36.15Z"/><path class="cls-12" d="m2.24,16.32c-.13,0-.26-.05-.36-.15-.09-.09-.15-.23-.15-.36s.05-.26.15-.36c.19-.19.53-.19.72,0,.09.09.15.23.15.36s-.05.26-.15.36c-.09.09-.23.15-.36.15Z"/><path class="cls-12" d="m2.44,17.78c-.13,0-.26-.05-.36-.15-.09-.09-.15-.23-.15-.36s.05-.26.15-.36c.19-.19.53-.19.72,0,.09.09.15.23.15.36s-.05.26-.15.36c-.09.09-.23.15-.36.15Z"/><path class="cls-12" d="m2.15,20.12c-.13,0-.26-.05-.36-.15-.09-.09-.15-.23-.15-.36s.05-.26.15-.36c.19-.19.53-.19.72,0,.09.09.15.23.15.36s-.05.26-.15.36c-.09.09-.23.15-.36.15Z"/><path class="cls-12" d="m2.53,21.29c-.13,0-.26-.05-.36-.15-.09-.09-.15-.23-.15-.36s.05-.26.15-.36c.19-.19.53-.19.72,0,.09.1.15.23.15.36s-.05.26-.15.36c-.09.09-.23.15-.36.15Z"/><path class="cls-12" d="m3.9,20.51c-.13,0-.26-.05-.36-.15-.09-.09-.15-.23-.15-.36s.05-.26.15-.36c.19-.19.53-.19.72,0,.09.09.15.23.15.36s-.05.26-.15.36c-.09.09-.23.15-.36.15Z"/><path class="cls-12" d="m3.22,18.95c-.13,0-.26-.05-.36-.15-.09-.09-.15-.23-.15-.36s.05-.26.15-.36c.19-.19.53-.19.72,0,.09.1.15.23.15.36s-.05.26-.15.36c-.09.09-.23.15-.36.15Z"/><path class="cls-12" d="m4.77,19.15c-.13,0-.26-.05-.36-.15-.09-.09-.15-.23-.15-.36s.05-.26.15-.36c.19-.19.53-.19.72,0,.1.1.15.23.15.36s-.05.26-.15.36c-.09.09-.23.15-.36.15Z"/><path class="cls-12" d="m5.75,20.31c-.13,0-.26-.05-.36-.15-.09-.09-.15-.23-.15-.36s.05-.26.15-.36c.19-.19.53-.19.72,0,.09.1.15.23.15.36s-.05.26-.15.36c-.09.09-.23.15-.36.15Z"/><path class="cls-12" d="m6.91,20.7c-.13,0-.26-.05-.36-.15-.09-.09-.15-.23-.15-.36s.05-.26.15-.36c.19-.19.53-.19.72,0,.09.09.15.23.15.36s-.05.26-.15.36c-.09.09-.23.15-.36.15Z"/><path class="cls-12" d="m7.98,21.29c-.13,0-.26-.05-.36-.15-.09-.09-.15-.23-.15-.36s.05-.26.15-.36c.19-.19.53-.19.72,0,.09.09.15.23.15.36s-.05.26-.15.36c-.09.09-.23.15-.36.15Z"/><path class="cls-12" d="m5.94,18.66c-.13,0-.26-.05-.36-.15-.09-.09-.15-.23-.15-.36s.05-.26.15-.36c.19-.19.53-.19.72,0,.09.09.15.23.15.36s-.05.26-.15.36c-.09.09-.23.15-.36.15Z"/><path class="cls-12" d="m7.3,19.15c-.13,0-.26-.05-.36-.15-.09-.09-.15-.23-.15-.36s.05-.26.15-.36c.19-.19.53-.19.72,0,.09.09.15.23.15.36s-.05.26-.15.36c-.09.09-.23.15-.36.15Z"/><path class="cls-12" d="m8.57,19.54c-.13,0-.26-.05-.36-.15-.09-.09-.15-.23-.15-.36s.05-.26.15-.36c.19-.19.53-.19.72,0,.09.1.15.23.15.36s-.05.26-.15.36c-.09.09-.22.15-.36.15Z"/><path class="cls-12" d="m7.4,17.4c-.13,0-.26-.05-.36-.15-.09-.09-.15-.23-.15-.36s.05-.26.15-.36c.19-.19.53-.19.72,0,.09.09.15.23.15.36s-.05.26-.15.36c-.09.09-.23.15-.36.15Z"/><path class="cls-12" d="m8.96,17.78c-.13,0-.26-.05-.36-.15-.09-.09-.15-.23-.15-.36s.05-.26.15-.36c.19-.19.53-.19.72,0,.09.1.15.23.15.36s-.05.26-.15.36c-.09.09-.23.15-.36.15Z"/><path class="cls-12" d="m9.25,16.13c-.13,0-.26-.05-.36-.15-.09-.09-.15-.23-.15-.36s.05-.26.15-.36c.19-.19.53-.19.72,0,.09.09.15.23.15.36s-.05.26-.15.36c-.09.09-.23.15-.36.15Z"/><path class="cls-12" d="m10.22,17.3c-.13,0-.26-.05-.36-.15-.09-.09-.15-.23-.15-.36s.05-.26.15-.36c.19-.19.53-.19.72,0,.09.09.15.23.15.36s-.05.26-.15.36c-.09.09-.22.15-.36.15Z"/><path class="cls-12" d="m11.29,16.32c-.13,0-.26-.05-.36-.15-.09-.09-.15-.23-.15-.36s.05-.26.15-.36c.19-.19.53-.19.72,0,.09.1.15.23.15.36s-.05.26-.15.36c-.09.09-.23.15-.36.15Z"/><path class="cls-12" d="m9.83,18.85c-.13,0-.26-.05-.36-.15-.09-.09-.15-.23-.15-.36s.05-.26.15-.36c.19-.19.53-.19.72,0,.09.09.15.23.15.36s-.05.26-.15.36c-.09.09-.23.15-.36.15Z"/><path class="cls-12" d="m11.19,19.63c-.13,0-.26-.05-.36-.15-.09-.09-.15-.23-.15-.36s.05-.26.15-.36c.19-.19.53-.19.72,0,.09.09.15.23.15.36s-.05.26-.15.36c-.09.09-.23.15-.36.15Z"/><path class="cls-12" d="m11.19,21.19c-.13,0-.26-.05-.36-.15-.09-.09-.15-.23-.15-.36s.05-.26.15-.36c.19-.19.53-.19.72,0,.09.09.15.23.15.36s-.05.26-.15.36c-.09.09-.23.15-.36.15Z"/><path class="cls-12" d="m9.64,20.51c-.13,0-.26-.05-.36-.15-.09-.09-.15-.23-.15-.36s.05-.26.15-.36c.19-.19.53-.19.72,0,.09.1.15.23.15.36s-.05.26-.15.36c-.09.09-.22.15-.36.15Z"/><path class="cls-12" d="m12.56,20.02c-.13,0-.26-.05-.36-.15-.09-.09-.15-.23-.15-.36s.05-.26.15-.36c.19-.19.53-.19.72,0,.09.09.15.23.15.36s-.05.26-.15.36c-.09.09-.22.15-.36.15Z"/><path class="cls-12" d="m13.33,18.76c-.13,0-.26-.05-.36-.15-.09-.09-.15-.23-.15-.36s.05-.26.15-.36c.19-.19.53-.19.72,0,.1.1.15.23.15.36s-.05.26-.15.36c-.09.09-.23.15-.36.15Z"/><path class="cls-12" d="m12.85,17.2c-.13,0-.26-.05-.36-.15-.09-.09-.15-.23-.15-.36s.05-.26.15-.36c.19-.19.53-.19.72,0,.09.09.15.23.15.36s-.05.26-.15.36c-.09.09-.23.15-.36.15Z"/><path class="cls-12" d="m12.85,15.64c-.13,0-.26-.05-.36-.15-.09-.09-.15-.23-.15-.36s.05-.26.15-.36c.19-.19.53-.19.72,0,.09.09.15.23.15.36s-.05.26-.15.36c-.09.09-.23.15-.36.15Z"/><path class="cls-12" d="m11.58,14.96c-.13,0-.26-.05-.36-.15-.09-.09-.15-.23-.15-.36s.05-.26.15-.36c.19-.19.53-.19.72,0,.09.09.15.23.15.36s-.05.26-.15.36c-.09.09-.23.15-.36.15Z"/><path class="cls-12" d="m10.22,14.96c-.13,0-.26-.05-.36-.15-.09-.09-.15-.23-.15-.36s.05-.26.15-.36c.19-.19.53-.19.72,0,.09.09.15.23.15.36s-.05.26-.15.36c-.09.09-.22.15-.36.15Z"/><path class="cls-12" d="m12.75,13.6c-.13,0-.26-.05-.36-.15-.09-.09-.15-.23-.15-.36s.05-.26.15-.36c.19-.19.53-.19.72,0,.09.1.15.23.15.36s-.05.26-.15.36c-.09.09-.23.15-.36.15Z"/><path class="cls-12" d="m13.92,14.67c-.13,0-.26-.05-.36-.15-.09-.09-.15-.23-.15-.36s.05-.26.15-.36c.19-.19.53-.19.72,0,.09.09.15.23.15.36s-.05.26-.15.36c-.09.09-.23.15-.36.15Z"/><path class="cls-12" d="m15.09,14.87c-.13,0-.26-.05-.36-.15-.09-.09-.15-.23-.15-.36s.05-.26.15-.36c.19-.19.53-.19.72,0,.09.09.15.23.15.36s-.05.26-.15.36c-.09.09-.23.15-.36.15Z"/><path class="cls-12" d="m14.11,16.42c-.13,0-.26-.05-.36-.15-.09-.09-.15-.23-.15-.36s.05-.26.15-.36c.19-.19.53-.19.72,0,.09.09.15.23.15.36s-.05.26-.15.36c-.09.09-.23.15-.36.15Z"/><path class="cls-12" d="m14.5,17.88c-.13,0-.26-.05-.36-.15-.09-.09-.15-.23-.15-.36s.05-.26.15-.36c.19-.19.53-.19.72,0,.09.09.15.23.15.36s-.05.26-.15.36c-.09.09-.22.15-.36.15Z"/><path class="cls-12" d="m13.33,18.76c-.13,0-.26-.05-.36-.15-.09-.09-.15-.23-.15-.36s.05-.26.15-.36c.19-.19.53-.19.72,0,.1.1.15.23.15.36s-.05.26-.15.36c-.09.09-.23.15-.36.15Z"/><path class="cls-12" d="m14.6,19.34c-.13,0-.26-.05-.36-.15-.09-.09-.15-.23-.15-.36s.05-.26.15-.36c.19-.19.53-.19.72,0,.1.1.15.23.15.36s-.05.26-.15.36c-.09.09-.23.15-.36.15Z"/><path class="cls-12" d="m15.77,21c-.13,0-.26-.05-.36-.15-.09-.09-.15-.23-.15-.36s.05-.26.15-.36c.19-.19.53-.19.72,0,.09.09.15.23.15.36s-.05.26-.15.36c-.09.09-.23.15-.36.15Z"/><path class="cls-12" d="m13.82,20.61c-.13,0-.26-.05-.36-.15-.09-.09-.15-.23-.15-.36s.05-.26.15-.36c.19-.19.53-.19.72,0,.09.09.15.23.15.36s-.05.26-.15.36c-.09.09-.23.15-.36.15Z"/><path class="cls-12" d="m16.06,19.44c-.13,0-.26-.05-.36-.15-.09-.09-.15-.23-.15-.36s.05-.26.15-.36c.19-.19.53-.19.72,0,.09.09.15.23.15.36s-.05.26-.15.36c-.09.09-.22.15-.36.15Z"/><path class="cls-12" d="m15.96,17.69c-.13,0-.26-.05-.36-.15-.09-.09-.15-.23-.15-.36s.05-.26.15-.36c.19-.19.53-.19.72,0,.09.09.15.23.15.36s-.05.26-.15.36c-.09.09-.22.15-.36.15Z"/><path class="cls-12" d="m15.67,16.32c-.13,0-.26-.05-.36-.15-.09-.09-.15-.23-.15-.36s.05-.26.15-.36c.19-.19.53-.19.72,0,.1.1.15.23.15.36s-.05.26-.15.36c-.09.09-.23.15-.36.15Z"/><path class="cls-12" d="m13.92,14.67c-.13,0-.26-.05-.36-.15-.09-.09-.15-.23-.15-.36s.05-.26.15-.36c.19-.19.53-.19.72,0,.09.09.15.23.15.36s-.05.26-.15.36c-.09.09-.23.15-.36.15Z"/><path class="cls-12" d="m15.09,14.87c-.13,0-.26-.05-.36-.15-.09-.09-.15-.23-.15-.36s.05-.26.15-.36c.19-.19.53-.19.72,0,.09.09.15.23.15.36s-.05.26-.15.36c-.09.09-.23.15-.36.15Z"/><path class="cls-12" d="m14.21,13.41c-.13,0-.26-.05-.36-.15-.09-.09-.15-.23-.15-.36s.05-.26.15-.36c.19-.19.53-.19.72,0,.09.09.15.23.15.36s-.05.26-.15.36c-.09.09-.23.15-.36.15Z"/><path class="cls-12" d="m14.02,11.85c-.13,0-.26-.05-.36-.15-.09-.09-.15-.23-.15-.36s.05-.26.15-.36c.19-.19.53-.19.72,0,.09.09.15.23.15.36s-.05.26-.15.36c-.09.09-.22.15-.36.15Z"/><path class="cls-12" d="m15.48,11.95c-.13,0-.26-.05-.36-.15-.09-.09-.15-.23-.15-.36s.05-.26.15-.36c.19-.19.53-.19.72,0,.09.09.15.23.15.36s-.05.26-.15.36c-.09.09-.23.15-.36.15Z"/><path class="cls-12" d="m15.77,13.7c-.13,0-.26-.05-.36-.15-.09-.09-.15-.23-.15-.36s.05-.26.15-.36c.19-.19.53-.19.72,0,.09.09.15.23.15.36s-.05.26-.15.36c-.09.09-.23.15-.36.15Z"/><path class="cls-12" d="m16.64,14.96c-.13,0-.26-.05-.36-.15-.09-.09-.15-.23-.15-.36s.05-.26.15-.36c.19-.19.53-.19.72,0,.09.09.15.23.15.36s-.05.26-.15.36c-.09.09-.23.15-.36.15Z"/><path class="cls-12" d="m17.81,15.94c-.13,0-.26-.05-.36-.15-.09-.09-.15-.23-.15-.36s.05-.26.15-.36c.19-.19.53-.19.72,0,.09.09.15.23.15.36s-.05.26-.15.36c-.09.09-.23.15-.36.15Z"/><path class="cls-12" d="m17.62,17.4c-.13,0-.26-.05-.36-.15-.09-.09-.15-.23-.15-.36s.05-.26.15-.36c.19-.19.53-.19.72,0,.09.09.15.23.15.36s-.05.26-.15.36c-.09.09-.23.15-.36.15Z"/><path class="cls-12" d="m17.32,18.85c-.13,0-.26-.05-.36-.15-.09-.09-.15-.23-.15-.36s.05-.26.15-.36c.19-.19.53-.19.72,0,.09.09.15.23.15.36s-.05.26-.15.36c-.09.09-.23.15-.36.15Z"/><path class="cls-12" d="m18.1,20.22c-.13,0-.26-.05-.36-.15-.09-.09-.15-.23-.15-.36s.05-.26.15-.36c.19-.19.53-.19.72,0,.09.09.15.23.15.36s-.05.26-.15.36c-.09.09-.23.15-.36.15Z"/><path class="cls-12" d="m19.27,19.05c-.13,0-.26-.05-.36-.15-.09-.09-.15-.23-.15-.36s.05-.26.15-.36c.19-.19.53-.19.72,0,.09.09.15.23.15.36s-.05.26-.15.36c-.09.09-.23.15-.36.15Z"/><path class="cls-12" d="m19.27,20.8c-.13,0-.26-.05-.36-.15-.09-.09-.15-.23-.15-.36s.05-.26.15-.36c.19-.19.53-.19.72,0,.09.09.15.23.15.36s-.05.26-.15.36c-.09.09-.23.15-.36.15Z"/><path class="cls-12" d="m19.17,17.2c-.13,0-.26-.05-.36-.15-.09-.09-.15-.23-.15-.36s.05-.26.15-.36c.19-.19.53-.19.72,0,.09.09.15.23.15.36s-.05.26-.15.36c-.09.09-.23.15-.36.15Z"/><path class="cls-12" d="m19.66,16.03c-.13,0-.26-.05-.36-.15-.09-.09-.15-.23-.15-.36s.05-.26.15-.36c.19-.19.53-.19.72,0,.09.09.15.23.15.36s-.05.26-.15.36c-.09.09-.22.15-.36.15Z"/><path class="cls-12" d="m18.39,14.48c-.13,0-.26-.05-.36-.15-.09-.09-.15-.23-.15-.36s.05-.26.15-.36c.19-.19.53-.19.72,0,.09.09.15.23.15.36s-.05.26-.15.36c-.1.09-.22.15-.36.15Z"/><path class="cls-12" d="m17.71,13.5c-.13,0-.26-.05-.36-.15-.09-.09-.15-.23-.15-.36s.05-.26.15-.36c.19-.19.53-.19.72,0,.09.1.15.23.15.36s-.05.26-.15.36c-.09.09-.23.15-.36.15Z"/><path class="cls-12" d="m16.94,12.63c-.13,0-.26-.05-.36-.15-.09-.09-.15-.23-.15-.36s.05-.26.15-.36c.19-.19.53-.19.72,0,.09.09.15.23.15.36s-.05.26-.15.36c-.09.09-.22.15-.36.15Z"/><path class="cls-12" d="m18.2,11.85c-.13,0-.26-.05-.36-.15-.09-.09-.15-.23-.15-.36s.05-.26.15-.36c.19-.19.53-.19.72,0,.09.09.15.23.15.36s-.05.26-.15.36c-.09.09-.23.15-.36.15Z"/><path class="cls-12" d="m17.81,10.29c-.13,0-.26-.05-.36-.15-.09-.09-.15-.23-.15-.36s.05-.26.15-.36c.19-.19.53-.19.72,0,.09.09.15.23.15.36s-.05.26-.15.36c-.09.09-.23.15-.36.15Z"/><path class="cls-12" d="m19.66,11.36c-.13,0-.26-.05-.36-.15-.09-.09-.15-.23-.15-.36s.05-.26.15-.36c.19-.19.53-.19.72,0,.09.09.15.23.15.36s-.05.26-.15.36c-.09.09-.23.15-.36.15Z"/><path class="cls-12" d="m19.17,13.02c-.13,0-.26-.05-.36-.15-.09-.09-.15-.23-.15-.36s.05-.26.15-.36c.19-.19.53-.19.72,0,.09.09.15.23.15.36s-.05.26-.15.36c-.09.09-.23.15-.36.15Z"/><path class="cls-12" d="m19.95,14.28c-.13,0-.26-.05-.36-.15-.09-.09-.15-.23-.15-.36s.05-.26.15-.36c.19-.19.53-.19.72,0,.09.09.15.23.15.36s-.05.26-.15.36c-.09.09-.23.15-.36.15Z"/><path class="cls-12" d="m21.22,15.25c-.13,0-.26-.05-.36-.15-.09-.1-.15-.23-.15-.36s.05-.26.15-.36c.19-.19.53-.19.72,0,.09.09.15.23.15.36s-.05.26-.15.36c-.09.09-.23.15-.36.15Z"/><path class="cls-12" d="m21.12,16.81c-.13,0-.26-.05-.36-.15-.09-.1-.15-.23-.15-.36s.05-.26.15-.36c.19-.19.53-.19.72,0,.09.09.15.23.15.36s-.05.26-.15.36c-.09.09-.23.15-.36.15Z"/><path class="cls-12" d="m20.73,18.37c-.13,0-.26-.05-.36-.15-.09-.09-.15-.23-.15-.36s.05-.26.15-.36c.19-.19.53-.19.72,0,.09.1.15.23.15.36s-.05.26-.15.36c-.09.09-.23.15-.36.15Z"/><path class="cls-12" d="m22.19,18.08c-.13,0-.26-.05-.36-.15-.09-.09-.15-.23-.15-.36s.05-.26.15-.36c.19-.19.53-.19.72,0,.09.09.15.23.15.36s-.05.26-.15.36c-.09.09-.23.15-.36.15Z"/><path class="cls-12" d="m22.09,19.83c-.13,0-.26-.05-.36-.15-.09-.09-.15-.23-.15-.36s.05-.26.15-.36c.19-.19.53-.19.72,0,.09.09.15.23.15.36s-.05.26-.15.36c-.09.09-.23.15-.36.15Z"/><path class="cls-12" d="m23.16,21c-.13,0-.26-.05-.36-.15-.09-.09-.15-.23-.15-.36s.05-.26.15-.36c.19-.19.53-.19.72,0,.09.09.15.23.15.36s-.05.26-.15.36c-.09.09-.22.15-.36.15Z"/><path class="cls-12" d="m23.45,19.15c-.13,0-.26-.05-.36-.15-.09-.09-.15-.23-.15-.36s.05-.26.15-.36c.19-.19.53-.19.72,0,.09.09.15.23.15.36s-.05.26-.15.36c-.09.09-.23.15-.36.15Z"/><path class="cls-12" d="m23.45,17.69c-.13,0-.26-.05-.36-.15-.09-.09-.15-.23-.15-.36s.05-.26.15-.36c.19-.19.53-.19.72,0,.09.09.15.23.15.36s-.05.26-.15.36c-.09.09-.22.15-.36.15Z"/><path class="cls-12" d="m23.07,16.13c-.13,0-.26-.05-.36-.15-.09-.09-.15-.23-.15-.36s.05-.26.15-.36c.19-.19.53-.19.72,0,.09.09.15.23.15.36s-.05.26-.15.36c-.09.09-.23.15-.36.15Z"/><path class="cls-12" d="m11.68,18.08c-.13,0-.26-.05-.36-.15-.09-.09-.15-.23-.15-.36s.05-.26.15-.36c.19-.19.53-.19.72,0,.09.09.15.23.15.36s-.05.26-.15.36c-.09.09-.23.15-.36.15Z"/><path class="cls-12" d="m28.42,13.89c-.13,0-.26-.05-.36-.15-.09-.09-.15-.23-.15-.36s.05-.26.15-.36c.19-.19.53-.19.72,0,.09.09.15.23.15.36s-.05.26-.15.36c-.09.09-.23.15-.36.15Z"/><path class="cls-12" d="m28.81,12.24c-.13,0-.26-.05-.36-.15-.09-.09-.15-.23-.15-.36s.05-.26.15-.36c.19-.19.53-.19.72,0,.09.09.15.23.15.36s-.05.26-.15.36c-.09.09-.23.15-.36.15Z"/><path class="cls-12" d="m27.54,11.56c-.13,0-.26-.05-.36-.15-.09-.09-.15-.23-.15-.36s.05-.26.15-.36c.19-.19.53-.19.72,0,.09.09.15.23.15.36s-.05.26-.15.36c-.09.09-.23.15-.36.15Z"/><path class="cls-12" d="m27.64,15.16c-.13,0-.26-.05-.36-.15-.09-.09-.15-.23-.15-.36s.05-.26.15-.36c.19-.19.53-.19.72,0,.09.09.15.23.15.36s-.05.26-.15.36c-.09.09-.22.15-.36.15Z"/><path class="cls-12" d="m27.54,16.62c-.13,0-.26-.05-.36-.15-.09-.09-.15-.23-.15-.36s.05-.26.15-.36c.19-.19.53-.19.72,0,.09.09.15.23.15.36s-.05.26-.15.36c-.09.09-.23.15-.36.15Z"/><path class="cls-12" d="m28.9,16.13c-.13,0-.26-.05-.36-.15-.09-.09-.15-.23-.15-.36s.05-.26.15-.36c.19-.19.53-.19.72,0,.09.09.15.23.15.36s-.05.26-.15.36c-.09.09-.23.15-.36.15Z"/><path class="cls-12" d="m28.61,17.69c-.13,0-.26-.05-.36-.15-.09-.09-.15-.23-.15-.36s.05-.26.15-.36c.19-.19.53-.19.72,0,.09.09.15.23.15.36s-.05.26-.15.36c-.09.09-.23.15-.36.15Z"/><path class="cls-12" d="m28.32,20.61c-.13,0-.26-.05-.36-.15-.09-.09-.15-.23-.15-.36s.05-.26.15-.36c.19-.19.53-.19.72,0,.09.09.15.23.15.36s-.05.26-.15.36c-.09.09-.23.15-.36.15Z"/><path class="cls-12" d="m27.93,19.24c-.13,0-.26-.05-.36-.15-.09-.09-.15-.23-.15-.36s.05-.26.15-.36c.19-.19.53-.19.72,0,.09.09.15.23.15.36s-.05.26-.15.36c-.09.09-.23.15-.36.15Z"/><path class="cls-12" d="m26.96,13.02c-.13,0-.26-.05-.36-.15-.09-.09-.15-.23-.15-.36s.05-.26.15-.36c.19-.19.53-.19.72,0,.09.09.15.23.15.36s-.05.26-.15.36c-.09.09-.23.15-.36.15Z"/><path class="cls-12" d="m25.59,13.11c-.13,0-.26-.05-.36-.15-.09-.09-.15-.23-.15-.36s.05-.26.15-.36c.19-.19.53-.19.72,0,.09.09.15.23.15.36s-.05.26-.15.36c-.09.09-.22.15-.36.15Z"/><path class="cls-12" d="m25.98,11.27c-.13,0-.26-.05-.36-.15-.09-.09-.15-.23-.15-.36s.05-.26.15-.36c.19-.19.53-.19.72,0,.09.09.15.23.15.36s-.05.26-.15.36c-.09.09-.23.15-.36.15Z"/><path class="cls-12" d="m24.62,11.85c-.13,0-.26-.05-.36-.15-.09-.09-.15-.23-.15-.36s.05-.26.15-.36c.19-.19.53-.19.72,0,.09.09.15.23.15.36s-.05.26-.15.36c-.09.09-.22.15-.36.15Z"/><path class="cls-12" d="m23.16,11.46c-.13,0-.26-.05-.36-.15-.09-.09-.15-.23-.15-.36s.05-.26.15-.36c.19-.19.53-.19.72,0,.09.09.15.23.15.36s-.05.26-.15.36c-.09.09-.23.15-.36.15Z"/><path class="cls-12" d="m21.8,12.14c-.13,0-.26-.05-.36-.15-.09-.09-.15-.23-.15-.36s.05-.26.15-.36c.19-.19.53-.19.72,0,.09.09.15.23.15.36s-.05.26-.15.36c-.09.09-.22.15-.36.15Z"/><path class="cls-12" d="m20.63,12.53c-.13,0-.26-.05-.36-.15-.09-.09-.15-.23-.15-.36s.05-.26.15-.36c.19-.19.53-.19.72,0,.09.09.15.23.15.36s-.05.26-.15.36c-.09.09-.23.15-.36.15Z"/><path class="cls-12" d="m21.51,13.99c-.13,0-.26-.05-.36-.15-.09-.09-.15-.23-.15-.36s.05-.26.15-.36c.19-.19.53-.19.72,0,.09.09.15.23.15.36s-.05.26-.15.36c-.09.09-.23.15-.36.15Z"/><path class="cls-12" d="m23.16,13.02c-.13,0-.26-.05-.36-.15-.09-.09-.15-.23-.15-.36s.05-.26.15-.36c.19-.19.53-.19.72,0,.09.09.15.23.15.36s-.05.26-.15.36c-.09.09-.23.15-.36.15Z"/><path class="cls-12" d="m24.33,14.18c-.13,0-.26-.05-.36-.15-.09-.09-.15-.23-.15-.36s.05-.26.15-.36c.19-.19.53-.19.72,0,.09.09.15.23.15.36s-.05.26-.15.36c-.09.09-.23.15-.36.15Z"/><path class="cls-12" d="m22.87,14.77c-.13,0-.26-.05-.36-.15-.09-.09-.15-.23-.15-.36s.05-.26.15-.36c.19-.19.53-.19.72,0,.09.09.15.23.15.36s-.05.26-.15.36c-.09.09-.22.15-.36.15Z"/><path class="cls-12" d="m24.43,15.84c-.13,0-.26-.05-.36-.15-.09-.09-.15-.23-.15-.36s.05-.26.15-.36c.19-.19.53-.19.72,0,.09.09.15.23.15.36s-.05.26-.15.36c-.09.09-.23.15-.36.15Z"/><path class="cls-12" d="m26.18,14.48c-.13,0-.26-.05-.35-.15-.1-.09-.15-.23-.15-.36s.05-.26.15-.36c.19-.19.53-.19.72,0,.09.09.15.23.15.36s-.05.26-.15.36c-.09.09-.23.15-.36.15Z"/><path class="cls-12" d="m26.08,15.74c-.13,0-.26-.05-.36-.15-.09-.09-.15-.23-.15-.36s.05-.26.15-.36c.19-.19.53-.19.72,0,.09.09.15.23.15.36s-.05.26-.15.36c-.09.09-.23.15-.36.15Z"/><path class="cls-12" d="m25.01,17.4c-.13,0-.26-.05-.36-.15-.09-.09-.15-.23-.15-.36s.05-.26.15-.36c.19-.19.53-.19.72,0,.09.09.15.23.15.36s-.05.26-.15.36c-.09.09-.22.15-.36.15Z"/><path class="cls-12" d="m25.5,18.95c-.13,0-.26-.05-.36-.15-.09-.09-.15-.23-.15-.36s.05-.26.15-.36c.19-.19.53-.19.72,0,.09.09.15.23.15.36s-.05.26-.15.36c-.09.09-.22.15-.36.15Z"/><path class="cls-12" d="m23.45,19.15c-.13,0-.26-.05-.36-.15-.09-.09-.15-.23-.15-.36s.05-.26.15-.36c.19-.19.53-.19.72,0,.09.09.15.23.15.36s-.05.26-.15.36c-.09.09-.23.15-.36.15Z"/><path class="cls-12" d="m24.52,20.02c-.13,0-.26-.05-.36-.15-.09-.1-.15-.23-.15-.36s.05-.26.15-.36c.19-.19.53-.19.72,0,.09.09.15.23.15.36s-.05.26-.15.36c-.09.09-.23.15-.36.15Z"/><path class="cls-12" d="m26.67,20.12c-.13,0-.26-.05-.36-.15-.09-.09-.15-.23-.15-.36s.05-.26.15-.36c.19-.19.53-.19.72,0,.09.09.15.23.15.36s-.05.26-.15.36c-.09.09-.22.15-.36.15Z"/><path class="cls-12" d="m26.57,17.88c-.13,0-.26-.05-.36-.15-.09-.09-.15-.23-.15-.36s.05-.26.15-.36c.19-.19.53-.19.72,0,.09.09.15.23.15.36s-.05.26-.15.36c-.09.09-.23.15-.36.15Z"/><path class="cls-12" d="m20.54,20.02c-.13,0-.26-.05-.36-.15-.09-.09-.15-.23-.15-.36s.05-.26.15-.36c.19-.19.53-.19.72,0,.09.1.15.23.15.36s-.05.26-.15.36c-.09.09-.23.15-.36.15Z"/><path class="cls-12" d="m25.11,21.48c-.13,0-.26-.05-.36-.15-.09-.09-.15-.23-.15-.36s.05-.26.15-.36c.19-.19.53-.19.72,0,.09.09.15.23.15.36s-.05.26-.15.36c-.09.09-.23.15-.36.15Z"/><path class="cls-12" d="m3.7,23.82c-.13,0-.26-.05-.36-.15-.09-.09-.15-.23-.15-.36s.05-.26.15-.36c.19-.19.53-.19.72,0,.09.1.15.23.15.36s-.05.26-.15.36c-.09.09-.23.15-.36.15Z"/><path class="cls-12" d="m4.09,22.07c-.13,0-.26-.05-.36-.15-.09-.09-.15-.23-.15-.36s.05-.26.15-.36c.19-.19.53-.19.72,0,.09.09.15.23.15.36s-.05.26-.15.36c-.09.09-.23.15-.36.15Z"/><path class="cls-12" d="m5.36,21.58c-.13,0-.26-.05-.36-.15-.09-.09-.15-.23-.15-.36s.05-.26.15-.36c.19-.19.53-.19.72,0,.09.09.15.23.15.36s-.05.26-.15.36c-.09.09-.23.15-.36.15Z"/><path class="cls-12" d="m4.97,23.14c-.13,0-.26-.05-.36-.15-.09-.09-.15-.23-.15-.36s.05-.26.15-.36c.19-.19.53-.19.72,0,.09.09.15.23.15.36s-.05.26-.15.36c-.09.09-.23.15-.36.15Z"/><path class="cls-12" d="m6.33,23.91c-.13,0-.26-.05-.36-.15-.09-.09-.15-.23-.15-.36s.05-.26.15-.36c.19-.19.53-.19.72,0,.09.09.15.23.15.36s-.05.26-.15.36c-.09.09-.23.15-.36.15Z"/><path class="cls-12" d="m6.33,25.47c-.13,0-.26-.05-.36-.15-.09-.09-.15-.23-.15-.36s.05-.26.15-.36c.19-.19.53-.19.72,0,.09.09.15.23.15.36s-.05.26-.15.36c-.09.09-.23.15-.36.15Z"/><path class="cls-12" d="m4.77,24.79c-.13,0-.26-.05-.36-.15-.09-.09-.15-.23-.15-.36s.05-.26.15-.36c.19-.19.53-.19.72,0,.1.09.15.23.15.36s-.05.26-.15.36c-.09.09-.23.15-.36.15Z"/><path class="cls-12" d="m7.69,24.3c-.13,0-.26-.05-.36-.15-.09-.09-.15-.23-.15-.36s.05-.26.15-.36c.19-.19.53-.19.72,0,.09.09.15.23.15.36s-.05.26-.15.36c-.09.09-.22.15-.36.15Z"/><path class="cls-12" d="m7.79,25.47c-.13,0-.26-.05-.36-.15-.09-.09-.15-.23-.15-.36s.05-.26.15-.36c.19-.19.53-.19.72,0,.09.1.15.23.15.36s-.05.26-.15.36c-.09.09-.22.15-.36.15Z"/><path class="cls-12" d="m8.47,23.04c-.13,0-.26-.05-.36-.15-.09-.09-.15-.23-.15-.36s.05-.26.15-.36c.19-.19.53-.19.72,0,.09.09.15.23.15.36s-.05.26-.15.36c-.09.09-.23.15-.36.15Z"/><path class="cls-12" d="m9.64,22.16c-.13,0-.26-.05-.36-.15-.09-.09-.15-.23-.15-.36s.05-.26.15-.36c.19-.19.53-.19.72,0,.09.09.15.23.15.36s-.05.26-.15.36c-.09.09-.23.15-.36.15Z"/><path class="cls-12" d="m8.47,23.04c-.13,0-.26-.05-.36-.15-.09-.09-.15-.23-.15-.36s.05-.26.15-.36c.19-.19.53-.19.72,0,.09.09.15.23.15.36s-.05.26-.15.36c-.09.09-.23.15-.36.15Z"/><path class="cls-12" d="m9.73,23.62c-.13,0-.26-.05-.36-.15-.09-.09-.15-.23-.15-.36s.05-.26.15-.36c.19-.19.53-.19.72,0,.09.09.15.23.15.36s-.05.26-.15.36c-.09.09-.23.15-.36.15Z"/><path class="cls-12" d="m10.9,25.28c-.13,0-.26-.05-.36-.15-.09-.09-.15-.23-.15-.36s.05-.26.15-.36c.19-.19.53-.19.72,0,.1.1.15.23.15.36s-.05.26-.15.36c-.09.09-.23.15-.36.15Z"/><path class="cls-12" d="m8.96,24.89c-.13,0-.26-.05-.36-.15-.09-.09-.15-.23-.15-.36s.05-.26.15-.36c.19-.19.53-.19.72,0,.09.09.15.23.15.36s-.05.26-.15.36c-.09.09-.22.15-.36.15Z"/><path class="cls-12" d="m11.19,24.11c-.13,0-.26-.05-.36-.15-.09-.09-.15-.23-.15-.36s.05-.26.15-.36c.19-.19.53-.19.72,0,.09.09.15.23.15.36s-.05.26-.15.36c-.09.09-.22.15-.36.15Z"/><path class="cls-12" d="m11.1,22.36c-.13,0-.26-.05-.36-.15-.09-.09-.15-.23-.15-.36s.05-.26.15-.36c.19-.19.53-.19.72,0,.09.09.15.23.15.36s-.05.26-.15.36c-.09.09-.23.15-.36.15Z"/><path class="cls-12" d="m12.75,21.68c-.13,0-.26-.05-.36-.15-.09-.09-.15-.23-.15-.36s.05-.26.15-.36c.19-.19.53-.19.72,0,.09.1.15.23.15.36s-.05.26-.15.36c-.09.09-.22.15-.36.15Z"/><path class="cls-12" d="m12.46,22.84c-.13,0-.26-.05-.36-.15-.09-.09-.15-.23-.15-.36s.05-.26.15-.36c.19-.19.53-.19.72,0,.09.09.15.23.15.36s-.05.26-.15.36c-.09.09-.22.15-.36.15Z"/><path class="cls-12" d="m12.95,24.3c-.13,0-.26-.05-.36-.15-.09-.09-.15-.23-.15-.36s.05-.26.15-.36c.19-.19.53-.19.72,0,.09.1.15.23.15.36s-.05.26-.15.36c-.09.09-.23.15-.36.15Z"/><path class="cls-12" d="m14.41,23.33c-.13,0-.26-.05-.36-.15-.09-.09-.15-.23-.15-.36s.05-.26.15-.36c.19-.19.53-.19.72,0,.09.09.15.23.15.36s-.05.26-.15.36c-.09.09-.23.15-.36.15Z"/><path class="cls-12" d="m14.31,25.47c-.13,0-.26-.05-.36-.15-.09-.09-.15-.23-.15-.36s.05-.26.15-.36c.19-.19.53-.19.72,0,.09.09.15.23.15.36s-.05.26-.15.36c-.09.09-.23.15-.36.15Z"/><path class="cls-12" d="m14.5,21.97c-.13,0-.26-.05-.36-.15-.09-.09-.15-.23-.15-.36s.05-.26.15-.36c.19-.19.53-.19.72,0,.09.09.15.23.15.36s-.05.26-.15.36c-.09.09-.23.15-.36.15Z"/><path class="cls-12" d="m15.86,22.65c-.13,0-.26-.05-.36-.15-.09-.09-.15-.23-.15-.36s.05-.26.15-.36c.19-.19.53-.19.72,0,.09.09.15.23.15.36s-.05.26-.15.36c-.09.09-.23.15-.36.15Z"/><path class="cls-12" d="m6.82,22.36c-.13,0-.26-.05-.36-.15-.09-.09-.15-.23-.15-.36s.05-.26.15-.36c.19-.19.53-.19.72,0,.09.1.15.23.15.36s-.05.26-.15.36c-.09.09-.23.15-.36.15Z"/><path class="cls-12" d="m15.48,24.21c-.13,0-.26-.05-.36-.15-.09-.09-.15-.23-.15-.36s.05-.26.15-.36c.19-.19.53-.19.72,0,.1.09.15.23.15.36s-.05.26-.15.36c-.09.09-.23.15-.36.15Z"/><path class="cls-12" d="m2.44,26.35c-.13,0-.26-.05-.36-.15-.09-.09-.15-.23-.15-.36s.05-.26.15-.36c.19-.19.53-.19.72,0,.09.09.15.23.15.36s-.05.26-.15.36c-.09.09-.23.15-.36.15Z"/><path class="cls-12" d="m2.05,27.9c-.13,0-.26-.05-.36-.15-.09-.09-.15-.23-.15-.36s.05-.26.15-.36c.19-.19.53-.19.72,0,.09.09.15.23.15.36s-.05.26-.15.36c-.09.09-.23.15-.36.15Z"/><path class="cls-12" d="m5.55,27.81c-.13,0-.26-.05-.36-.15-.09-.09-.15-.23-.15-.36s.05-.26.15-.36c.19-.19.53-.19.72,0,.09.1.15.23.15.36s-.05.26-.15.36c-.09.09-.23.15-.36.15Z"/><path class="cls-12" d="m5.06,26.25c-.13,0-.26-.05-.36-.15-.09-.09-.15-.23-.15-.36s.05-.26.15-.36c.19-.19.53-.19.72,0,.09.09.15.23.15.36s-.05.26-.15.36c-.09.09-.23.15-.36.15Z"/><path class="cls-12" d="m6.72,26.93c-.13,0-.26-.05-.36-.15-.09-.09-.15-.23-.15-.36s.05-.26.15-.36c.19-.19.53-.19.72,0,.09.1.15.23.15.36s-.05.26-.15.36c-.09.09-.22.15-.36.15Z"/><path class="cls-12" d="m5.55,27.81c-.13,0-.26-.05-.36-.15-.09-.09-.15-.23-.15-.36s.05-.26.15-.36c.19-.19.53-.19.72,0,.09.1.15.23.15.36s-.05.26-.15.36c-.09.09-.23.15-.36.15Z"/><path class="cls-12" d="m8.18,26.74c-.13,0-.26-.05-.36-.15-.09-.09-.15-.23-.15-.36s.05-.26.15-.36c.19-.19.53-.19.72,0,.09.09.15.23.15.36s-.05.26-.15.36c-.09.09-.23.15-.36.15Z"/><path class="cls-12" d="m9.83,26.44c-.13,0-.26-.05-.36-.15-.09-.09-.15-.23-.15-.36s.05-.26.15-.36c.19-.19.53-.19.72,0,.09.1.15.23.15.36s-.05.26-.15.36c-.09.09-.23.15-.36.15Z"/><path class="cls-12" d="m9.54,27.61c-.13,0-.26-.05-.36-.15-.09-.09-.15-.23-.15-.36s.05-.26.15-.36c.19-.19.53-.19.72,0,.09.1.15.23.15.36s-.05.26-.15.36c-.09.09-.22.15-.36.15Z"/><path class="cls-12" d="m11.49,28.1c-.13,0-.26-.05-.36-.15-.09-.09-.15-.23-.15-.36s.05-.26.15-.36c.19-.19.53-.19.72,0,.09.09.15.23.15.36s-.05.26-.15.36c-.09.09-.23.15-.36.15Z"/><path class="cls-12" d="m11.58,26.74c-.13,0-.26-.05-.36-.15-.09-.09-.15-.23-.15-.36s.05-.26.15-.36c.19-.19.53-.19.72,0,.09.09.15.23.15.36s-.05.26-.15.36c-.09.09-.23.15-.36.15Z"/><path class="cls-12" d="m13.14,27.71c-.13,0-.26-.05-.36-.15-.09-.09-.15-.23-.15-.36s.05-.26.15-.36c.19-.19.53-.19.72,0,.09.09.15.23.15.36s-.05.26-.15.36c-.09.09-.23.15-.36.15Z"/><path class="cls-12" d="m14.41,27.13c-.13,0-.26-.05-.36-.15-.09-.09-.15-.23-.15-.36s.05-.26.15-.36c.19-.19.53-.19.72,0,.09.09.15.23.15.36s-.05.26-.15.36c-.09.09-.23.15-.36.15Z"/><path class="cls-12" d="m3.9,27.13c-.13,0-.26-.05-.36-.15-.09-.09-.15-.23-.15-.36s.05-.26.15-.36c.19-.19.53-.19.72,0,.09.09.15.23.15.36s-.05.26-.15.36c-.09.09-.23.15-.36.15Z"/><path class="cls-12" d="m17.23,21.29c-.13,0-.26-.05-.36-.15-.09-.09-.15-.23-.15-.36s.05-.26.15-.36c.19-.19.53-.19.72,0,.09.09.15.23.15.36s-.05.26-.15.36c-.09.09-.23.15-.36.15Z"/><path class="cls-12" d="m18.2,23.72c-.13,0-.26-.05-.36-.15-.09-.09-.15-.23-.15-.36s.05-.26.15-.36c.19-.19.53-.19.72,0,.09.09.15.23.15.36s-.05.26-.15.36c-.09.09-.23.15-.36.15Z"/><path class="cls-12" d="m18.39,22.16c-.13,0-.26-.05-.36-.15-.09-.09-.15-.23-.15-.36s.05-.26.15-.36c.19-.19.53-.19.72,0,.09.09.15.23.15.36s-.05.26-.15.36c-.09.09-.23.15-.36.15Z"/><path class="cls-12" d="m20.24,21.77c-.13,0-.26-.05-.36-.15-.09-.09-.15-.23-.15-.36s.05-.26.15-.36c.19-.19.53-.19.72,0,.09.09.15.23.15.36s-.05.26-.15.36c-.09.09-.22.15-.36.15Z"/><path class="cls-12" d="m20.54,23.62c-.13,0-.26-.05-.36-.15-.09-.09-.15-.23-.15-.36s.05-.26.15-.36c.19-.19.53-.19.72,0,.09.09.15.23.15.36s-.05.26-.15.36c-.09.09-.23.15-.36.15Z"/><path class="cls-12" d="m19.37,24.69c-.13,0-.26-.05-.36-.15-.09-.09-.15-.23-.15-.36s.05-.26.15-.36c.19-.19.53-.19.72,0,.09.09.15.23.15.36s-.05.26-.15.36c-.09.09-.23.15-.36.15Z"/><path class="cls-12" d="m18.1,25.37c-.13,0-.26-.05-.36-.15-.09-.09-.15-.23-.15-.36s.05-.26.15-.36c.19-.19.53-.19.72,0,.09.09.15.23.15.36s-.05.26-.15.36c-.09.09-.23.15-.36.15Z"/><path class="cls-12" d="m18.2,23.72c-.13,0-.26-.05-.36-.15-.09-.09-.15-.23-.15-.36s.05-.26.15-.36c.19-.19.53-.19.72,0,.09.09.15.23.15.36s-.05.26-.15.36c-.09.09-.23.15-.36.15Z"/><path class="cls-12" d="m17.32,26.64c-.13,0-.26-.05-.36-.15-.09-.09-.15-.23-.15-.36s.05-.26.15-.36c.19-.19.53-.19.72,0,.09.09.15.23.15.36s-.05.26-.15.36c-.09.09-.23.15-.36.15Z"/><path class="cls-12" d="m19.17,26.54c-.13,0-.26-.05-.36-.15-.09-.09-.15-.23-.15-.36s.05-.26.15-.36c.19-.19.53-.19.72,0,.09.09.15.23.15.36s-.05.26-.15.36c-.09.09-.23.15-.36.15Z"/><path class="cls-12" d="m20.54,27.03c-.13,0-.26-.05-.36-.15-.09-.09-.15-.23-.15-.36s.05-.26.15-.36c.19-.19.53-.19.72,0,.09.1.15.23.15.36s-.05.26-.15.36c-.09.09-.23.15-.36.15Z"/><path class="cls-12" d="m20.63,25.28c-.13,0-.26-.05-.36-.15-.09-.09-.15-.23-.15-.36s.05-.26.15-.36c.19-.19.53-.19.72,0,.09.09.15.23.15.36s-.05.26-.15.36c-.09.09-.23.15-.36.15Z"/><path class="cls-12" d="m2.34,24.69c-.13,0-.26-.05-.36-.15-.09-.09-.15-.23-.15-.36s.05-.26.15-.36c.19-.19.53-.19.72,0,.09.1.15.23.15.36s-.05.26-.15.36c-.09.09-.23.15-.36.15Z"/><path class="cls-12" d="m2.53,22.84c-.13,0-.26-.05-.36-.15-.09-.09-.15-.23-.15-.36s.05-.26.15-.36c.19-.19.53-.19.72,0,.09.09.15.23.15.36s-.05.26-.15.36c-.09.09-.23.15-.36.15Z"/><path class="cls-12" d="m28.32,27.81c-.13,0-.26-.05-.36-.15-.09-.09-.15-.23-.15-.36s.05-.26.15-.36c.19-.19.53-.19.72,0,.09.09.15.23.15.36s-.05.26-.15.36c-.09.09-.23.15-.36.15Z"/><path class="cls-12" d="m27.05,27.22c-.13,0-.26-.05-.36-.15-.09-.09-.15-.23-.15-.36s.05-.26.15-.36c.19-.19.53-.19.72,0,.09.09.15.23.15.36s-.05.26-.15.36c-.09.09-.22.15-.36.15Z"/><path class="cls-12" d="m29.39,26.83c-.13,0-.26-.05-.36-.15-.09-.09-.15-.23-.15-.36s.05-.26.15-.36c.19-.19.53-.19.72,0,.09.09.15.23.15.36s-.05.26-.15.36c-.09.09-.23.15-.36.15Z"/><path class="cls-12" d="m28.12,21.87c-.13,0-.26-.05-.36-.15-.09-.09-.15-.23-.15-.36s.05-.26.15-.36c.19-.19.53-.19.72,0,.09.09.15.23.15.36s-.05.26-.15.36c-.09.09-.23.15-.36.15Z"/><path class="cls-12" d="m28.03,23.91c-.13,0-.26-.05-.36-.15-.09-.09-.15-.23-.15-.36s.05-.26.15-.36c.19-.19.53-.19.72,0,.09.09.15.23.15.36s-.05.26-.15.36c-.09.09-.23.15-.36.15Z"/><path class="cls-12" d="m28.12,21.87c-.13,0-.26-.05-.36-.15-.09-.09-.15-.23-.15-.36s.05-.26.15-.36c.19-.19.53-.19.72,0,.09.09.15.23.15.36s-.05.26-.15.36c-.09.09-.23.15-.36.15Z"/><path class="cls-12" d="m28.71,25.37c-.13,0-.26-.05-.36-.15-.09-.09-.15-.23-.15-.36s.05-.26.15-.36c.19-.19.53-.19.72,0,.09.09.15.23.15.36s-.05.26-.15.36c-.09.09-.23.15-.36.15Z"/><path class="cls-12" d="m16.35,25.57c-.13,0-.26-.05-.36-.15-.09-.09-.15-.23-.15-.36s.05-.26.15-.36c.19-.19.53-.19.72,0,.09.09.15.23.15.36s-.05.26-.15.36c-.09.09-.22.15-.36.15Z"/><path class="cls-12" d="m15.77,26.74c-.13,0-.26-.05-.36-.15-.09-.09-.15-.23-.15-.36s.05-.26.15-.36c.19-.19.53-.19.72,0,.09.09.15.23.15.36s-.05.26-.15.36c-.09.09-.22.15-.36.15Z"/><path class="cls-12" d="m21.7,24.5c-.13,0-.26-.05-.36-.15-.09-.09-.15-.23-.15-.36s.05-.26.15-.36c.19-.19.53-.19.72,0,.09.1.15.23.15.36s-.05.26-.15.36c-.09.09-.22.15-.36.15Z"/><path class="cls-12" d="m22.87,24.69c-.13,0-.26-.05-.36-.15-.09-.09-.15-.23-.15-.36s.05-.26.15-.36c.19-.19.53-.19.72,0,.09.09.15.23.15.36s-.05.26-.15.36c-.09.09-.23.15-.36.15Z"/><path class="cls-12" d="m21.9,26.25c-.13,0-.26-.05-.36-.15-.09-.09-.15-.23-.15-.36s.05-.26.15-.36c.19-.19.53-.19.72,0,.09.09.15.23.15.36s-.05.26-.15.36c-.09.09-.23.15-.36.15Z"/><path class="cls-12" d="m23.45,26.15c-.13,0-.26-.05-.36-.15-.09-.09-.15-.23-.15-.36s.05-.26.15-.36c.19-.19.53-.19.72,0,.09.09.15.23.15.36s-.05.26-.15.36c-.09.09-.23.15-.36.15Z"/><path class="cls-12" d="m21.7,24.5c-.13,0-.26-.05-.36-.15-.09-.09-.15-.23-.15-.36s.05-.26.15-.36c.19-.19.53-.19.72,0,.09.1.15.23.15.36s-.05.26-.15.36c-.09.09-.22.15-.36.15Z"/><path class="cls-12" d="m22.87,24.69c-.13,0-.26-.05-.36-.15-.09-.09-.15-.23-.15-.36s.05-.26.15-.36c.19-.19.53-.19.72,0,.09.09.15.23.15.36s-.05.26-.15.36c-.09.09-.23.15-.36.15Z"/><path class="cls-12" d="m21.99,22.94c-.13,0-.26-.05-.36-.15-.09-.09-.15-.23-.15-.36s.05-.26.15-.36c.19-.19.53-.19.72,0,.09.09.15.23.15.36s-.05.26-.15.36c-.09.09-.22.15-.36.15Z"/><path class="cls-12" d="m23.55,23.53c-.13,0-.26-.05-.36-.15-.09-.09-.15-.23-.15-.36s.05-.26.15-.36c.19-.19.53-.19.72,0,.09.09.15.23.15.36s-.05.26-.15.36c-.09.09-.23.15-.36.15Z"/><path class="cls-12" d="m24.43,24.79c-.13,0-.26-.05-.36-.15-.09-.09-.15-.23-.15-.36s.05-.26.15-.36c.19-.19.53-.19.72,0,.09.09.15.23.15.36s-.05.26-.15.36c-.09.09-.23.15-.36.15Z"/><path class="cls-12" d="m25.21,25.67c-.13,0-.26-.05-.36-.15-.09-.09-.15-.23-.15-.36s.05-.26.15-.36c.19-.19.53-.19.72,0,.09.09.15.23.15.36s-.05.26-.15.36c-.09.09-.22.15-.36.15Z"/><path class="cls-12" d="m25.4,27.22c-.13,0-.26-.05-.36-.15-.09-.09-.15-.23-.15-.36s.05-.26.15-.36c.19-.19.53-.19.72,0,.09.09.15.23.15.36s-.05.26-.15.36c-.09.09-.23.15-.36.15Z"/><path class="cls-12" d="m26.18,24.3c-.13,0-.26-.05-.36-.15-.09-.09-.15-.23-.15-.36s.05-.26.15-.36c.19-.19.53-.19.72,0,.09.09.15.23.15.36s-.05.26-.15.36c-.09.09-.22.15-.36.15Z"/><path class="cls-12" d="m25.5,23.33c-.13,0-.26-.05-.36-.15-.09-.1-.15-.23-.15-.36s.05-.26.15-.36c.19-.19.53-.19.72,0,.09.09.15.23.15.36s-.05.26-.15.36c-.09.09-.23.15-.36.15Z"/><path class="cls-12" d="m23.84,22.16c-.13,0-.26-.05-.36-.15-.09-.09-.15-.23-.15-.36s.05-.26.15-.36c.19-.19.53-.19.72,0,.09.09.15.23.15.36s-.05.26-.15.36c-.09.09-.23.15-.36.15Z"/><path class="cls-12" d="m26.96,22.84c-.13,0-.26-.05-.36-.15-.09-.09-.15-.23-.15-.36s.05-.26.15-.36c.19-.19.53-.19.72,0,.09.09.15.23.15.36s-.05.26-.15.36c-.09.09-.23.15-.36.15Z"/><path class="cls-12" d="m27.05,25.67c-.13,0-.26-.05-.36-.15-.09-.09-.15-.23-.15-.36s.05-.26.15-.36c.19-.19.53-.19.72,0,.09.09.15.23.15.36s-.05.26-.15.36c-.09.09-.22.15-.36.15Z"/><path class="cls-12" d="m21.9,21.58c-.13,0-.26-.05-.36-.15-.09-.09-.15-.23-.15-.36s.05-.26.15-.36c.19-.19.53-.19.72,0,.09.09.15.23.15.36s-.05.26-.15.36c-.09.09-.23.15-.36.15Z"/><path class="cls-12" d="m23.75,27.51c-.13,0-.26-.05-.36-.15-.09-.09-.15-.23-.15-.36s.05-.26.15-.36c.19-.19.53-.19.72,0,.09.09.15.23.15.36s-.05.26-.15.36c-.09.09-.22.15-.36.15Z"/><path class="cls-12" d="m26.08,28.29c-.13,0-.26-.05-.36-.15-.09-.09-.15-.23-.15-.36s.05-.26.15-.36c.19-.19.53-.19.72,0,.09.09.15.23.15.36s-.05.26-.15.36c-.09.09-.23.15-.36.15Z"/><path class="cls-12" d="m26.47,21.48c-.13,0-.26-.05-.36-.15-.09-.09-.15-.23-.15-.36s.05-.26.15-.36c.19-.19.53-.19.72,0,.09.09.15.23.15.36s-.05.26-.15.36c-.09.09-.23.15-.36.15Z"/><path class="cls-12" d="m4.77,11.17c-.13,0-.26-.05-.36-.15-.09-.09-.15-.23-.15-.36s.05-.26.15-.36c.19-.19.53-.19.72,0,.1.09.15.23.15.36s-.05.26-.15.36c-.09.09-.23.15-.36.15Z"/><path class="cls-12" d="m3.31,25.37c-.13,0-.26-.05-.36-.15-.09-.09-.15-.23-.15-.36s.05-.26.15-.36c.19-.19.53-.19.72,0,.09.1.15.23.15.36s-.05.26-.15.36c-.09.09-.23.15-.36.15Z"/><path class="cls-12" d="m12.85,25.76c-.13,0-.26-.05-.36-.15-.09-.09-.15-.23-.15-.36s.05-.26.15-.36c.19-.19.53-.19.72,0,.09.09.15.23.15.36s-.05.26-.15.36c-.09.09-.23.15-.36.15Z"/><path class="cls-12" d="m16.84,23.62c-.13,0-.26-.05-.36-.15-.09-.09-.15-.23-.15-.36s.05-.26.15-.36c.19-.19.53-.19.72,0,.09.09.15.23.15.36s-.05.26-.15.36c-.09.09-.23.15-.36.15Z"/><path class="cls-12" d="m19.46,23.04c-.13,0-.26-.05-.36-.15-.09-.09-.15-.23-.15-.36s.05-.26.15-.36c.19-.19.53-.19.72,0,.09.09.15.23.15.36s-.05.26-.15.36c-.09.09-.23.15-.36.15Z"/><path class="cls-12" d="m17.03,29.27c-.13,0-.26-.05-.36-.15-.09-.09-.15-.23-.15-.36s.05-.26.15-.36c.19-.19.53-.19.72,0,.09.09.15.23.15.36s-.05.26-.15.36c-.09.09-.23.15-.36.15Z"/><path class="cls-12" d="m5.55,29.75c-.13,0-.26-.05-.36-.15-.09-.09-.15-.23-.15-.36s.05-.26.15-.36c.19-.19.53-.19.72,0,.09.09.15.23.15.36s-.05.26-.15.36c-.09.09-.23.15-.36.15Z"/><path class="cls-12" d="m9.35,29.66c-.13,0-.26-.05-.36-.15-.09-.09-.15-.23-.15-.36s.05-.26.15-.36c.19-.19.53-.19.72,0,.09.09.15.23.15.36s-.05.26-.15.36c-.09.09-.23.15-.36.15Z"/><path class="cls-12" d="m7.69,29.95c-.13,0-.26-.05-.36-.15-.09-.09-.15-.23-.15-.36s.05-.26.15-.36c.19-.19.53-.19.72,0,.09.09.15.23.15.36s-.05.26-.15.36c-.09.09-.22.15-.36.15Z"/><path class="cls-12" d="m11.88,29.95c-.13,0-.26-.05-.36-.15-.09-.09-.15-.23-.15-.36s.05-.26.15-.36c.19-.19.53-.19.72,0,.09.09.15.23.15.36s-.05.26-.15.36c-.09.09-.22.15-.36.15Z"/><path class="cls-12" d="m22.48,29.56c-.13,0-.26-.05-.36-.15-.09-.09-.15-.23-.15-.36s.05-.26.15-.36c.19-.19.53-.19.72,0,.09.09.15.23.15.36s-.05.26-.15.36c-.09.09-.23.15-.36.15Z"/><path class="cls-12" d="m4.09,29.75c-.13,0-.26-.05-.36-.15-.09-.09-.15-.23-.15-.36s.05-.26.15-.36c.19-.19.53-.19.72,0,.09.09.15.23.15.36s-.05.26-.15.36c-.09.09-.23.15-.36.15Z"/><path class="cls-12" d="m22.48,29.56c-.13,0-.26-.05-.36-.15-.09-.09-.15-.23-.15-.36s.05-.26.15-.36c.19-.19.53-.19.72,0,.09.09.15.23.15.36s-.05.26-.15.36c-.09.09-.23.15-.36.15Z"/><path class="cls-12" d="m29.29,4.94c-.13,0-.26-.05-.36-.15-.09-.09-.15-.23-.15-.36s.05-.26.15-.36c.19-.19.53-.19.72,0,.09.09.15.23.15.36s-.05.26-.15.36c-.09.09-.23.15-.36.15Z"/><path class="cls-12" d="m29.39,6.21c-.13,0-.26-.05-.36-.15-.09-.09-.15-.23-.15-.36s.05-.26.15-.36c.19-.19.53-.19.72,0,.09.09.15.23.15.36s-.05.26-.15.36c-.09.09-.23.15-.36.15Z"/><path class="cls-12" d="m29.49,9.03c-.13,0-.26-.05-.36-.15-.09-.09-.15-.23-.15-.36s.05-.26.15-.36c.19-.19.53-.19.72,0,.09.09.15.23.15.36s-.05.26-.15.36c-.09.09-.23.15-.36.15Z"/><path class="cls-12" d="m29.19,10.29c-.13,0-.26-.05-.36-.15-.09-.09-.15-.23-.15-.36s.05-.26.15-.36c.19-.19.53-.19.72,0,.09.09.15.23.15.36s-.05.26-.15.36c-.09.09-.23.15-.36.15Z"/><path class="cls-12" d="m29.39,28.97c-.13,0-.26-.05-.36-.15-.09-.09-.15-.23-.15-.36s.05-.26.15-.36c.19-.19.53-.19.72,0,.09.09.15.23.15.36s-.05.26-.15.36c-.09.09-.23.15-.36.15Z"/><path class="cls-12" d="m29.58,19.05c-.13,0-.26-.05-.36-.15-.09-.09-.15-.23-.15-.36s.05-.26.15-.36c.19-.19.53-.19.72,0,.09.09.15.23.15.36s-.05.26-.15.36c-.09.09-.23.15-.36.15Z"/><path class="cls-12" d="m29.19,23.23c-.13,0-.26-.05-.36-.15-.09-.09-.15-.23-.15-.36s.05-.26.15-.36c.19-.19.53-.19.72,0,.09.09.15.23.15.36s-.05.26-.15.36c-.09.09-.23.15-.36.15Z"/><path class="cls-12" d="m29.58,21.68c-.13,0-.26-.05-.36-.15-.09-.09-.15-.23-.15-.36s.05-.26.15-.36c.19-.19.53-.19.72,0,.09.09.15.23.15.36s-.05.26-.15.36c-.09.09-.23.15-.36.15Z"/><path class="cls-12" d="m19.08,28.88c-.13,0-.26-.05-.36-.15-.09-.09-.15-.23-.15-.36s.05-.26.15-.36c.19-.19.53-.19.72,0,.09.1.15.23.15.36s-.05.26-.15.36c-.09.09-.23.15-.36.15Z"/><path class="cls-12" d="m16.84,27.9c-.13,0-.26-.05-.36-.15-.09-.09-.15-.23-.15-.36s.05-.26.15-.36c.19-.19.53-.19.72,0,.09.09.15.23.15.36s-.05.26-.15.36c-.09.09-.23.15-.36.15Z"/><path class="cls-12" d="m-.61,10.29c-.13,0-.26-.05-.36-.15-.09-.1-.15-.23-.15-.36s.05-.26.15-.36c.19-.19.53-.19.72,0,.09.09.15.23.15.36s-.05.26-.15.36c-.09.09-.23.15-.36.15Z"/><path class="cls-12" d="m-.61,8.93c-.13,0-.26-.05-.36-.15-.09-.09-.15-.23-.15-.36s.05-.26.15-.36c.19-.19.53-.19.72,0,.09.09.15.23.15.36s-.05.26-.15.36c-.09.09-.23.15-.36.15Z"/><path class="cls-12" d="m-.12,4.06c-.13,0-.26-.05-.36-.15-.09-.09-.15-.23-.15-.36s.05-.26.15-.36c.19-.19.53-.19.72,0,.09.09.15.23.15.36s-.05.26-.15.36c-.09.09-.23.15-.36.15Z"/><path class="cls-12" d="m.26,2.22c-.13,0-.26-.05-.36-.15-.09-.1-.15-.23-.15-.36s.05-.26.15-.36c.19-.19.53-.19.72,0,.09.09.15.23.15.36s-.05.26-.15.36c-.09.09-.23.15-.36.15Z"/><path class="cls-12" d="m-.12,6.59c-.13,0-.26-.05-.36-.15-.09-.09-.15-.23-.15-.36s.05-.26.15-.36c.19-.19.53-.19.72,0,.09.09.15.23.15.36s-.05.26-.15.36c-.09.09-.23.15-.36.15Z"/><path class="cls-12" d="m.56,7.96c-.13,0-.26-.05-.36-.15-.09-.09-.15-.23-.15-.36s.05-.26.15-.36c.19-.19.53-.19.72,0,.09.09.15.23.15.36s-.05.26-.15.36c-.09.09-.23.15-.36.15Z"/><path class="cls-12" d="m.07,13.89c-.13,0-.26-.05-.36-.15-.09-.09-.15-.23-.15-.36s.05-.26.15-.36c.19-.19.53-.19.72,0,.09.09.15.23.15.36s-.05.26-.15.36c-.09.09-.23.15-.36.15Z"/><path class="cls-12" d="m.46,12.24c-.13,0-.26-.05-.36-.15-.09-.09-.15-.23-.15-.36s.05-.26.15-.36c.19-.19.53-.19.72,0,.09.09.15.23.15.36s-.05.26-.15.36c-.09.09-.23.15-.36.15Z"/><path class="cls-12" d="m-.71,15.16c-.13,0-.26-.05-.36-.15-.09-.09-.15-.23-.15-.36s.05-.26.15-.36c.19-.19.53-.19.72,0,.09.09.15.23.15.36s-.05.26-.15.36c-.09.09-.22.15-.36.15Z"/><path class="cls-12" d="m.56,16.13c-.13,0-.26-.05-.36-.15-.09-.09-.15-.23-.15-.36s.05-.26.15-.36c.19-.19.53-.19.72,0,.09.09.15.23.15.36s-.05.26-.15.36c-.09.09-.23.15-.36.15Z"/><path class="cls-12" d="m.26,17.69c-.13,0-.26-.05-.36-.15-.09-.09-.15-.23-.15-.36s.05-.26.15-.36c.19-.19.53-.19.72,0,.09.09.15.23.15.36s-.05.26-.15.36c-.09.09-.23.15-.36.15Z"/><path class="cls-12" d="m-.03,20.61c-.13,0-.26-.05-.36-.15-.09-.09-.15-.23-.15-.36s.05-.26.15-.36c.19-.19.53-.19.72,0,.09.09.15.23.15.36s-.05.26-.15.36c-.09.09-.23.15-.36.15Z"/><path class="cls-12" d="m-.42,19.24c-.13,0-.26-.05-.36-.15-.09-.09-.15-.23-.15-.36s.05-.26.15-.36c.19-.19.53-.19.72,0,.09.09.15.23.15.36s-.05.26-.15.36c-.09.09-.23.15-.36.15Z"/><path class="cls-12" d="m-.03,27.81c-.13,0-.26-.05-.36-.15-.09-.09-.15-.23-.15-.36s.05-.26.15-.36c.19-.19.53-.19.72,0,.09.09.15.23.15.36s-.05.26-.15.36c-.09.09-.23.15-.36.15Z"/><path class="cls-12" d="m1.04,26.83c-.13,0-.26-.05-.36-.15-.09-.09-.15-.23-.15-.36s.05-.26.15-.36c.19-.19.53-.19.72,0,.09.09.15.23.15.36s-.05.26-.15.36c-.09.09-.23.15-.36.15Z"/><path class="cls-12" d="m-.22,21.87c-.13,0-.26-.05-.36-.15-.09-.09-.15-.23-.15-.36s.05-.26.15-.36c.19-.19.53-.19.72,0,.09.09.15.23.15.36s-.05.26-.15.36c-.09.09-.23.15-.36.15Z"/><path class="cls-12" d="m-.32,23.91c-.13,0-.26-.05-.36-.15-.09-.09-.15-.23-.15-.36s.05-.26.15-.36c.19-.19.53-.19.72,0,.09.09.15.23.15.36s-.05.26-.15.36c-.09.09-.23.15-.36.15Z"/><path class="cls-12" d="m-.22,21.87c-.13,0-.26-.05-.36-.15-.09-.09-.15-.23-.15-.36s.05-.26.15-.36c.19-.19.53-.19.72,0,.09.09.15.23.15.36s-.05.26-.15.36c-.09.09-.23.15-.36.15Z"/><path class="cls-12" d="m.36,25.37c-.13,0-.26-.05-.36-.15-.09-.09-.15-.23-.15-.36s.05-.26.15-.36c.19-.19.53-.19.72,0,.09.09.15.23.15.36s-.05.26-.15.36c-.09.09-.23.15-.36.15Z"/><path class="cls-12" d="m.95,4.94c-.13,0-.26-.05-.36-.15-.09-.09-.15-.23-.15-.36s.05-.26.15-.36c.19-.19.53-.19.72,0,.09.09.15.23.15.36s-.05.26-.15.36c-.09.09-.23.15-.36.15Z"/><path class="cls-12" d="m1.04,6.21c-.13,0-.26-.05-.36-.15-.09-.09-.15-.23-.15-.36s.05-.26.15-.36c.19-.19.53-.19.72,0,.09.09.15.23.15.36s-.05.26-.15.36c-.09.09-.23.15-.36.15Z"/><path class="cls-12" d="m1.14,9.03c-.13,0-.26-.05-.36-.15-.09-.09-.15-.23-.15-.36s.05-.26.15-.36c.19-.19.53-.19.72,0,.09.09.15.23.15.36s-.05.26-.15.36c-.09.09-.23.15-.36.15Z"/><path class="cls-12" d="m.85,10.29c-.13,0-.26-.05-.36-.15-.09-.09-.15-.23-.15-.36s.05-.26.15-.36c.19-.19.53-.19.72,0,.09.09.15.23.15.36s-.05.26-.15.36c-.09.09-.23.15-.36.15Z"/><path class="cls-12" d="m1.04,28.97c-.13,0-.26-.05-.36-.15-.09-.09-.15-.23-.15-.36s.05-.26.15-.36c.19-.19.53-.19.72,0,.09.09.15.23.15.36s-.05.26-.15.36c-.09.09-.23.15-.36.15Z"/><path class="cls-12" d="m1.24,19.05c-.13,0-.26-.05-.36-.15-.09-.09-.15-.23-.15-.36s.05-.26.15-.36c.19-.19.53-.19.72,0,.09.09.15.23.15.36s-.05.26-.15.36c-.09.09-.23.15-.36.15Z"/><path class="cls-12" d="m.85,23.23c-.13,0-.26-.05-.36-.15-.09-.09-.15-.23-.15-.36s.05-.26.15-.36c.19-.19.53-.19.72,0,.09.09.15.23.15.36s-.05.26-.15.36c-.09.09-.23.15-.36.15Z"/><path class="cls-12" d="m1.24,21.68c-.13,0-.26-.05-.36-.15-.09-.09-.15-.23-.15-.36s.05-.26.15-.36c.19-.19.53-.19.72,0,.09.09.15.23.15.36s-.05.26-.15.36c-.09.09-.23.15-.36.15Z"/><path class="cls-12" d="m6.91.53c-.13,0-.26-.05-.36-.15-.09-.09-.15-.23-.15-.36s.05-.26.15-.36c.19-.19.53-.19.72,0,.09.1.15.23.15.36s-.05.26-.15.36c-.09.09-.23.15-.36.15Z"/><path class="cls-12" d="m6.91.53c-.13,0-.26-.05-.36-.15-.09-.09-.15-.23-.15-.36s.05-.26.15-.36c.19-.19.53-.19.72,0,.09.1.15.23.15.36s-.05.26-.15.36c-.09.09-.23.15-.36.15Z"/><path class="cls-12" d="m8.28.14c-.13,0-.26-.05-.36-.15-.09-.09-.15-.23-.15-.36s.05-.26.15-.36c.19-.19.53-.19.72,0,.09.09.15.23.15.36s-.05.26-.15.36c-.09.09-.23.15-.36.15Z"/><path class="cls-12" d="m10.42.53c-.13,0-.26-.05-.36-.15-.09-.09-.15-.23-.15-.36s.05-.26.15-.36c.19-.19.53-.19.72,0,.09.09.15.23.15.36s-.05.26-.15.36c-.09.09-.22.15-.36.15Z"/><path class="cls-12" d="m12.46.34c-.13,0-.26-.05-.36-.15-.09-.09-.15-.23-.15-.36s.05-.26.15-.36c.19-.19.53-.19.72,0,.09.09.15.23.15.36s-.05.26-.15.36c-.09.09-.22.15-.36.15Z"/><path class="cls-12" d="m13.82.53c-.13,0-.26-.05-.36-.15-.09-.09-.15-.23-.15-.36s.05-.26.15-.36c.19-.19.53-.19.72,0,.09.09.15.23.15.36s-.05.26-.15.36c-.09.09-.23.15-.36.15Z"/><path class="cls-12" d="m15.77.34c-.13,0-.26-.05-.36-.15-.09-.09-.15-.23-.15-.36s.05-.26.15-.36c.19-.19.53-.19.72,0,.09.09.15.23.15.36s-.05.26-.15.36c-.09.09-.23.15-.36.15Z"/><path class="cls-12" d="m20.44-.05c-.13,0-.26-.05-.36-.15-.09-.09-.15-.23-.15-.36s.05-.26.15-.36c.19-.19.53-.19.72,0,.09.09.15.23.15.36s-.05.26-.15.36c-.09.09-.23.15-.36.15Z"/><path class="cls-12" d="m24.33.53c-.13,0-.26-.05-.36-.15-.09-.1-.15-.23-.15-.36s.05-.26.15-.36c.19-.19.53-.19.72,0,.09.09.15.23.15.36s-.05.26-.15.36c-.09.09-.23.15-.36.15Z"/><path class="cls-12" d="m27.44.82c-.13,0-.26-.05-.36-.15-.09-.09-.15-.23-.15-.36s.05-.26.15-.36c.19-.19.53-.19.72,0,.09.09.15.23.15.36s-.05.26-.15.36c-.09.09-.22.15-.36.15Z"/><path class="cls-12" d="m22.48,1.21c-.13,0-.26-.05-.36-.15-.09-.09-.15-.23-.15-.36s.05-.26.15-.36c.19-.19.53-.19.72,0,.09.09.15.23.15.36s-.05.26-.15.36c-.09.09-.23.15-.36.15Z"/><path class="cls-12" d="m21.99-.25c-.13,0-.26-.05-.36-.15-.09-.09-.15-.23-.15-.36s.05-.26.15-.36c.19-.19.53-.19.72,0,.09.09.15.23.15.36s-.05.26-.15.36c-.09.09-.23.15-.36.15Z"/><path class="cls-12" d="m5.06.14c-.13,0-.26-.05-.36-.15-.09-.09-.15-.23-.15-.36s.05-.26.15-.36c.19-.19.53-.19.72,0,.09.09.15.23.15.36s-.05.26-.15.36c-.09.09-.23.15-.36.15Z"/><path class="cls-12" d="m3.31.24c-.13,0-.26-.05-.36-.15-.09-.09-.15-.23-.15-.36s.05-.26.15-.36c.19-.19.53-.19.72,0,.09.1.15.23.15.36s-.05.26-.15.36c-.09.09-.23.15-.36.15Z"/><path class="cls-12" d="m11.49-.25c-.13,0-.26-.05-.36-.15-.09-.09-.15-.23-.15-.36s.05-.26.15-.36c.19-.19.53-.19.72,0,.09.09.15.23.15.36s-.05.26-.15.36c-.09.09-.23.15-.36.15Z"/><path class="cls-12" d="m26.08-.05c-.13,0-.26-.05-.36-.15-.09-.09-.15-.23-.15-.36s.05-.26.15-.36c.19-.19.53-.19.72,0,.09.09.15.23.15.36s-.05.26-.15.36c-.09.09-.23.15-.36.15Z"/><path class="cls-12" d="m17.03.92c-.13,0-.26-.05-.36-.15-.09-.09-.15-.23-.15-.36s.05-.26.15-.36c.19-.19.53-.19.72,0,.09.09.15.23.15.36s-.05.26-.15.36c-.09.09-.23.15-.36.15Z"/><path class="cls-12" d="m5.55,1.41c-.13,0-.26-.05-.36-.15-.09-.09-.15-.23-.15-.36s.05-.26.15-.36c.19-.19.53-.19.72,0,.09.09.15.23.15.36s-.05.26-.15.36c-.09.09-.23.15-.36.15Z"/><path class="cls-12" d="m9.35,1.31c-.13,0-.26-.05-.36-.15-.09-.09-.15-.23-.15-.36s.05-.26.15-.36c.19-.19.53-.19.72,0,.09.09.15.23.15.36s-.05.26-.15.36c-.09.09-.23.15-.36.15Z"/><path class="cls-12" d="m7.69,1.6c-.13,0-.26-.05-.36-.15-.09-.09-.15-.23-.15-.36s.05-.26.15-.36c.19-.19.53-.19.72,0,.09.09.15.23.15.36s-.05.26-.15.36c-.09.09-.22.15-.36.15Z"/><path class="cls-12" d="m11.88,1.6c-.13,0-.26-.05-.36-.15-.09-.09-.15-.23-.15-.36s.05-.26.15-.36c.19-.19.53-.19.72,0,.09.09.15.23.15.36s-.05.26-.15.36c-.09.09-.22.15-.36.15Z"/><path class="cls-12" d="m22.48,1.21c-.13,0-.26-.05-.36-.15-.09-.09-.15-.23-.15-.36s.05-.26.15-.36c.19-.19.53-.19.72,0,.09.09.15.23.15.36s-.05.26-.15.36c-.09.09-.23.15-.36.15Z"/><path class="cls-12" d="m4.09,1.41c-.13,0-.26-.05-.36-.15-.09-.09-.15-.23-.15-.36s.05-.26.15-.36c.19-.19.53-.19.72,0,.09.09.15.23.15.36s-.05.26-.15.36c-.09.09-.23.15-.36.15Z"/><path class="cls-12" d="m22.48,1.21c-.13,0-.26-.05-.36-.15-.09-.09-.15-.23-.15-.36s.05-.26.15-.36c.19-.19.53-.19.72,0,.09.09.15.23.15.36s-.05.26-.15.36c-.09.09-.23.15-.36.15Z"/><path class="cls-12" d="m19.08.53c-.13,0-.26-.05-.36-.15-.09-.09-.15-.23-.15-.36s.05-.26.15-.36c.19-.19.53-.19.72,0,.09.1.15.23.15.36s-.05.26-.15.36c-.09.09-.23.15-.36.15Z"/><path class="cls-12" d="m1.04.63c-.13,0-.26-.05-.36-.15-.09-.09-.15-.23-.15-.36s.05-.26.15-.36c.19-.19.53-.19.72,0,.09.09.15.23.15.36s-.05.26-.15.36c-.09.09-.23.15-.36.15Z"/></pattern><pattern id="USGS_20_Scrub-2" patternTransform="translate(-14693.19 -4947.67) rotate(-180) scale(.58 -.58)" xlink:href="#USGS_20_Scrub"/></defs><g id="DRAW"><polygon class="cls-2" points="135.35 39.75 117.61 86.85 36.02 97.09 60.86 54.08 135.35 39.75"/><polygon class="cls-7" points="135.35 39.75 117.61 86.85 36.02 97.09 60.86 54.08 135.35 39.75"/><path class="cls-11" d="m69.34,127.95c0,.47-.63.85-1.4.85s-1.4-.38-1.4-.85c0,0,0-12.39,0-12.39h0v-8.19h2.79v20.58Z"/><path class="cls-11" d="m19.65,99.27c0,.47-.63.85-1.4.85s-1.4-.38-1.4-.85c0,0,0-12.39,0-12.39h0v-8.19h2.79v20.58Z"/><path class="cls-11" d="m151.05,78.48c0,.47-.63.85-1.4.85s-1.4-.38-1.4-.85c0,0,0-12.39,0-12.39h0v-8.19h2.79v20.58Z"/><polyline class="cls-2" points=".55 68.42 50.21 47.94 99.87 11.07"/><polyline class="cls-7" points=".55 68.42 50.21 47.94 99.87 11.07"/><polyline class="cls-5" points="106.97 56.13 138.9 37.7 167.27 37.7 174.37 33.6 165.5 20.29"/><polyline class="cls-8" points="106.97 56.13 138.9 37.7 167.27 37.7 174.37 33.6 165.5 20.29"/><ellipse class="cls-6" cx="53.76" cy="49.99" rx="1.78" ry="1.01" transform="translate(-18.5 62.9) rotate(-53.05)"/><ellipse class="cls-9" cx="53.76" cy="49.99" rx="18.86" ry="10.67" transform="translate(-18.5 62.9) rotate(-53.05)"/><ellipse class="cls-3" cx="53.76" cy="49.99" rx="18.86" ry="10.67" transform="translate(-18.5 62.9) rotate(-53.05)"/><polygon class="cls-13" points="103.42 25.41 121.16 35.65 128.25 43.84 142.44 47.94 160.18 58.18 124.7 78.66 110.52 82.75 103.42 90.95 67.95 111.43 50.21 101.19 43.12 92.99 28.93 88.9 11.19 78.66 46.67 58.18 64.4 56.13 67.95 45.89 103.42 25.41"/><polygon class="cls-14" points="103.42 25.41 121.16 35.65 128.25 43.84 142.44 47.94 160.18 58.18 124.7 78.66 110.52 82.75 103.42 90.95 67.95 111.43 50.21 101.19 43.12 92.99 28.93 88.9 11.19 78.66 46.67 58.18 64.4 56.13 67.95 45.89 103.42 25.41"/><polygon class="cls-6" points="103.42 25.41 121.16 35.65 128.25 43.84 142.44 47.94 160.18 58.18 124.7 78.66 110.52 82.75 103.42 90.95 67.95 111.43 50.21 101.19 43.12 92.99 28.93 88.9 11.19 78.66 46.67 58.18 64.4 56.13 67.95 45.89 103.42 25.41"/><polyline class="cls-2" points="67.95 107.33 83.91 100.16 117.61 86.85 147.28 63.02 167.27 49.99"/><polyline class="cls-7" points="67.95 107.33 83.91 100.16 117.61 86.85 147.28 63.02 167.27 49.99"/><line class="cls-2" x1="99.87" y1="11.07" x2="167.27" y2="49.99"/><line class="cls-7" x1="99.87" y1="11.07" x2="167.27" y2="49.99"/><line class="cls-2" x1=".55" y1="68.42" x2="99.87" y2="11.07"/><line class="cls-7" x1=".55" y1="68.42" x2="99.87" y2="11.07"/><polyline class="cls-2" points=".55 68.42 57.31 52.03 99.87 11.07"/><polyline class="cls-7" points=".55 68.42 57.31 52.03 99.87 11.07"/><line class="cls-2" x1="135.35" y1="39.75" x2="99.87" y2="11.07"/><line class="cls-7" x1="135.35" y1="39.75" x2="99.87" y2="11.07"/><line class="cls-2" x1="167.27" y1="49.99" x2="135.35" y2="39.75"/><line class="cls-7" x1="167.27" y1="49.99" x2="135.35" y2="39.75"/><polygon class="cls-10" points="99.87 6.97 124.7 21.31 92.78 39.74 67.95 25.4 99.87 6.97"/><polygon class="cls-10" points="99.87 27.45 124.7 41.79 92.78 60.22 67.95 45.88 99.87 27.45"/><polygon class="cls-10" points="124.1 21.66 124.1 41.79 92.78 59.89 92.78 39.74 124.1 21.66"/><polygon class="cls-10" points="68.55 25.75 68.55 45.88 92.78 59.89 92.78 39.74 68.55 25.75"/><polyline class="cls-10" points="124.1 25.05 124.7 25.4 92.78 44.59 92.78 39.74 92.78 44.59 67.95 29.5 68.55 29.15"/><polygon class="cls-10" points="85.68 35.64 67.95 25.4 99.87 6.97 99.87 27.45 85.68 35.64"/><polygon class="cls-10" points="99.87 27.45 85.68 35.64 92.78 39.74 106.97 31.55 99.87 27.45"/><polygon class="cls-10" points="99.87 6.97 99.87 27.45 106.97 31.55 124.7 21.31 99.87 6.97"/><polygon class="cls-10" points="128.26 23.35 153.09 37.69 121.16 56.12 96.33 41.79 128.26 23.35"/><polygon class="cls-10" points="128.26 43.83 153.09 58.17 121.16 76.6 96.33 62.27 128.26 43.83"/><polygon class="cls-10" points="152.48 38.04 152.48 58.17 121.16 76.27 121.16 56.12 152.48 38.04"/><polygon class="cls-10" points="96.93 42.13 96.93 62.27 121.16 76.27 121.16 56.12 96.93 42.13"/><polyline class="cls-10" points="152.48 41.43 153.09 41.79 121.16 60.97 121.16 56.12 121.16 60.97 96.33 45.88 96.93 45.54"/><polygon class="cls-10" points="114.07 52.03 96.33 41.79 128.26 23.35 128.26 43.83 114.07 52.03"/><polygon class="cls-10" points="128.26 43.83 114.07 52.03 121.16 56.12 135.35 47.93 128.26 43.83"/><polygon class="cls-10" points="128.26 23.35 128.26 43.83 135.35 47.93 153.09 37.69 128.26 23.35"/><polygon class="cls-10" points="92.77 43.84 117.61 58.18 85.68 76.61 60.85 62.27 92.77 43.84"/><polygon class="cls-10" points="92.77 64.32 117.61 78.66 85.68 97.09 60.85 82.75 92.77 64.32"/><polygon class="cls-10" points="117 58.53 117 78.66 85.68 96.76 85.68 76.61 117 58.53"/><polygon class="cls-10" points="61.45 62.62 61.45 82.75 85.68 96.76 85.68 76.61 61.45 62.62"/><polyline class="cls-10" points="117 61.92 117.61 62.27 85.68 81.46 85.68 76.61 85.68 81.46 60.85 66.37 61.45 66.02"/><polygon class="cls-10" points="78.59 72.51 60.85 62.27 92.77 43.84 92.77 64.32 78.59 72.51"/><polygon class="cls-10" points="92.77 64.32 78.59 72.51 85.68 76.61 99.87 68.42 92.77 64.32"/><polygon class="cls-10" points="92.77 43.84 92.77 64.32 99.87 68.42 117.61 58.18 92.77 43.84"/><path class="cls-11" d="m69.34,107.19c0,.47-.63.85-1.4.85s-1.4-.38-1.4-.85c0,0,0,0,0,0h0v-24.71h2.79v24.71Z"/><ellipse class="cls-6" cx="121.16" cy="88.9" rx="1.78" ry="1.01" transform="translate(-22.72 132.29) rotate(-53.05)"/><ellipse class="cls-9" cx="121.16" cy="88.9" rx="18.86" ry="10.67" transform="translate(-22.71 132.29) rotate(-53.05)"/><ellipse class="cls-3" cx="121.16" cy="88.9" rx="18.86" ry="10.67" transform="translate(-22.71 132.29) rotate(-53.05)"/><polyline class="cls-2" points="167.27 49.99 67.95 107.33 .55 68.42"/><polyline class="cls-7" points="167.27 49.99 67.95 107.33 .55 68.42"/><polyline class="cls-2" points=".55 68.42 36.02 97.09 67.95 107.33 89.23 103.23 124.71 90.95 153.08 66.37 167.27 49.99"/><polyline class="cls-7" points=".55 68.42 36.02 97.09 67.95 107.33 89.23 103.23 124.71 90.95 153.08 66.37 167.27 49.99"/><path class="cls-11" d="m164.2,19.11h0s.04-.03.04-.03c.02-.01.04-.03.06-.04l3.47-2.05h0c.13-.08.29-.13.5-.13.74,0,1.68.6,2.11,1.34.31.54.26,1-.08,1.21h0s-.03.02-.03.02c0,0,0,0-.01,0l-3.43,2.01h0c-.13.11-.32.18-.56.18-.74,0-1.68-.6-2.11-1.34-.3-.51-.26-.95.04-1.18Z"/><line class="cls-11" x1="57.3" y1="104.52" x2="57.3" y2="110.09"/><ellipse class="cls-11" cx="57.3" cy="110.09" rx="1.01" ry="1.78" transform="translate(-65.12 89.71) rotate(-53.05)"/><line class="cls-11" x1="8.97" y1="76" x2="8.97" y2="82"/><ellipse class="cls-11" cx="8.97" cy="82" rx="1.01" ry="1.78" transform="translate(-61.96 39.88) rotate(-53.05)"/><ellipse class="cls-11" cx="67.94" cy="107.37" rx="1.4" ry=".85"/><polyline class="cls-2" points="160.17 33.64 131.8 41.83 103.42 .87 50.21 47.98 11.19 54.12"/><polyline class="cls-4" points="160.17 33.64 131.8 41.83 103.42 .87 50.21 47.98 11.19 54.12"/><polygon class="cls-2" points="103.42 .87 10.96 54.12 67.94 86.89 160.18 33.64 103.42 .87"/><polygon class="cls-4" points="103.42 .87 10.96 54.12 67.94 86.89 160.18 33.64 103.42 .87"/><polyline class="cls-2" points="67.95 86.89 124.62 90.94 160.18 33.64 103.42 .87"/><polyline class="cls-4" points="67.95 86.89 124.62 90.94 160.18 33.64 103.42 .87"/><polygon class="cls-13" points="103.42 .87 121.16 11.11 128.25 19.31 142.44 23.4 160.17 33.64 124.7 54.12 110.51 58.22 103.42 66.41 67.95 86.89 50.21 76.65 43.11 68.46 28.93 64.36 11.19 54.12 46.66 33.64 60.85 29.55 67.95 21.35 103.42 .87"/><polygon class="cls-15" points="103.42 .87 121.16 11.11 128.25 19.31 142.44 23.4 160.17 33.64 124.7 54.12 110.51 58.22 103.42 66.41 67.95 86.89 50.21 76.65 43.11 68.46 28.93 64.36 11.19 54.12 46.66 33.64 60.85 29.55 67.95 21.35 103.42 .87"/><polygon class="cls-6" points="103.42 .87 121.16 11.11 128.25 19.31 142.44 23.4 160.17 33.64 124.7 54.12 110.51 58.22 103.42 66.41 67.95 86.89 50.21 76.65 43.11 68.46 28.93 64.36 11.19 54.12 46.66 33.64 60.85 29.55 67.95 21.35 103.42 .87"/></g></svg>