<?xml version="1.0" encoding="utf-8"?>
<!-- Generator: Adobe Illustrator 27.4.0, SVG Export Plug-In . SVG Version: 6.00 Build 0)  -->
<svg version="1.1" id="Ebene_2" xmlns="http://www.w3.org/2000/svg" xmlns:xlink="http://www.w3.org/1999/xlink" x="0px" y="0px"
	 viewBox="0 0 965.1 609.1" style="enable-background:new 0 0 965.1 609.1;" xml:space="preserve">
<style type="text/css">
	.st0{fill:none;stroke:#1D1D1B;stroke-width:5.76;stroke-miterlimit:9.9999;}
	.st1{fill:none;stroke:#FFFFFF;stroke-width:4.48;stroke-miterlimit:9.9999;}
	.st2{fill-rule:evenodd;clip-rule:evenodd;fill:#FFFFFF;stroke:#1D1D1B;stroke-width:0.72;stroke-miterlimit:9.9999;}
	.st3{fill:none;stroke:#1D1D1B;stroke-width:1.02;stroke-linecap:round;stroke-linejoin:round;stroke-miterlimit:4;}
	.st4{fill-rule:evenodd;clip-rule:evenodd;fill:#FFFFFF;}
	.st5{fill:none;stroke:#1D1D1B;stroke-width:5.44;stroke-linecap:square;stroke-miterlimit:9.9999;}
	.st6{fill:none;stroke:#FFFFFF;stroke-width:3.63;stroke-linecap:square;stroke-miterlimit:9.9999;}
</style>
<line class="st0" x1="359.6" y1="416.8" x2="305" y2="385.4"/>
<line class="st1" x1="359.6" y1="416.8" x2="305" y2="385.4"/>
<polyline class="st0" points="632.2,259.5 686.7,290.9 686.6,291 632.1,322.4 632.1,322.4 577.6,353.9 577.6,353.9 523.1,385.4 
	523.1,385.4 468.6,416.9 468.6,416.9 414,448.3 414,448.3 359.6,416.8 "/>
<polyline class="st1" points="632.2,259.5 686.7,290.9 686.6,291 632.1,322.4 632.1,322.4 577.6,353.9 577.6,353.9 523.1,385.4 
	523.1,385.4 468.6,416.9 468.6,416.9 414,448.3 414,448.3 359.6,416.8 "/>
<polyline class="st0" points="632.2,259.5 577.6,228 550.3,212.3 495.8,243.7 495.8,243.7 441.3,275.2 441.3,275.2 386.8,306.7 
	386.8,306.7 332.2,338.2 332.2,338.2 277.7,369.6 277.7,369.6 305,385.4 "/>
<polyline class="st1" points="632.2,259.5 577.6,228 550.3,212.3 495.8,243.7 495.8,243.7 441.3,275.2 441.3,275.2 386.8,306.7 
	386.8,306.7 332.2,338.2 332.2,338.2 277.7,369.6 277.7,369.6 305,385.4 "/>
<line class="st0" x1="632.2" y1="259.5" x2="577.7" y2="228"/>
<line class="st1" x1="632.2" y1="259.5" x2="577.7" y2="228"/>
<polyline class="st0" points="904.8,102.1 959.3,133.5 959.3,133.6 904.8,165 904.7,165.1 850.2,196.5 850.2,196.5 795.7,228 
	795.7,228 741.2,259.5 741.2,259.5 686.7,290.9 686.7,290.9 632.2,259.5 "/>
<polyline class="st1" points="904.8,102.1 959.3,133.5 959.3,133.6 904.8,165 904.7,165.1 850.2,196.5 850.2,196.5 795.7,228 
	795.7,228 741.2,259.5 741.2,259.5 686.7,290.9 686.7,290.9 632.2,259.5 "/>
<polyline class="st0" points="904.8,102.1 850.2,70.6 823,54.9 768.4,86.3 768.4,86.4 713.9,117.8 713.9,117.8 659.4,149.3 
	659.4,149.3 604.9,180.8 604.9,180.8 550.4,212.3 550.3,212.3 577.6,228 "/>
<polyline class="st1" points="904.8,102.1 850.2,70.6 823,54.9 768.4,86.3 768.4,86.4 713.9,117.8 713.9,117.8 659.4,149.3 
	659.4,149.3 604.9,180.8 604.9,180.8 550.4,212.3 550.3,212.3 577.6,228 "/>
<line class="st0" x1="87" y1="574.2" x2="32.5" y2="542.7"/>
<line class="st1" x1="87" y1="574.2" x2="32.5" y2="542.7"/>
<polyline class="st0" points="359.6,416.8 414.1,448.3 414.1,448.3 359.6,479.8 359.6,479.8 305,511.3 305,511.3 250.5,542.8 
	250.5,542.8 196,574.2 196,574.3 141.5,605.7 141.5,605.7 87,574.2 "/>
<polyline class="st1" points="359.6,416.8 414.1,448.3 414.1,448.3 359.6,479.8 359.6,479.8 305,511.3 305,511.3 250.5,542.8 
	250.5,542.8 196,574.2 196,574.3 141.5,605.7 141.5,605.7 87,574.2 "/>
<polyline class="st0" points="359.6,416.8 305,385.4 277.8,369.7 223.3,401.1 223.3,401.1 168.7,432.6 168.7,432.6 114.2,464.1 
	114.2,464.1 59.7,495.6 59.7,495.6 5.2,527 5.2,527 32.4,542.8 "/>
<polyline class="st1" points="359.6,416.8 305,385.4 277.8,369.7 223.3,401.1 223.3,401.1 168.7,432.6 168.7,432.6 114.2,464.1 
	114.2,464.1 59.7,495.6 59.7,495.6 5.2,527 5.2,527 32.4,542.8 "/>
<polyline class="st2" points="622.1,309.8 613.5,319.9 612.2,317.7 611,327.2 606.7,334.9 600.2,342.6 597,345.2 589.5,348.3 
	583.8,347.7 572.8,341.3 571.1,346.4 559.4,350.5 513.6,377.5 496.7,386.2 466.4,406.2 464.7,405.7 463.4,411.7 461.4,416.5 
	456.1,424.7 448.4,431.7 442.5,433.7 435.9,433 424.5,426 413.3,427.1 409.7,426.3 382.3,412.1 360.4,399.9 338.5,386 324.5,376.4 
	320.7,371.2 320.3,359.7 322.7,356.1 323.6,342.4 324.3,338.3 350.7,316.1 363,305.4 365.2,301.4 372.8,295.6 415.6,268.8 
	447.1,252.5 447.6,246 450.9,244.1 461.1,247.7 466.6,247.7 479.3,250.7 508.1,237.3 530.5,228.1 545.4,224.1 584.6,243.8 
	622.4,269.3 626.7,271.8 627.8,279.6 631.3,283.6 629.7,293.7 622.1,309.8 "/>
<line class="st3" x1="324.3" y1="338.3" x2="350.7" y2="316.1"/>
<line class="st3" x1="350.7" y1="316.1" x2="363" y2="305.4"/>
<line class="st3" x1="363" y1="305.4" x2="365.2" y2="301.4"/>
<line class="st3" x1="365.2" y1="301.4" x2="372.8" y2="295.6"/>
<line class="st3" x1="372.8" y1="295.6" x2="415.6" y2="268.8"/>
<line class="st3" x1="415.6" y1="268.8" x2="447.1" y2="252.5"/>
<line class="st3" x1="447.1" y1="252.5" x2="447.6" y2="246"/>
<line class="st3" x1="447.6" y1="246" x2="450.9" y2="244.1"/>
<line class="st3" x1="450.9" y1="244.1" x2="461.1" y2="247.7"/>
<line class="st3" x1="461.1" y1="247.7" x2="466.6" y2="247.7"/>
<line class="st3" x1="466.6" y1="247.7" x2="479.3" y2="250.7"/>
<line class="st3" x1="479.3" y1="250.7" x2="508.1" y2="237.3"/>
<line class="st3" x1="508.1" y1="237.3" x2="530.5" y2="228.1"/>
<line class="st3" x1="530.5" y1="228.1" x2="545.4" y2="224.1"/>
<line class="st3" x1="545.4" y1="224.1" x2="584.6" y2="243.8"/>
<line class="st3" x1="584.6" y1="243.8" x2="622.4" y2="269.3"/>
<line class="st3" x1="622.4" y1="269.3" x2="626.7" y2="271.8"/>
<line class="st3" x1="626.7" y1="271.8" x2="627.8" y2="279.6"/>
<line class="st3" x1="627.8" y1="279.6" x2="631.3" y2="283.6"/>
<line class="st3" x1="631.3" y1="283.6" x2="629.7" y2="293.7"/>
<line class="st3" x1="629.7" y1="293.7" x2="622.1" y2="309.8"/>
<line class="st3" x1="622.1" y1="309.8" x2="613.5" y2="319.9"/>
<line class="st3" x1="613.5" y1="319.9" x2="612.2" y2="317.7"/>
<line class="st3" x1="612.2" y1="317.7" x2="611" y2="327.2"/>
<line class="st3" x1="611" y1="327.2" x2="606.7" y2="334.9"/>
<line class="st3" x1="606.7" y1="334.9" x2="600.2" y2="342.6"/>
<line class="st3" x1="600.2" y1="342.6" x2="597" y2="345.2"/>
<line class="st3" x1="597" y1="345.2" x2="589.5" y2="348.3"/>
<line class="st3" x1="589.5" y1="348.3" x2="583.8" y2="347.7"/>
<line class="st3" x1="583.8" y1="347.7" x2="572.8" y2="341.3"/>
<line class="st3" x1="572.8" y1="341.3" x2="571.1" y2="346.4"/>
<line class="st3" x1="571.1" y1="346.4" x2="559.4" y2="350.5"/>
<line class="st3" x1="559.4" y1="350.5" x2="513.6" y2="377.5"/>
<line class="st3" x1="513.6" y1="377.5" x2="496.7" y2="386.2"/>
<line class="st3" x1="496.7" y1="386.2" x2="466.4" y2="406.2"/>
<line class="st3" x1="466.4" y1="406.2" x2="464.7" y2="405.7"/>
<line class="st3" x1="464.7" y1="405.7" x2="463.4" y2="411.7"/>
<line class="st3" x1="463.4" y1="411.7" x2="461.4" y2="416.5"/>
<line class="st3" x1="461.4" y1="416.5" x2="456.1" y2="424.7"/>
<line class="st3" x1="456.1" y1="424.7" x2="448.4" y2="431.7"/>
<line class="st3" x1="448.4" y1="431.7" x2="442.5" y2="433.7"/>
<line class="st3" x1="442.5" y1="433.7" x2="435.9" y2="433"/>
<line class="st3" x1="435.9" y1="433" x2="424.5" y2="426"/>
<line class="st3" x1="424.5" y1="426" x2="413.3" y2="427.1"/>
<line class="st3" x1="413.3" y1="427.1" x2="409.7" y2="426.3"/>
<line class="st3" x1="409.7" y1="426.3" x2="382.3" y2="412.1"/>
<line class="st3" x1="382.3" y1="412.1" x2="360.4" y2="399.9"/>
<line class="st3" x1="360.4" y1="399.9" x2="338.5" y2="386"/>
<line class="st3" x1="338.5" y1="386" x2="324.5" y2="376.4"/>
<line class="st3" x1="324.5" y1="376.4" x2="320.7" y2="371.2"/>
<line class="st3" x1="320.7" y1="371.2" x2="320.3" y2="359.7"/>
<line class="st3" x1="320.3" y1="359.7" x2="322.7" y2="356.1"/>
<line class="st3" x1="322.7" y1="356.1" x2="323.6" y2="342.4"/>
<line class="st3" x1="323.6" y1="342.4" x2="324.3" y2="338.3"/>
<line class="st3" x1="368.6" y1="305.6" x2="426.2" y2="339.4"/>
<line class="st3" x1="426.2" y1="339.4" x2="427.1" y2="343.5"/>
<line class="st3" x1="427.1" y1="343.5" x2="413.4" y2="369.6"/>
<line class="st3" x1="413.4" y1="369.6" x2="410.8" y2="372.1"/>
<line class="st3" x1="410.8" y1="372.1" x2="385.7" y2="358.3"/>
<line class="st3" x1="385.7" y1="358.3" x2="352.9" y2="339.1"/>
<line class="st3" x1="352.9" y1="339.1" x2="342.2" y2="332.2"/>
<line class="st3" x1="342.2" y1="332.2" x2="342" y2="330.1"/>
<line class="st3" x1="342" y1="330.1" x2="368.6" y2="305.6"/>
<line class="st3" x1="450.9" y1="326.2" x2="446.2" y2="367.5"/>
<line class="st3" x1="446.2" y1="367.5" x2="523" y2="325.6"/>
<line class="st3" x1="523" y1="325.6" x2="551" y2="310.4"/>
<line class="st3" x1="551" y1="310.4" x2="546.6" y2="297.7"/>
<line class="st3" x1="546.6" y1="297.7" x2="523.8" y2="287.2"/>
<line class="st3" x1="523.8" y1="287.2" x2="450.9" y2="326.2"/>
<line class="st3" x1="464.6" y1="249" x2="484.5" y2="258.1"/>
<line class="st3" x1="484.5" y1="258.1" x2="498.5" y2="266.2"/>
<line class="st3" x1="498.5" y1="266.2" x2="523.1" y2="283.7"/>
<line class="st3" x1="523.1" y1="283.7" x2="563.1" y2="299.9"/>
<line class="st3" x1="563.1" y1="299.9" x2="544.9" y2="283.3"/>
<line class="st3" x1="544.9" y1="283.3" x2="525.5" y2="269.1"/>
<line class="st3" x1="525.5" y1="269.1" x2="504.9" y2="259.7"/>
<line class="st3" x1="504.9" y1="259.7" x2="492.8" y2="254.7"/>
<line class="st3" x1="492.8" y1="254.7" x2="472.6" y2="249.9"/>
<line class="st3" x1="472.6" y1="249.9" x2="464.6" y2="249"/>
<line class="st3" x1="448.4" y1="246.3" x2="456.3" y2="248.7"/>
<line class="st3" x1="456.3" y1="248.7" x2="448.2" y2="252.1"/>
<line class="st3" x1="448.2" y1="252.1" x2="448.4" y2="246.3"/>
<line class="st3" x1="555.1" y1="305.4" x2="562.5" y2="312.2"/>
<line class="st3" x1="562.5" y1="312.2" x2="562.1" y2="317.9"/>
<line class="st3" x1="562.1" y1="317.9" x2="555.1" y2="311.7"/>
<line class="st3" x1="555.1" y1="311.7" x2="555.1" y2="305.4"/>
<line class="st3" x1="350.6" y1="358" x2="349.1" y2="366.3"/>
<line class="st3" x1="349.1" y1="366.3" x2="382.6" y2="385.1"/>
<line class="st3" x1="382.6" y1="385.1" x2="382.9" y2="376.3"/>
<line class="st3" x1="382.9" y1="376.3" x2="350.6" y2="358"/>
<line class="st3" x1="323.9" y1="340.2" x2="329.5" y2="344.2"/>
<line class="st3" x1="329.5" y1="344.2" x2="331.7" y2="357.9"/>
<line class="st3" x1="331.7" y1="357.9" x2="331.7" y2="364.2"/>
<line class="st3" x1="331.7" y1="364.2" x2="323.5" y2="358.4"/>
<line class="st3" x1="323.5" y1="358.4" x2="322.7" y2="356.1"/>
<line class="st3" x1="402.7" y1="386.7" x2="410.2" y2="390.2"/>
<line class="st3" x1="410.2" y1="390.2" x2="413.1" y2="389.2"/>
<line class="st3" x1="413.1" y1="389.2" x2="414.4" y2="407.9"/>
<line class="st3" x1="414.4" y1="407.9" x2="410.5" y2="409.1"/>
<line class="st3" x1="410.5" y1="409.1" x2="399" y2="403.5"/>
<line class="st3" x1="399" y1="403.5" x2="399" y2="397.2"/>
<line class="st3" x1="399" y1="397.2" x2="402.7" y2="386.7"/>
<line class="st3" x1="464.7" y1="405.7" x2="464.9" y2="401"/>
<line class="st3" x1="464.9" y1="401" x2="464.2" y2="397.5"/>
<line class="st3" x1="464.2" y1="397.5" x2="461.1" y2="392.8"/>
<line class="st3" x1="461.1" y1="392.8" x2="455.2" y2="388.9"/>
<line class="st3" x1="455.2" y1="388.9" x2="446.5" y2="392.6"/>
<line class="st3" x1="446.5" y1="392.6" x2="439.6" y2="399.1"/>
<line class="st3" x1="439.6" y1="399.1" x2="434.3" y2="406.1"/>
<line class="st3" x1="434.3" y1="406.1" x2="430.5" y2="414"/>
<line class="st3" x1="430.5" y1="414" x2="424.5" y2="426"/>
<line class="st3" x1="449.1" y1="397.5" x2="442.8" y2="402.2"/>
<line class="st3" x1="442.8" y1="402.2" x2="436.9" y2="411.8"/>
<line class="st3" x1="436.9" y1="411.8" x2="435.9" y2="420.7"/>
<line class="st3" x1="435.9" y1="420.7" x2="437.1" y2="427.1"/>
<line class="st3" x1="437.1" y1="427.1" x2="441.1" y2="430"/>
<line class="st3" x1="441.1" y1="430" x2="447.5" y2="429.3"/>
<line class="st3" x1="447.5" y1="429.3" x2="453.1" y2="425.1"/>
<line class="st3" x1="453.1" y1="425.1" x2="456.8" y2="420.7"/>
<line class="st3" x1="456.8" y1="420.7" x2="459.9" y2="415.5"/>
<line class="st3" x1="459.9" y1="415.5" x2="462.3" y2="409.8"/>
<line class="st3" x1="462.3" y1="409.8" x2="462.6" y2="404"/>
<line class="st3" x1="462.6" y1="404" x2="461.3" y2="399.5"/>
<line class="st3" x1="461.3" y1="399.5" x2="458.3" y2="396.2"/>
<line class="st3" x1="458.3" y1="396.2" x2="453.7" y2="395.6"/>
<line class="st3" x1="453.7" y1="395.6" x2="449.1" y2="397.5"/>
<line class="st3" x1="608.6" y1="314.2" x2="605.3" y2="310.9"/>
<line class="st3" x1="605.3" y1="310.9" x2="600.5" y2="310.5"/>
<line class="st3" x1="600.5" y1="310.5" x2="595.3" y2="313"/>
<line class="st3" x1="595.3" y1="313" x2="590.2" y2="317.3"/>
<line class="st3" x1="590.2" y1="317.3" x2="585.9" y2="323.4"/>
<line class="st3" x1="585.9" y1="323.4" x2="583.5" y2="330.5"/>
<line class="st3" x1="583.5" y1="330.5" x2="583.7" y2="337.7"/>
<line class="st3" x1="583.7" y1="337.7" x2="586.2" y2="343.2"/>
<line class="st3" x1="586.2" y1="343.2" x2="590.5" y2="344.5"/>
<line class="st3" x1="590.5" y1="344.5" x2="596.4" y2="343.2"/>
<line class="st3" x1="596.4" y1="343.2" x2="602" y2="338.5"/>
<line class="st3" x1="602" y1="338.5" x2="606.3" y2="332.3"/>
<line class="st3" x1="606.3" y1="332.3" x2="609.1" y2="325.1"/>
<line class="st3" x1="609.1" y1="325.1" x2="609.9" y2="319.1"/>
<line class="st3" x1="609.9" y1="319.1" x2="608.6" y2="314.2"/>
<line class="st3" x1="612.2" y1="317.7" x2="612.2" y2="314.7"/>
<line class="st3" x1="612.2" y1="314.7" x2="611.2" y2="310.7"/>
<line class="st3" x1="611.2" y1="310.7" x2="607.8" y2="306.4"/>
<line class="st3" x1="607.8" y1="306.4" x2="604.7" y2="304.1"/>
<line class="st3" x1="604.7" y1="304.1" x2="601" y2="302.6"/>
<line class="st3" x1="601" y1="302.6" x2="595" y2="306.4"/>
<line class="st3" x1="595" y1="306.4" x2="590.2" y2="310.8"/>
<line class="st3" x1="590.2" y1="310.8" x2="583.5" y2="318.5"/>
<line class="st3" x1="583.5" y1="318.5" x2="577.4" y2="328.8"/>
<line class="st3" x1="577.4" y1="328.8" x2="574.1" y2="336.6"/>
<line class="st3" x1="574.1" y1="336.6" x2="572.8" y2="341.3"/>
<line class="st3" x1="320.3" y1="359.7" x2="324.9" y2="364.8"/>
<line class="st3" x1="324.9" y1="364.8" x2="345" y2="378.5"/>
<line class="st3" x1="345" y1="378.5" x2="377.9" y2="396.2"/>
<line class="st3" x1="377.9" y1="396.2" x2="398.7" y2="407.9"/>
<line class="st3" x1="398.7" y1="407.9" x2="409" y2="412.4"/>
<line class="st3" x1="409" y1="412.4" x2="436.5" y2="403.2"/>
<line class="st3" x1="407.4" y1="389" x2="407.6" y2="385.9"/>
<line class="st3" x1="407.6" y1="385.9" x2="438" y2="332.5"/>
<line class="st3" x1="438" y1="332.5" x2="431.3" y2="325.4"/>
<line class="st3" x1="431.3" y1="325.4" x2="374.9" y2="294.3"/>
<line class="st3" x1="438" y1="332.5" x2="441.8" y2="328.6"/>
<line class="st3" x1="441.8" y1="328.6" x2="523.9" y2="284"/>
<line class="st3" x1="490.2" y1="305.2" x2="503.1" y2="336.5"/>
<line class="st3" x1="503.1" y1="336.5" x2="506.3" y2="339.2"/>
<line class="st3" x1="506.3" y1="339.2" x2="508.1" y2="349"/>
<line class="st3" x1="508.1" y1="349" x2="508.7" y2="360.1"/>
<line class="st3" x1="508.7" y1="360.1" x2="503.5" y2="378.3"/>
<line class="st3" x1="503.5" y1="378.3" x2="503.4" y2="382.7"/>
<line class="st3" x1="446.2" y1="367.5" x2="445.7" y2="374.7"/>
<line class="st3" x1="445.7" y1="374.7" x2="448.2" y2="383.3"/>
<line class="st3" x1="448.2" y1="383.3" x2="455.2" y2="388.9"/>
<line class="st3" x1="455.2" y1="388.9" x2="457.4" y2="388"/>
<line class="st3" x1="457.4" y1="388" x2="465.3" y2="388.6"/>
<line class="st3" x1="465.3" y1="388.6" x2="468.2" y2="394"/>
<line class="st3" x1="468.2" y1="394" x2="467.6" y2="401.9"/>
<line class="st3" x1="467.6" y1="401.9" x2="466.4" y2="406.2"/>
<line class="st3" x1="400.7" y1="392.2" x2="409.5" y2="395.6"/>
<line class="st3" x1="409.5" y1="395.6" x2="413.4" y2="394.4"/>
<line class="st3" x1="323.4" y1="345.4" x2="330.4" y2="349.8"/>
<line class="st3" x1="451.9" y1="370" x2="461.1" y2="365.4"/>
<line class="st3" x1="461.1" y1="365.4" x2="461.8" y2="370.1"/>
<line class="st3" x1="461.8" y1="370.1" x2="453.4" y2="374.4"/>
<line class="st3" x1="453.4" y1="374.4" x2="451.9" y2="370"/>
<line class="st3" x1="508.2" y1="340.4" x2="508.9" y2="345.2"/>
<line class="st3" x1="508.9" y1="345.2" x2="518.2" y2="340"/>
<line class="st3" x1="518.2" y1="340" x2="517.2" y2="334.7"/>
<line class="st3" x1="517.2" y1="334.7" x2="508.2" y2="340.4"/>
<line class="st3" x1="546.6" y1="297.7" x2="561.9" y2="304.5"/>
<line class="st3" x1="561.9" y1="304.5" x2="560.5" y2="305.4"/>
<line class="st3" x1="560.5" y1="305.4" x2="564.5" y2="311.3"/>
<line class="st3" x1="564.5" y1="311.3" x2="564.2" y2="318.2"/>
<line class="st3" x1="564.2" y1="318.2" x2="562.2" y2="318.6"/>
<line class="st3" x1="562.2" y1="318.6" x2="554.3" y2="312.1"/>
<line class="st3" x1="554.3" y1="312.1" x2="551" y2="310.4"/>
<line class="st3" x1="563.1" y1="299.9" x2="565.7" y2="307.2"/>
<line class="st3" x1="565.7" y1="307.2" x2="569.3" y2="319.5"/>
<line class="st3" x1="569.3" y1="319.5" x2="564.3" y2="343.7"/>
<line class="st3" x1="564.3" y1="343.7" x2="563.5" y2="349.1"/>
<line class="st3" x1="572.8" y1="341.3" x2="564.3" y2="343.7"/>
<line class="st3" x1="564.3" y1="343.7" x2="503.5" y2="378.3"/>
<line class="st3" x1="503.5" y1="378.3" x2="467.6" y2="401.9"/>
<line class="st3" x1="563.1" y1="299.9" x2="568.9" y2="297"/>
<line class="st3" x1="568.9" y1="297" x2="603.5" y2="280.1"/>
<line class="st3" x1="603.5" y1="280.1" x2="620.3" y2="272.6"/>
<line class="st3" x1="620.3" y1="272.6" x2="624.2" y2="270.3"/>
<line class="st3" x1="627.8" y1="279.6" x2="628.1" y2="286"/>
<line class="st3" x1="628.1" y1="286" x2="612.8" y2="302.7"/>
<line class="st3" x1="601" y1="302.6" x2="608.4" y2="300.7"/>
<line class="st3" x1="608.4" y1="300.7" x2="613.2" y2="302.3"/>
<line class="st3" x1="613.2" y1="302.3" x2="615.5" y2="309.1"/>
<line class="st3" x1="615.5" y1="309.1" x2="613.5" y2="319.9"/>
<line class="st3" x1="461.4" y1="247.7" x2="456.3" y2="248.7"/>
<line class="st3" x1="448.2" y1="252.1" x2="447.1" y2="252.5"/>
<line class="st3" x1="451.8" y1="398.5" x2="450.8" y2="405.4"/>
<line class="st3" x1="450.8" y1="405.4" x2="450.6" y2="405.7"/>
<line class="st3" x1="455.5" y1="398.5" x2="452.4" y2="405.6"/>
<line class="st3" x1="458.2" y1="400.9" x2="453.7" y2="406.4"/>
<line class="st3" x1="459.7" y1="404.4" x2="454.8" y2="408.3"/>
<line class="st3" x1="459.7" y1="409.4" x2="454.5" y2="410.3"/>
<line class="st3" x1="458" y1="413.9" x2="453.8" y2="413"/>
<line class="st3" x1="455.6" y1="418.3" x2="452.5" y2="415.6"/>
<line class="st3" x1="452.6" y1="422.3" x2="451" y2="417.9"/>
<line class="st3" x1="448.9" y1="424.9" x2="449.2" y2="419.2"/>
<line class="st3" x1="443.7" y1="428.3" x2="446.5" y2="420"/>
<line class="st3" x1="441.4" y1="426.9" x2="445.2" y2="419.8"/>
<line class="st3" x1="438.2" y1="424.6" x2="443.6" y2="419.5"/>
<line class="st3" x1="437" y1="420.2" x2="443.2" y2="416.9"/>
<line class="st3" x1="438.3" y1="415.4" x2="443.7" y2="414.9"/>
<line class="st3" x1="438.7" y1="411" x2="444.1" y2="412.3"/>
<line class="st3" x1="441.7" y1="407.2" x2="445.2" y2="409.6"/>
<line class="st3" x1="444.3" y1="403.4" x2="446.9" y2="407.4"/>
<line class="st3" x1="447.9" y1="400" x2="448.9" y2="406.1"/>
<line class="st3" x1="586" y1="339" x2="591.8" y2="333.1"/>
<line class="st3" x1="588.5" y1="341.6" x2="592.7" y2="333.9"/>
<line class="st3" x1="592.3" y1="342.6" x2="594.2" y2="334.5"/>
<line class="st3" x1="595.9" y1="341.1" x2="596.2" y2="333.3"/>
<line class="st3" x1="599.6" y1="337.5" x2="598.2" y2="332.1"/>
<line class="st3" x1="603.6" y1="332.8" x2="600" y2="329.9"/>
<line class="st3" x1="606" y1="327.7" x2="601.2" y2="327.4"/>
<line class="st3" x1="607.7" y1="322.5" x2="602.2" y2="324.9"/>
<line class="st3" x1="607.5" y1="317.2" x2="601.9" y2="322.8"/>
<line class="st3" x1="605.9" y1="313.7" x2="601.4" y2="321"/>
<line class="st3" x1="603.1" y1="312.4" x2="599.7" y2="320.7"/>
<line class="st3" x1="599" y1="312.9" x2="598.6" y2="320.4"/>
<line class="st3" x1="595.1" y1="314.7" x2="596.3" y2="321.2"/>
<line class="st3" x1="592" y1="317.6" x2="594.1" y2="322.3"/>
<line class="st3" x1="588.8" y1="321.3" x2="592.7" y2="324.3"/>
<line class="st3" x1="586.8" y1="326.1" x2="591.7" y2="326.6"/>
<line class="st3" x1="584.9" y1="330.6" x2="591.5" y2="329"/>
<line class="st3" x1="585.2" y1="334.6" x2="590.8" y2="331.8"/>
<line class="st3" x1="560.5" y1="305.4" x2="557" y2="304.2"/>
<line class="st3" x1="557" y1="304.2" x2="555.1" y2="305.4"/>
<line class="st3" x1="555.1" y1="306.9" x2="552.2" y2="306.6"/>
<line class="st3" x1="552.2" y1="306.6" x2="550.5" y2="308.9"/>
<polyline class="st2" points="366,452.1 357.4,462.2 356.1,460 354.9,469.5 350.6,477.2 344.1,484.9 340.9,487.5 333.4,490.6 
	327.6,489.9 316.7,483.6 315,488.7 303.3,492.8 257.4,519.8 240.6,528.4 210.3,548.5 208.6,548 207.3,554 205.3,558.8 200,566.9 
	192.3,573.9 186.4,576 179.8,575.3 168.4,568.3 157.2,569.4 153.6,568.6 126.2,554.4 104.3,542.1 82.4,528.2 68.4,518.7 64.6,513.4 
	64.2,502 66.6,498.4 67.4,484.7 68.2,480.6 94.6,458.4 106.9,447.7 109,443.7 116.7,437.8 159.4,411.1 190.9,394.8 191.5,388.3 
	194.8,386.3 205,390 210.5,390 223.2,392.9 252,379.6 274.4,370.3 289.3,366.4 328.5,386.1 366.3,411.6 370.6,414 371.7,421.9 
	375.2,425.9 373.6,436 366,452.1 "/>
<line class="st3" x1="68.2" y1="480.6" x2="94.6" y2="458.4"/>
<line class="st3" x1="94.6" y1="458.4" x2="106.9" y2="447.7"/>
<line class="st3" x1="106.9" y1="447.7" x2="109" y2="443.7"/>
<line class="st3" x1="109" y1="443.7" x2="116.7" y2="437.8"/>
<line class="st3" x1="116.7" y1="437.8" x2="159.4" y2="411.1"/>
<line class="st3" x1="159.4" y1="411.1" x2="190.9" y2="394.8"/>
<line class="st3" x1="190.9" y1="394.8" x2="191.5" y2="388.3"/>
<line class="st3" x1="191.5" y1="388.3" x2="194.8" y2="386.3"/>
<line class="st3" x1="194.8" y1="386.3" x2="205" y2="390"/>
<line class="st3" x1="205" y1="390" x2="210.5" y2="390"/>
<line class="st3" x1="210.5" y1="390" x2="223.2" y2="392.9"/>
<line class="st3" x1="223.2" y1="392.9" x2="252" y2="379.6"/>
<line class="st3" x1="252" y1="379.6" x2="274.4" y2="370.3"/>
<line class="st3" x1="274.4" y1="370.3" x2="289.3" y2="366.4"/>
<line class="st3" x1="289.3" y1="366.4" x2="328.5" y2="386.1"/>
<line class="st3" x1="328.5" y1="386.1" x2="366.3" y2="411.6"/>
<line class="st3" x1="366.3" y1="411.6" x2="370.6" y2="414"/>
<line class="st3" x1="370.6" y1="414" x2="371.7" y2="421.9"/>
<line class="st3" x1="371.7" y1="421.9" x2="375.2" y2="425.9"/>
<line class="st3" x1="375.2" y1="425.9" x2="373.6" y2="436"/>
<line class="st3" x1="373.6" y1="436" x2="366" y2="452.1"/>
<line class="st3" x1="366" y1="452.1" x2="357.4" y2="462.2"/>
<line class="st3" x1="357.4" y1="462.2" x2="356.1" y2="460"/>
<line class="st3" x1="356.1" y1="460" x2="354.9" y2="469.5"/>
<line class="st3" x1="354.9" y1="469.5" x2="350.6" y2="477.2"/>
<line class="st3" x1="350.6" y1="477.2" x2="344.1" y2="484.9"/>
<line class="st3" x1="344.1" y1="484.9" x2="340.9" y2="487.5"/>
<line class="st3" x1="340.9" y1="487.5" x2="333.4" y2="490.6"/>
<line class="st3" x1="333.4" y1="490.6" x2="327.6" y2="489.9"/>
<line class="st3" x1="327.6" y1="489.9" x2="316.7" y2="483.6"/>
<line class="st3" x1="316.7" y1="483.6" x2="315" y2="488.7"/>
<line class="st3" x1="315" y1="488.7" x2="303.3" y2="492.8"/>
<line class="st3" x1="303.3" y1="492.8" x2="257.4" y2="519.8"/>
<line class="st3" x1="257.4" y1="519.8" x2="240.6" y2="528.4"/>
<line class="st3" x1="240.6" y1="528.4" x2="210.3" y2="548.5"/>
<line class="st3" x1="210.3" y1="548.5" x2="208.6" y2="548"/>
<line class="st3" x1="208.6" y1="548" x2="207.3" y2="554"/>
<line class="st3" x1="207.3" y1="554" x2="205.3" y2="558.8"/>
<line class="st3" x1="205.3" y1="558.8" x2="200" y2="566.9"/>
<line class="st3" x1="200" y1="566.9" x2="192.3" y2="573.9"/>
<line class="st3" x1="192.3" y1="573.9" x2="186.4" y2="576"/>
<line class="st3" x1="186.4" y1="576" x2="179.8" y2="575.3"/>
<line class="st3" x1="179.8" y1="575.3" x2="168.4" y2="568.3"/>
<line class="st3" x1="168.4" y1="568.3" x2="157.2" y2="569.4"/>
<line class="st3" x1="157.2" y1="569.4" x2="153.6" y2="568.6"/>
<line class="st3" x1="153.6" y1="568.6" x2="126.2" y2="554.4"/>
<line class="st3" x1="126.2" y1="554.4" x2="104.3" y2="542.1"/>
<line class="st3" x1="104.3" y1="542.1" x2="82.4" y2="528.2"/>
<line class="st3" x1="82.4" y1="528.2" x2="68.4" y2="518.7"/>
<line class="st3" x1="68.4" y1="518.7" x2="64.6" y2="513.4"/>
<line class="st3" x1="64.6" y1="513.4" x2="64.2" y2="502"/>
<line class="st3" x1="64.2" y1="502" x2="66.6" y2="498.4"/>
<line class="st3" x1="66.6" y1="498.4" x2="67.4" y2="484.7"/>
<line class="st3" x1="67.4" y1="484.7" x2="68.2" y2="480.6"/>
<line class="st3" x1="112.5" y1="447.9" x2="170.1" y2="481.6"/>
<line class="st3" x1="170.1" y1="481.6" x2="171" y2="485.7"/>
<line class="st3" x1="171" y1="485.7" x2="157.2" y2="511.9"/>
<line class="st3" x1="157.2" y1="511.9" x2="154.6" y2="514.4"/>
<line class="st3" x1="154.6" y1="514.4" x2="129.6" y2="500.5"/>
<line class="st3" x1="129.6" y1="500.5" x2="96.8" y2="481.4"/>
<line class="st3" x1="96.8" y1="481.4" x2="86.1" y2="474.5"/>
<line class="st3" x1="86.1" y1="474.5" x2="85.8" y2="472.4"/>
<line class="st3" x1="85.8" y1="472.4" x2="112.5" y2="447.9"/>
<line class="st3" x1="194.8" y1="468.5" x2="190.1" y2="509.8"/>
<line class="st3" x1="190.1" y1="509.8" x2="266.8" y2="467.9"/>
<line class="st3" x1="266.8" y1="467.9" x2="294.9" y2="452.7"/>
<line class="st3" x1="294.9" y1="452.7" x2="290.5" y2="440"/>
<line class="st3" x1="290.5" y1="440" x2="267.7" y2="429.5"/>
<line class="st3" x1="267.7" y1="429.5" x2="194.8" y2="468.5"/>
<line class="st3" x1="208.5" y1="391.2" x2="228.4" y2="400.4"/>
<line class="st3" x1="228.4" y1="400.4" x2="242.4" y2="408.5"/>
<line class="st3" x1="242.4" y1="408.5" x2="267" y2="426"/>
<line class="st3" x1="267" y1="426" x2="307" y2="442.2"/>
<line class="st3" x1="307" y1="442.2" x2="288.7" y2="425.5"/>
<line class="st3" x1="288.7" y1="425.5" x2="269.4" y2="411.4"/>
<line class="st3" x1="269.4" y1="411.4" x2="248.8" y2="402"/>
<line class="st3" x1="248.8" y1="402" x2="236.7" y2="397"/>
<line class="st3" x1="236.7" y1="397" x2="216.5" y2="392.2"/>
<line class="st3" x1="216.5" y1="392.2" x2="208.5" y2="391.2"/>
<line class="st3" x1="192.3" y1="388.5" x2="200.2" y2="390.9"/>
<line class="st3" x1="200.2" y1="390.9" x2="192" y2="394.4"/>
<line class="st3" x1="192" y1="394.4" x2="192.3" y2="388.5"/>
<line class="st3" x1="299" y1="447.7" x2="306.4" y2="454.5"/>
<line class="st3" x1="306.4" y1="454.5" x2="305.9" y2="460.1"/>
<line class="st3" x1="305.9" y1="460.1" x2="299" y2="454"/>
<line class="st3" x1="299" y1="454" x2="299" y2="447.7"/>
<line class="st3" x1="94.5" y1="500.2" x2="92.9" y2="508.6"/>
<line class="st3" x1="92.9" y1="508.6" x2="126.5" y2="527.3"/>
<line class="st3" x1="126.5" y1="527.3" x2="126.8" y2="518.6"/>
<line class="st3" x1="126.8" y1="518.6" x2="94.5" y2="500.2"/>
<line class="st3" x1="67.8" y1="482.5" x2="73.4" y2="486.4"/>
<line class="st3" x1="73.4" y1="486.4" x2="75.6" y2="500.1"/>
<line class="st3" x1="75.6" y1="500.1" x2="75.6" y2="506.5"/>
<line class="st3" x1="75.6" y1="506.5" x2="67.4" y2="500.7"/>
<line class="st3" x1="67.4" y1="500.7" x2="66.6" y2="498.4"/>
<line class="st3" x1="146.5" y1="529" x2="154.1" y2="532.5"/>
<line class="st3" x1="154.1" y1="532.5" x2="156.9" y2="531.5"/>
<line class="st3" x1="156.9" y1="531.5" x2="158.3" y2="550.2"/>
<line class="st3" x1="158.3" y1="550.2" x2="154.4" y2="551.3"/>
<line class="st3" x1="154.4" y1="551.3" x2="142.8" y2="545.8"/>
<line class="st3" x1="142.8" y1="545.8" x2="142.8" y2="539.5"/>
<line class="st3" x1="142.8" y1="539.5" x2="146.5" y2="529"/>
<line class="st3" x1="208.6" y1="548" x2="208.8" y2="543.2"/>
<line class="st3" x1="208.8" y1="543.2" x2="208.1" y2="539.8"/>
<line class="st3" x1="208.1" y1="539.8" x2="205" y2="535"/>
<line class="st3" x1="205" y1="535" x2="199.1" y2="531.2"/>
<line class="st3" x1="199.1" y1="531.2" x2="190.4" y2="534.9"/>
<line class="st3" x1="190.4" y1="534.9" x2="183.5" y2="541.4"/>
<line class="st3" x1="183.5" y1="541.4" x2="178.2" y2="548.4"/>
<line class="st3" x1="178.2" y1="548.4" x2="174.4" y2="556.3"/>
<line class="st3" x1="174.4" y1="556.3" x2="168.4" y2="568.3"/>
<line class="st3" x1="192.9" y1="539.7" x2="186.7" y2="544.5"/>
<line class="st3" x1="186.7" y1="544.5" x2="180.8" y2="554"/>
<line class="st3" x1="180.8" y1="554" x2="179.8" y2="563"/>
<line class="st3" x1="179.8" y1="563" x2="181" y2="569.4"/>
<line class="st3" x1="181" y1="569.4" x2="185" y2="572.3"/>
<line class="st3" x1="185" y1="572.3" x2="191.4" y2="571.5"/>
<line class="st3" x1="191.4" y1="571.5" x2="197" y2="567.3"/>
<line class="st3" x1="197" y1="567.3" x2="200.7" y2="563"/>
<line class="st3" x1="200.7" y1="563" x2="203.8" y2="557.7"/>
<line class="st3" x1="203.8" y1="557.7" x2="206.2" y2="552.1"/>
<line class="st3" x1="206.2" y1="552.1" x2="206.5" y2="546.2"/>
<line class="st3" x1="206.5" y1="546.2" x2="205.2" y2="541.8"/>
<line class="st3" x1="205.2" y1="541.8" x2="202.2" y2="538.5"/>
<line class="st3" x1="202.2" y1="538.5" x2="197.6" y2="537.9"/>
<line class="st3" x1="197.6" y1="537.9" x2="192.9" y2="539.7"/>
<line class="st3" x1="352.5" y1="456.4" x2="349.2" y2="453.2"/>
<line class="st3" x1="349.2" y1="453.2" x2="344.4" y2="452.7"/>
<line class="st3" x1="344.4" y1="452.7" x2="339.2" y2="455.2"/>
<line class="st3" x1="339.2" y1="455.2" x2="334.1" y2="459.5"/>
<line class="st3" x1="334.1" y1="459.5" x2="329.8" y2="465.7"/>
<line class="st3" x1="329.8" y1="465.7" x2="327.3" y2="472.8"/>
<line class="st3" x1="327.3" y1="472.8" x2="327.6" y2="479.9"/>
<line class="st3" x1="327.6" y1="479.9" x2="330.1" y2="485.5"/>
<line class="st3" x1="330.1" y1="485.5" x2="334.4" y2="486.8"/>
<line class="st3" x1="334.4" y1="486.8" x2="340.3" y2="485.5"/>
<line class="st3" x1="340.3" y1="485.5" x2="345.9" y2="480.8"/>
<line class="st3" x1="345.9" y1="480.8" x2="350.2" y2="474.5"/>
<line class="st3" x1="350.2" y1="474.5" x2="353" y2="467.3"/>
<line class="st3" x1="353" y1="467.3" x2="353.8" y2="461.3"/>
<line class="st3" x1="353.8" y1="461.3" x2="352.5" y2="456.4"/>
<line class="st3" x1="356.1" y1="460" x2="356.1" y2="457"/>
<line class="st3" x1="356.1" y1="457" x2="355" y2="453"/>
<line class="st3" x1="355" y1="453" x2="351.7" y2="448.6"/>
<line class="st3" x1="351.7" y1="448.6" x2="348.6" y2="446.4"/>
<line class="st3" x1="348.6" y1="446.4" x2="344.8" y2="444.9"/>
<line class="st3" x1="344.8" y1="444.9" x2="338.9" y2="448.7"/>
<line class="st3" x1="338.9" y1="448.7" x2="334.1" y2="453.1"/>
<line class="st3" x1="334.1" y1="453.1" x2="327.4" y2="460.7"/>
<line class="st3" x1="327.4" y1="460.7" x2="321.3" y2="471.1"/>
<line class="st3" x1="321.3" y1="471.1" x2="318" y2="478.9"/>
<line class="st3" x1="318" y1="478.9" x2="316.7" y2="483.6"/>
<line class="st3" x1="64.2" y1="502" x2="68.7" y2="507.1"/>
<line class="st3" x1="68.7" y1="507.1" x2="88.9" y2="520.7"/>
<line class="st3" x1="88.9" y1="520.7" x2="121.8" y2="538.5"/>
<line class="st3" x1="121.8" y1="538.5" x2="142.6" y2="550.2"/>
<line class="st3" x1="142.6" y1="550.2" x2="152.9" y2="554.7"/>
<line class="st3" x1="152.9" y1="554.7" x2="180.4" y2="545.4"/>
<line class="st3" x1="151.3" y1="531.2" x2="151.5" y2="528.1"/>
<line class="st3" x1="151.5" y1="528.1" x2="181.8" y2="474.8"/>
<line class="st3" x1="181.8" y1="474.8" x2="175.2" y2="467.7"/>
<line class="st3" x1="175.2" y1="467.7" x2="118.8" y2="436.6"/>
<line class="st3" x1="181.8" y1="474.8" x2="185.7" y2="470.9"/>
<line class="st3" x1="185.7" y1="470.9" x2="267.8" y2="426.3"/>
<line class="st3" x1="234.1" y1="447.5" x2="247" y2="478.7"/>
<line class="st3" x1="247" y1="478.7" x2="250.2" y2="481.4"/>
<line class="st3" x1="250.2" y1="481.4" x2="251.9" y2="491.2"/>
<line class="st3" x1="251.9" y1="491.2" x2="252.5" y2="502.3"/>
<line class="st3" x1="252.5" y1="502.3" x2="247.4" y2="520.6"/>
<line class="st3" x1="247.4" y1="520.6" x2="247.3" y2="525"/>
<line class="st3" x1="190.1" y1="509.8" x2="189.5" y2="517"/>
<line class="st3" x1="189.5" y1="517" x2="192.1" y2="525.6"/>
<line class="st3" x1="192.1" y1="525.6" x2="199.1" y2="531.2"/>
<line class="st3" x1="199.1" y1="531.2" x2="201.3" y2="530.3"/>
<line class="st3" x1="201.3" y1="530.3" x2="209.2" y2="530.9"/>
<line class="st3" x1="209.2" y1="530.9" x2="212.1" y2="536.3"/>
<line class="st3" x1="212.1" y1="536.3" x2="211.5" y2="544.2"/>
<line class="st3" x1="211.5" y1="544.2" x2="210.3" y2="548.5"/>
<line class="st3" x1="144.6" y1="534.4" x2="153.4" y2="537.9"/>
<line class="st3" x1="153.4" y1="537.9" x2="157.3" y2="536.6"/>
<line class="st3" x1="67.3" y1="487.7" x2="74.3" y2="492.1"/>
<line class="st3" x1="195.8" y1="512.3" x2="205" y2="507.7"/>
<line class="st3" x1="205" y1="507.7" x2="205.7" y2="512.4"/>
<line class="st3" x1="205.7" y1="512.4" x2="197.2" y2="516.7"/>
<line class="st3" x1="197.2" y1="516.7" x2="195.8" y2="512.3"/>
<line class="st3" x1="252.1" y1="482.7" x2="252.8" y2="487.5"/>
<line class="st3" x1="252.8" y1="487.5" x2="262.1" y2="482.2"/>
<line class="st3" x1="262.1" y1="482.2" x2="261.1" y2="477"/>
<line class="st3" x1="261.1" y1="477" x2="252.1" y2="482.7"/>
<line class="st3" x1="290.5" y1="440" x2="305.7" y2="446.8"/>
<line class="st3" x1="305.7" y1="446.8" x2="304.4" y2="447.7"/>
<line class="st3" x1="304.4" y1="447.7" x2="308.4" y2="453.6"/>
<line class="st3" x1="308.4" y1="453.6" x2="308.1" y2="460.5"/>
<line class="st3" x1="308.1" y1="460.5" x2="306.1" y2="460.8"/>
<line class="st3" x1="306.1" y1="460.8" x2="298.2" y2="454.3"/>
<line class="st3" x1="298.2" y1="454.3" x2="294.9" y2="452.7"/>
<line class="st3" x1="307" y1="442.2" x2="309.6" y2="449.5"/>
<line class="st3" x1="309.6" y1="449.5" x2="313.2" y2="461.8"/>
<line class="st3" x1="313.2" y1="461.8" x2="308.2" y2="486"/>
<line class="st3" x1="308.2" y1="486" x2="307.4" y2="491.3"/>
<line class="st3" x1="316.7" y1="483.6" x2="308.2" y2="486"/>
<line class="st3" x1="308.2" y1="486" x2="247.4" y2="520.6"/>
<line class="st3" x1="247.4" y1="520.6" x2="211.5" y2="544.2"/>
<line class="st3" x1="307" y1="442.2" x2="312.8" y2="439.3"/>
<line class="st3" x1="312.8" y1="439.3" x2="347.4" y2="422.4"/>
<line class="st3" x1="347.4" y1="422.4" x2="364.2" y2="414.8"/>
<line class="st3" x1="364.2" y1="414.8" x2="368" y2="412.6"/>
<line class="st3" x1="371.7" y1="421.9" x2="372" y2="428.2"/>
<line class="st3" x1="372" y1="428.2" x2="356.7" y2="445"/>
<line class="st3" x1="344.8" y1="444.9" x2="352.3" y2="443"/>
<line class="st3" x1="352.3" y1="443" x2="357.1" y2="444.5"/>
<line class="st3" x1="357.1" y1="444.5" x2="359.4" y2="451.4"/>
<line class="st3" x1="359.4" y1="451.4" x2="357.4" y2="462.2"/>
<line class="st3" x1="205.2" y1="390" x2="200.2" y2="390.9"/>
<line class="st3" x1="192" y1="394.4" x2="190.9" y2="394.8"/>
<line class="st3" x1="195.7" y1="540.8" x2="194.6" y2="547.7"/>
<line class="st3" x1="194.6" y1="547.7" x2="194.5" y2="548"/>
<line class="st3" x1="199.4" y1="540.8" x2="196.3" y2="547.9"/>
<line class="st3" x1="202.1" y1="543.1" x2="197.6" y2="548.7"/>
<line class="st3" x1="203.6" y1="546.6" x2="198.7" y2="550.5"/>
<line class="st3" x1="203.6" y1="551.7" x2="198.4" y2="552.5"/>
<line class="st3" x1="201.9" y1="556.1" x2="197.7" y2="555.3"/>
<line class="st3" x1="199.5" y1="560.6" x2="196.4" y2="557.9"/>
<line class="st3" x1="196.5" y1="564.5" x2="194.9" y2="560.1"/>
<line class="st3" x1="192.8" y1="567.2" x2="193.1" y2="561.5"/>
<line class="st3" x1="187.6" y1="570.5" x2="190.4" y2="562.3"/>
<line class="st3" x1="185.3" y1="569.2" x2="189" y2="562.1"/>
<line class="st3" x1="182" y1="566.9" x2="187.5" y2="561.8"/>
<line class="st3" x1="180.9" y1="562.5" x2="187.1" y2="559.1"/>
<line class="st3" x1="182.1" y1="557.7" x2="187.6" y2="557.1"/>
<line class="st3" x1="182.5" y1="553.3" x2="188" y2="554.6"/>
<line class="st3" x1="185.6" y1="549.5" x2="189" y2="551.8"/>
<line class="st3" x1="188.1" y1="545.6" x2="190.8" y2="549.6"/>
<line class="st3" x1="191.8" y1="542.2" x2="192.8" y2="548.4"/>
<line class="st3" x1="329.8" y1="481.3" x2="335.7" y2="475.4"/>
<line class="st3" x1="332.4" y1="483.9" x2="336.6" y2="476.2"/>
<line class="st3" x1="336.2" y1="484.9" x2="338.1" y2="476.8"/>
<line class="st3" x1="339.8" y1="483.4" x2="340.1" y2="475.5"/>
<line class="st3" x1="343.5" y1="479.8" x2="342.1" y2="474.4"/>
<line class="st3" x1="347.5" y1="475.1" x2="343.9" y2="472.1"/>
<line class="st3" x1="349.9" y1="470" x2="345.1" y2="469.7"/>
<line class="st3" x1="351.6" y1="464.7" x2="346.1" y2="467.2"/>
<line class="st3" x1="351.4" y1="459.4" x2="345.8" y2="465"/>
<line class="st3" x1="349.7" y1="456" x2="345.3" y2="463.2"/>
<line class="st3" x1="347" y1="454.6" x2="343.6" y2="463"/>
<line class="st3" x1="342.9" y1="455.1" x2="342.5" y2="462.7"/>
<line class="st3" x1="339" y1="457" x2="340.1" y2="463.5"/>
<line class="st3" x1="335.9" y1="459.9" x2="338" y2="464.5"/>
<line class="st3" x1="332.7" y1="463.6" x2="336.6" y2="466.6"/>
<line class="st3" x1="330.7" y1="468.4" x2="335.6" y2="468.9"/>
<line class="st3" x1="328.8" y1="472.9" x2="335.3" y2="471.3"/>
<line class="st3" x1="329.1" y1="476.9" x2="334.7" y2="474.1"/>
<line class="st3" x1="304.4" y1="447.7" x2="300.8" y2="446.5"/>
<line class="st3" x1="300.8" y1="446.5" x2="299" y2="447.7"/>
<line class="st3" x1="299" y1="449.2" x2="296.1" y2="448.8"/>
<line class="st3" x1="296.1" y1="448.8" x2="294.4" y2="451.2"/>
<polyline class="st2" points="877.1,156.9 868.5,167 867.2,164.8 866,174.3 861.7,182 855.2,189.7 852,192.3 844.5,195.3 
	838.8,194.7 827.8,188.3 826.1,193.5 814.4,197.6 768.6,224.6 751.7,233.2 721.4,253.3 719.7,252.8 718.4,258.8 716.4,263.6 
	711.1,271.7 703.4,278.7 697.5,280.8 690.9,280.1 679.5,273.1 668.3,274.2 664.7,273.4 637.3,259.2 615.4,246.9 593.5,233 
	579.5,223.5 575.7,218.2 575.3,206.8 577.7,203.2 578.6,189.5 579.3,185.3 605.7,163.2 618,152.5 620.2,148.5 627.8,142.6 
	670.6,115.9 702.1,99.6 702.6,93 705.9,91.1 716.1,94.8 721.6,94.8 734.3,97.7 763.1,84.4 785.5,75.1 800.4,71.2 839.6,90.9 
	877.4,116.4 881.7,118.8 882.8,126.7 886.3,130.7 884.7,140.8 877.1,156.9 "/>
<line class="st3" x1="579.3" y1="185.3" x2="605.7" y2="163.2"/>
<line class="st3" x1="605.7" y1="163.2" x2="618" y2="152.5"/>
<line class="st3" x1="618" y1="152.5" x2="620.2" y2="148.5"/>
<line class="st3" x1="620.2" y1="148.5" x2="627.8" y2="142.6"/>
<line class="st3" x1="627.8" y1="142.6" x2="670.6" y2="115.9"/>
<line class="st3" x1="670.6" y1="115.9" x2="702.1" y2="99.6"/>
<line class="st3" x1="702.1" y1="99.6" x2="702.6" y2="93"/>
<line class="st3" x1="702.6" y1="93" x2="705.9" y2="91.1"/>
<line class="st3" x1="705.9" y1="91.1" x2="716.1" y2="94.8"/>
<line class="st3" x1="716.1" y1="94.8" x2="721.6" y2="94.8"/>
<line class="st3" x1="721.6" y1="94.8" x2="734.3" y2="97.7"/>
<line class="st3" x1="734.3" y1="97.7" x2="763.1" y2="84.4"/>
<line class="st3" x1="763.1" y1="84.4" x2="785.5" y2="75.1"/>
<line class="st3" x1="785.5" y1="75.1" x2="800.4" y2="71.2"/>
<line class="st3" x1="800.4" y1="71.2" x2="839.6" y2="90.9"/>
<line class="st3" x1="839.6" y1="90.9" x2="877.4" y2="116.4"/>
<line class="st3" x1="877.4" y1="116.4" x2="881.7" y2="118.8"/>
<line class="st3" x1="881.7" y1="118.8" x2="882.8" y2="126.7"/>
<line class="st3" x1="882.8" y1="126.7" x2="886.3" y2="130.7"/>
<line class="st3" x1="886.3" y1="130.7" x2="884.7" y2="140.8"/>
<line class="st3" x1="884.7" y1="140.8" x2="877.1" y2="156.9"/>
<line class="st3" x1="877.1" y1="156.9" x2="868.5" y2="167"/>
<line class="st3" x1="868.5" y1="167" x2="867.2" y2="164.8"/>
<line class="st3" x1="867.2" y1="164.8" x2="866" y2="174.3"/>
<line class="st3" x1="866" y1="174.3" x2="861.7" y2="182"/>
<line class="st3" x1="861.7" y1="182" x2="855.2" y2="189.7"/>
<line class="st3" x1="855.2" y1="189.7" x2="852" y2="192.3"/>
<line class="st3" x1="852" y1="192.3" x2="844.5" y2="195.3"/>
<line class="st3" x1="844.5" y1="195.3" x2="838.8" y2="194.7"/>
<line class="st3" x1="838.8" y1="194.7" x2="827.8" y2="188.3"/>
<line class="st3" x1="827.8" y1="188.3" x2="826.1" y2="193.5"/>
<line class="st3" x1="826.1" y1="193.5" x2="814.4" y2="197.6"/>
<line class="st3" x1="814.4" y1="197.6" x2="768.6" y2="224.6"/>
<line class="st3" x1="768.6" y1="224.6" x2="751.7" y2="233.2"/>
<line class="st3" x1="751.7" y1="233.2" x2="721.4" y2="253.3"/>
<line class="st3" x1="721.4" y1="253.3" x2="719.7" y2="252.8"/>
<line class="st3" x1="719.7" y1="252.8" x2="718.4" y2="258.8"/>
<line class="st3" x1="718.4" y1="258.8" x2="716.4" y2="263.6"/>
<line class="st3" x1="716.4" y1="263.6" x2="711.1" y2="271.7"/>
<line class="st3" x1="711.1" y1="271.7" x2="703.4" y2="278.7"/>
<line class="st3" x1="703.4" y1="278.7" x2="697.5" y2="280.8"/>
<line class="st3" x1="697.5" y1="280.8" x2="690.9" y2="280.1"/>
<line class="st3" x1="690.9" y1="280.1" x2="679.5" y2="273.1"/>
<line class="st3" x1="679.5" y1="273.1" x2="668.3" y2="274.2"/>
<line class="st3" x1="668.3" y1="274.2" x2="664.7" y2="273.4"/>
<line class="st3" x1="664.7" y1="273.4" x2="637.3" y2="259.2"/>
<line class="st3" x1="637.3" y1="259.2" x2="615.4" y2="246.9"/>
<line class="st3" x1="615.4" y1="246.9" x2="593.5" y2="233"/>
<line class="st3" x1="593.5" y1="233" x2="579.5" y2="223.5"/>
<line class="st3" x1="579.5" y1="223.5" x2="575.7" y2="218.2"/>
<line class="st3" x1="575.7" y1="218.2" x2="575.3" y2="206.8"/>
<line class="st3" x1="575.3" y1="206.8" x2="577.7" y2="203.2"/>
<line class="st3" x1="577.7" y1="203.2" x2="578.6" y2="189.5"/>
<line class="st3" x1="578.6" y1="189.5" x2="579.3" y2="185.3"/>
<line class="st3" x1="623.6" y1="152.7" x2="681.2" y2="186.4"/>
<line class="st3" x1="681.2" y1="186.4" x2="682.1" y2="190.5"/>
<line class="st3" x1="682.1" y1="190.5" x2="668.4" y2="216.7"/>
<line class="st3" x1="668.4" y1="216.7" x2="665.8" y2="219.2"/>
<line class="st3" x1="665.8" y1="219.2" x2="640.7" y2="205.3"/>
<line class="st3" x1="640.7" y1="205.3" x2="607.9" y2="186.2"/>
<line class="st3" x1="607.9" y1="186.2" x2="597.2" y2="179.3"/>
<line class="st3" x1="597.2" y1="179.3" x2="597" y2="177.2"/>
<line class="st3" x1="597" y1="177.2" x2="623.6" y2="152.7"/>
<line class="st3" x1="705.9" y1="173.2" x2="701.2" y2="214.6"/>
<line class="st3" x1="701.2" y1="214.6" x2="777.9" y2="172.7"/>
<line class="st3" x1="777.9" y1="172.7" x2="806" y2="157.5"/>
<line class="st3" x1="806" y1="157.5" x2="801.6" y2="144.8"/>
<line class="st3" x1="801.6" y1="144.8" x2="778.8" y2="134.3"/>
<line class="st3" x1="778.8" y1="134.3" x2="705.9" y2="173.2"/>
<line class="st3" x1="719.6" y1="96" x2="739.5" y2="105.2"/>
<line class="st3" x1="739.5" y1="105.2" x2="753.5" y2="113.3"/>
<line class="st3" x1="753.5" y1="113.3" x2="778.1" y2="130.8"/>
<line class="st3" x1="778.1" y1="130.8" x2="818.1" y2="147"/>
<line class="st3" x1="818.1" y1="147" x2="799.9" y2="130.3"/>
<line class="st3" x1="799.9" y1="130.3" x2="780.5" y2="116.2"/>
<line class="st3" x1="780.5" y1="116.2" x2="759.9" y2="106.7"/>
<line class="st3" x1="759.9" y1="106.7" x2="747.8" y2="101.8"/>
<line class="st3" x1="747.8" y1="101.8" x2="727.6" y2="97"/>
<line class="st3" x1="727.6" y1="97" x2="719.6" y2="96"/>
<line class="st3" x1="703.4" y1="93.3" x2="711.3" y2="95.7"/>
<line class="st3" x1="711.3" y1="95.7" x2="703.1" y2="99.2"/>
<line class="st3" x1="703.1" y1="99.2" x2="703.4" y2="93.3"/>
<line class="st3" x1="810.1" y1="152.5" x2="817.5" y2="159.3"/>
<line class="st3" x1="817.5" y1="159.3" x2="817.1" y2="164.9"/>
<line class="st3" x1="817.1" y1="164.9" x2="810.1" y2="158.8"/>
<line class="st3" x1="810.1" y1="158.8" x2="810.1" y2="152.5"/>
<line class="st3" x1="605.6" y1="205" x2="604.1" y2="213.4"/>
<line class="st3" x1="604.1" y1="213.4" x2="637.6" y2="232.1"/>
<line class="st3" x1="637.6" y1="232.1" x2="637.9" y2="223.4"/>
<line class="st3" x1="637.9" y1="223.4" x2="605.6" y2="205"/>
<line class="st3" x1="578.9" y1="187.3" x2="584.5" y2="191.2"/>
<line class="st3" x1="584.5" y1="191.2" x2="586.7" y2="204.9"/>
<line class="st3" x1="586.7" y1="204.9" x2="586.7" y2="211.3"/>
<line class="st3" x1="586.7" y1="211.3" x2="578.5" y2="205.5"/>
<line class="st3" x1="578.5" y1="205.5" x2="577.7" y2="203.2"/>
<line class="st3" x1="657.7" y1="233.8" x2="665.2" y2="237.3"/>
<line class="st3" x1="665.2" y1="237.3" x2="668.1" y2="236.3"/>
<line class="st3" x1="668.1" y1="236.3" x2="669.4" y2="255"/>
<line class="st3" x1="669.4" y1="255" x2="665.5" y2="256.1"/>
<line class="st3" x1="665.5" y1="256.1" x2="654" y2="250.6"/>
<line class="st3" x1="654" y1="250.6" x2="654" y2="244.3"/>
<line class="st3" x1="654" y1="244.3" x2="657.7" y2="233.8"/>
<line class="st3" x1="719.7" y1="252.8" x2="719.9" y2="248"/>
<line class="st3" x1="719.9" y1="248" x2="719.2" y2="244.6"/>
<line class="st3" x1="719.2" y1="244.6" x2="716.1" y2="239.8"/>
<line class="st3" x1="716.1" y1="239.8" x2="710.2" y2="236"/>
<line class="st3" x1="710.2" y1="236" x2="701.5" y2="239.7"/>
<line class="st3" x1="701.5" y1="239.7" x2="694.6" y2="246.2"/>
<line class="st3" x1="694.6" y1="246.2" x2="689.3" y2="253.2"/>
<line class="st3" x1="689.3" y1="253.2" x2="685.5" y2="261.1"/>
<line class="st3" x1="685.5" y1="261.1" x2="679.5" y2="273.1"/>
<line class="st3" x1="704.1" y1="244.5" x2="697.8" y2="249.3"/>
<line class="st3" x1="697.8" y1="249.3" x2="691.9" y2="258.8"/>
<line class="st3" x1="691.9" y1="258.8" x2="690.9" y2="267.8"/>
<line class="st3" x1="690.9" y1="267.8" x2="692.1" y2="274.2"/>
<line class="st3" x1="692.1" y1="274.2" x2="696.1" y2="277.1"/>
<line class="st3" x1="696.1" y1="277.1" x2="702.5" y2="276.3"/>
<line class="st3" x1="702.5" y1="276.3" x2="708.1" y2="272.1"/>
<line class="st3" x1="708.1" y1="272.1" x2="711.8" y2="267.8"/>
<line class="st3" x1="711.8" y1="267.8" x2="714.9" y2="262.5"/>
<line class="st3" x1="714.9" y1="262.5" x2="717.3" y2="256.9"/>
<line class="st3" x1="717.3" y1="256.9" x2="717.6" y2="251"/>
<line class="st3" x1="717.6" y1="251" x2="716.3" y2="246.6"/>
<line class="st3" x1="716.3" y1="246.6" x2="713.3" y2="243.3"/>
<line class="st3" x1="713.3" y1="243.3" x2="708.7" y2="242.7"/>
<line class="st3" x1="708.7" y1="242.7" x2="704.1" y2="244.5"/>
<line class="st3" x1="863.6" y1="161.2" x2="860.3" y2="158"/>
<line class="st3" x1="860.3" y1="158" x2="855.5" y2="157.5"/>
<line class="st3" x1="855.5" y1="157.5" x2="850.3" y2="160"/>
<line class="st3" x1="850.3" y1="160" x2="845.2" y2="164.3"/>
<line class="st3" x1="845.2" y1="164.3" x2="840.9" y2="170.5"/>
<line class="st3" x1="840.9" y1="170.5" x2="838.5" y2="177.6"/>
<line class="st3" x1="838.5" y1="177.6" x2="838.7" y2="184.7"/>
<line class="st3" x1="838.7" y1="184.7" x2="841.2" y2="190.3"/>
<line class="st3" x1="841.2" y1="190.3" x2="845.5" y2="191.6"/>
<line class="st3" x1="845.5" y1="191.6" x2="851.4" y2="190.3"/>
<line class="st3" x1="851.4" y1="190.3" x2="857" y2="185.6"/>
<line class="st3" x1="857" y1="185.6" x2="861.3" y2="179.3"/>
<line class="st3" x1="861.3" y1="179.3" x2="864.1" y2="172.1"/>
<line class="st3" x1="864.1" y1="172.1" x2="864.9" y2="166.1"/>
<line class="st3" x1="864.9" y1="166.1" x2="863.6" y2="161.2"/>
<line class="st3" x1="867.2" y1="164.8" x2="867.2" y2="161.7"/>
<line class="st3" x1="867.2" y1="161.7" x2="866.2" y2="157.8"/>
<line class="st3" x1="866.2" y1="157.8" x2="862.8" y2="153.4"/>
<line class="st3" x1="862.8" y1="153.4" x2="859.7" y2="151.2"/>
<line class="st3" x1="859.7" y1="151.2" x2="856" y2="149.6"/>
<line class="st3" x1="856" y1="149.6" x2="850" y2="153.5"/>
<line class="st3" x1="850" y1="153.5" x2="845.2" y2="157.9"/>
<line class="st3" x1="845.2" y1="157.9" x2="838.5" y2="165.5"/>
<line class="st3" x1="838.5" y1="165.5" x2="832.4" y2="175.9"/>
<line class="st3" x1="832.4" y1="175.9" x2="829.1" y2="183.7"/>
<line class="st3" x1="829.1" y1="183.7" x2="827.8" y2="188.3"/>
<line class="st3" x1="575.3" y1="206.8" x2="579.9" y2="211.9"/>
<line class="st3" x1="579.9" y1="211.9" x2="600" y2="225.5"/>
<line class="st3" x1="600" y1="225.5" x2="632.9" y2="243.3"/>
<line class="st3" x1="632.9" y1="243.3" x2="653.7" y2="255"/>
<line class="st3" x1="653.7" y1="255" x2="664" y2="259.5"/>
<line class="st3" x1="664" y1="259.5" x2="691.5" y2="250.2"/>
<line class="st3" x1="662.4" y1="236" x2="662.6" y2="232.9"/>
<line class="st3" x1="662.6" y1="232.9" x2="693" y2="179.6"/>
<line class="st3" x1="693" y1="179.6" x2="686.3" y2="172.5"/>
<line class="st3" x1="686.3" y1="172.5" x2="629.9" y2="141.3"/>
<line class="st3" x1="693" y1="179.6" x2="696.8" y2="175.7"/>
<line class="st3" x1="696.8" y1="175.7" x2="778.9" y2="131.1"/>
<line class="st3" x1="745.2" y1="152.3" x2="758.1" y2="183.5"/>
<line class="st3" x1="758.1" y1="183.5" x2="761.3" y2="186.2"/>
<line class="st3" x1="761.3" y1="186.2" x2="763.1" y2="196"/>
<line class="st3" x1="763.1" y1="196" x2="763.7" y2="207.1"/>
<line class="st3" x1="763.7" y1="207.1" x2="758.5" y2="225.4"/>
<line class="st3" x1="758.5" y1="225.4" x2="758.4" y2="229.8"/>
<line class="st3" x1="701.2" y1="214.6" x2="700.7" y2="221.8"/>
<line class="st3" x1="700.7" y1="221.8" x2="703.2" y2="230.4"/>
<line class="st3" x1="703.2" y1="230.4" x2="710.2" y2="236"/>
<line class="st3" x1="710.2" y1="236" x2="712.4" y2="235.1"/>
<line class="st3" x1="712.4" y1="235.1" x2="720.3" y2="235.7"/>
<line class="st3" x1="720.3" y1="235.7" x2="723.2" y2="241.1"/>
<line class="st3" x1="723.2" y1="241.1" x2="722.6" y2="249"/>
<line class="st3" x1="722.6" y1="249" x2="721.4" y2="253.3"/>
<line class="st3" x1="655.7" y1="239.2" x2="664.5" y2="242.7"/>
<line class="st3" x1="664.5" y1="242.7" x2="668.4" y2="241.5"/>
<line class="st3" x1="578.4" y1="192.5" x2="585.4" y2="196.9"/>
<line class="st3" x1="706.9" y1="217.1" x2="716.1" y2="212.5"/>
<line class="st3" x1="716.1" y1="212.5" x2="716.8" y2="217.2"/>
<line class="st3" x1="716.8" y1="217.2" x2="708.4" y2="221.5"/>
<line class="st3" x1="708.4" y1="221.5" x2="706.9" y2="217.1"/>
<line class="st3" x1="763.2" y1="187.4" x2="763.9" y2="192.3"/>
<line class="st3" x1="763.9" y1="192.3" x2="773.2" y2="187"/>
<line class="st3" x1="773.2" y1="187" x2="772.2" y2="181.8"/>
<line class="st3" x1="772.2" y1="181.8" x2="763.2" y2="187.4"/>
<line class="st3" x1="801.6" y1="144.8" x2="816.9" y2="151.6"/>
<line class="st3" x1="816.9" y1="151.6" x2="815.5" y2="152.5"/>
<line class="st3" x1="815.5" y1="152.5" x2="819.5" y2="158.4"/>
<line class="st3" x1="819.5" y1="158.4" x2="819.2" y2="165.3"/>
<line class="st3" x1="819.2" y1="165.3" x2="817.2" y2="165.6"/>
<line class="st3" x1="817.2" y1="165.6" x2="809.3" y2="159.1"/>
<line class="st3" x1="809.3" y1="159.1" x2="806" y2="157.5"/>
<line class="st3" x1="818.1" y1="147" x2="820.7" y2="154.3"/>
<line class="st3" x1="820.7" y1="154.3" x2="824.3" y2="166.6"/>
<line class="st3" x1="824.3" y1="166.6" x2="819.3" y2="190.8"/>
<line class="st3" x1="819.3" y1="190.8" x2="818.5" y2="196.1"/>
<line class="st3" x1="827.8" y1="188.3" x2="819.3" y2="190.8"/>
<line class="st3" x1="819.3" y1="190.8" x2="758.5" y2="225.4"/>
<line class="st3" x1="758.5" y1="225.4" x2="722.6" y2="249"/>
<line class="st3" x1="818.1" y1="147" x2="823.9" y2="144.1"/>
<line class="st3" x1="823.9" y1="144.1" x2="858.5" y2="127.2"/>
<line class="st3" x1="858.5" y1="127.2" x2="875.3" y2="119.6"/>
<line class="st3" x1="875.3" y1="119.6" x2="879.2" y2="117.3"/>
<line class="st3" x1="882.8" y1="126.7" x2="883.1" y2="133"/>
<line class="st3" x1="883.1" y1="133" x2="867.8" y2="149.7"/>
<line class="st3" x1="856" y1="149.6" x2="863.4" y2="147.8"/>
<line class="st3" x1="863.4" y1="147.8" x2="868.2" y2="149.3"/>
<line class="st3" x1="868.2" y1="149.3" x2="870.5" y2="156.2"/>
<line class="st3" x1="870.5" y1="156.2" x2="868.5" y2="167"/>
<line class="st3" x1="716.4" y1="94.8" x2="711.3" y2="95.7"/>
<line class="st3" x1="703.1" y1="99.2" x2="702.1" y2="99.6"/>
<line class="st3" x1="706.8" y1="245.6" x2="705.8" y2="252.5"/>
<line class="st3" x1="705.8" y1="252.5" x2="705.6" y2="252.8"/>
<line class="st3" x1="710.5" y1="245.6" x2="707.4" y2="252.7"/>
<line class="st3" x1="713.2" y1="247.9" x2="708.7" y2="253.5"/>
<line class="st3" x1="714.7" y1="251.4" x2="709.8" y2="255.3"/>
<line class="st3" x1="714.7" y1="256.5" x2="709.5" y2="257.3"/>
<line class="st3" x1="713" y1="261" x2="708.8" y2="260.1"/>
<line class="st3" x1="710.6" y1="265.4" x2="707.5" y2="262.7"/>
<line class="st3" x1="707.6" y1="269.3" x2="706" y2="264.9"/>
<line class="st3" x1="703.9" y1="272" x2="704.2" y2="266.3"/>
<line class="st3" x1="698.7" y1="275.3" x2="701.5" y2="267.1"/>
<line class="st3" x1="696.4" y1="274" x2="700.2" y2="266.9"/>
<line class="st3" x1="693.2" y1="271.7" x2="698.6" y2="266.6"/>
<line class="st3" x1="692" y1="267.3" x2="698.2" y2="263.9"/>
<line class="st3" x1="693.3" y1="262.5" x2="698.7" y2="261.9"/>
<line class="st3" x1="693.7" y1="258.1" x2="699.1" y2="259.4"/>
<line class="st3" x1="696.7" y1="254.3" x2="700.2" y2="256.6"/>
<line class="st3" x1="699.3" y1="250.4" x2="701.9" y2="254.4"/>
<line class="st3" x1="702.9" y1="247.1" x2="703.9" y2="253.2"/>
<line class="st3" x1="841" y1="186.1" x2="846.8" y2="180.2"/>
<line class="st3" x1="843.5" y1="188.7" x2="847.7" y2="181"/>
<line class="st3" x1="847.3" y1="189.7" x2="849.2" y2="181.6"/>
<line class="st3" x1="850.9" y1="188.2" x2="851.2" y2="180.3"/>
<line class="st3" x1="854.6" y1="184.6" x2="853.2" y2="179.2"/>
<line class="st3" x1="858.6" y1="179.9" x2="855" y2="176.9"/>
<line class="st3" x1="861" y1="174.8" x2="856.2" y2="174.5"/>
<line class="st3" x1="862.7" y1="169.5" x2="857.2" y2="172"/>
<line class="st3" x1="862.5" y1="164.2" x2="856.9" y2="169.8"/>
<line class="st3" x1="860.8" y1="160.8" x2="856.4" y2="168"/>
<line class="st3" x1="858.1" y1="159.4" x2="854.7" y2="167.8"/>
<line class="st3" x1="854" y1="159.9" x2="853.6" y2="167.5"/>
<line class="st3" x1="850.1" y1="161.8" x2="851.3" y2="168.3"/>
<line class="st3" x1="847" y1="164.7" x2="849.1" y2="169.3"/>
<line class="st3" x1="843.8" y1="168.4" x2="847.7" y2="171.4"/>
<line class="st3" x1="841.8" y1="173.2" x2="846.7" y2="173.7"/>
<line class="st3" x1="839.9" y1="177.7" x2="846.5" y2="176.1"/>
<line class="st3" x1="840.2" y1="181.6" x2="845.8" y2="178.9"/>
<line class="st3" x1="815.5" y1="152.5" x2="812" y2="151.3"/>
<line class="st3" x1="812" y1="151.3" x2="810.1" y2="152.5"/>
<line class="st3" x1="810.1" y1="154" x2="807.2" y2="153.6"/>
<line class="st3" x1="807.2" y1="153.6" x2="805.5" y2="156"/>
<polygon class="st4" points="394.6,108.8 472.5,63.9 476.4,66.1 398.5,111.1 "/>
<polygon class="st5" points="394.6,108.8 472.5,63.9 476.4,66.1 398.5,111.1 "/>
<polygon class="st6" points="394.6,108.8 472.5,63.9 476.4,66.1 398.5,111.1 "/>
<polygon class="st4" points="370.6,221.2 448.5,176.3 488.8,163.2 489,161.7 445.2,163.4 445.2,160.5 491.7,159.4 492.8,163.9 
	471.1,193.5 468.6,192 488.1,165.6 452.4,178.5 374.5,223.5 "/>
<polygon class="st5" points="370.6,221.2 448.5,176.3 488.8,163.2 489,161.7 445.2,163.4 445.2,160.5 491.7,159.4 492.8,163.9 
	471.1,193.5 468.6,192 488.1,165.6 452.4,178.5 374.5,223.5 "/>
<polygon class="st6" points="370.6,221.2 448.5,176.3 488.8,163.2 489,161.7 445.2,163.4 445.2,160.5 491.7,159.4 492.8,163.9 
	471.1,193.5 468.6,192 488.1,165.6 452.4,178.5 374.5,223.5 "/>
<polygon class="st4" points="499.8,48.1 577.6,3.1 581.5,5.4 503.7,50.4 "/>
<polygon class="st5" points="499.8,48.1 577.6,3.1 581.5,5.4 503.7,50.4 "/>
<polygon class="st6" points="499.8,48.1 577.6,3.1 581.5,5.4 503.7,50.4 "/>
<polygon class="st4" points="285.6,172 363.5,127 367.3,129.3 289.5,174.2 "/>
<polygon class="st5" points="285.6,172 363.5,127 367.3,129.3 289.5,174.2 "/>
<polygon class="st6" points="285.6,172 363.5,127 367.3,129.3 289.5,174.2 "/>
<polygon class="st4" points="182.4,231.4 260.3,186.4 264.1,188.6 186.3,233.6 "/>
<polygon class="st5" points="182.4,231.4 260.3,186.4 264.1,188.6 186.3,233.6 "/>
<polygon class="st6" points="182.4,231.4 260.3,186.4 264.1,188.6 186.3,233.6 "/>
</svg>
